<?xml version="1.0" standalone="no"?>
<!DOCTYPE svg PUBLIC "-//W3C//DTD SVG 1.1//EN" "http://www.w3.org/Graphics/SVG/1.1/DTD/svg11.dtd" >
<svg xmlns="http://www.w3.org/2000/svg" xmlns:xlink="http://www.w3.org/1999/xlink" version="1.1">
<metadata>
Created by FontForge 20160407 at Fri Jun 17 06:25:22 2016
 By Jimmy Wärting
Copyright (c) 2013 Apple Inc. All rights reserved.
</metadata>
<defs>
<font id="SanFranciscoText-Medium" horiz-adv-x="1167" >
  <font-face 
    font-family="San Francisco Text"
    font-weight="500"
    font-stretch="normal"
    units-per-em="2048"
    panose-1="0 0 0 0 0 0 0 0 0 0"
    ascent="1638"
    descent="-410"
    x-height="1056"
    cap-height="1365"
    bbox="-584 -492.282 2063 1990"
    underline-thickness="102"
    underline-position="-161"
    stemh="236"
    stemv="269"
    unicode-range="U+0020-FB02"
  />
<missing-glyph horiz-adv-x="1293" 
d="M120 0v1365h1053v-1365h-1053zM501 313c0 -63 49 -107 120 -107c74 0 122 43 122 107c0 65 -48 108 -122 108c-72 0 -120 -44 -120 -108zM339 888h169c1 79 49 130 125 130c72 0 120 -43 120 -110c0 -51 -20 -78 -103 -138c-92 -65 -125 -129 -118 -221l1 -18h166v15
c0 64 15 87 107 153c97 70 133 130 133 218c0 151 -117 250 -296 250c-190 0 -310 -109 -304 -279z" />
    <glyph glyph-name=".notdef" horiz-adv-x="1293" 
d="M120 0v1365h1053v-1365h-1053zM501 313c0 -63 49 -107 120 -107c74 0 122 43 122 107c0 65 -48 108 -122 108c-72 0 -120 -44 -120 -108zM339 888h169c1 79 49 130 125 130c72 0 120 -43 120 -110c0 -51 -20 -78 -103 -138c-92 -65 -125 -129 -118 -221l1 -18h166v15
c0 64 15 87 107 153c97 70 133 130 133 218c0 151 -117 250 -296 250c-190 0 -310 -109 -304 -279z" />
    <glyph glyph-name=".null" horiz-adv-x="0" 
 />
    <glyph glyph-name="nonmarkingreturn" horiz-adv-x="0" 
 />
    <glyph glyph-name="space" unicode=" " horiz-adv-x="461" 
 />
    <glyph glyph-name="A" unicode="A" horiz-adv-x="1272" 
d="M257 0h-208l476 1365h223l475 -1365h-220l-128 381h-490zM635 1132h-8l-192 -581h392z" />
    <glyph glyph-name="Agrave" unicode="&#xc0;" horiz-adv-x="1272" 
d="M257 0h-208l476 1365h223l475 -1365h-220l-128 381h-490zM635 1132h-8l-192 -581h392zM770 1509h-201l-280 209h224z" />
    <glyph glyph-name="Aacute" unicode="&#xc1;" horiz-adv-x="1272" 
d="M257 0h-208l476 1365h223l475 -1365h-220l-128 381h-490zM635 1132h-8l-192 -581h392zM492 1509l260 212h228l-279 -212h-209z" />
    <glyph glyph-name="Adieresis" unicode="&#xc4;" horiz-adv-x="1272" 
d="M257 0h-208l476 1365h223l475 -1365h-220l-128 381h-490zM635 1132h-8l-192 -581h392zM343 1580c0 64 47 108 110 108c66 0 112 -44 112 -108c0 -62 -46 -107 -112 -107c-63 0 -110 45 -110 107zM706 1580c0 64 47 108 110 108c66 0 113 -44 113 -108
c0 -62 -46 -107 -113 -107c-63 0 -110 45 -110 107z" />
    <glyph glyph-name="Adieresismacron" unicode="&#x1de;" horiz-adv-x="1272" 
d="M257 0h-208l476 1365h223l475 -1365h-220l-128 381h-490zM635 1132h-8l-192 -581h392zM343 1580c0 64 47 108 110 108c66 0 112 -44 112 -108c0 -62 -46 -107 -112 -107c-63 0 -110 45 -110 107zM706 1580c0 64 47 108 110 108c66 0 113 -44 113 -108
c0 -62 -46 -107 -113 -107c-63 0 -110 45 -110 107zM931 1778h-590v124h590v-124z" />
    <glyph glyph-name="Aring" unicode="&#xc5;" horiz-adv-x="1272" 
d="M525 1496c0 -60 50 -108 108 -108c60 0 108 48 108 108c0 61 -48 107 -108 107c-58 0 -108 -46 -108 -107zM827 551l-192 581h-8l-192 -581h392zM257 0h-208l464 1322c-58 36 -97 101 -97 175c0 125 96 223 217 223c120 0 216 -98 216 -223c0 -71 -37 -133 -91 -169
l465 -1328h-220l-128 381h-490z" />
    <glyph glyph-name="Aringacute" unicode="&#x1fa;" horiz-adv-x="1272" 
d="M528 1672l311 250h228l-329 -250h-210zM525 1496c0 -60 50 -108 108 -108c60 0 108 48 108 108c0 61 -48 107 -108 107c-58 0 -108 -46 -108 -107zM827 551l-192 581h-8l-192 -581h392zM257 0h-208l464 1322c-58 36 -97 101 -97 175c0 125 96 223 217 223
c120 0 216 -98 216 -223c0 -71 -37 -133 -91 -169l465 -1328h-220l-128 381h-490z" />
    <glyph glyph-name="Atilde" unicode="&#xc3;" horiz-adv-x="1272" 
d="M257 0h-208l476 1365h223l475 -1365h-220l-128 381h-490zM635 1132h-8l-192 -581h392zM609 1521c-24 24 -49 54 -86 54c-57 0 -66 -54 -69 -98h-126c0 108 56 218 185 218c66 0 109 -27 156 -70c29 -28 48 -55 85 -55c49 0 68 64 72 109h125c0 -110 -71 -222 -186 -222
c-81 0 -119 28 -156 64z" />
    <glyph glyph-name="Abrevegrave" unicode="&#x1eb0;" horiz-adv-x="1272" 
d="M257 0h-208l476 1365h223l475 -1365h-220l-128 381h-490zM635 1132h-8l-192 -581h392zM921 1721c0 -125 -87 -244 -285 -244s-292 116 -292 244h129c0 -70 57 -125 163 -125s164 55 165 125h120zM753 1727h-160l-273 239h183z" />
    <glyph glyph-name="Adotmacron" unicode="&#x1e0;" horiz-adv-x="1272" 
d="M257 0h-208l476 1365h223l475 -1365h-220l-128 381h-490zM635 1132h-8l-192 -581h392zM528 1602c0 66 44 114 108 114s112 -48 112 -114c0 -67 -48 -112 -112 -112s-108 45 -108 112zM931 1778h-590v124h590v-124z" />
    <glyph glyph-name="Aringbelow" unicode="&#x1e00;" horiz-adv-x="1272" 
d="M257 0h-208l476 1365h223l475 -1365h-220l-128 381h-490zM635 1132h-8l-192 -581h392zM628 -462c-110 0 -198 84 -198 197s88 195 198 195c111 0 198 -82 198 -195s-87 -197 -198 -197zM529 -266c0 -55 43 -99 99 -99s99 44 99 99c0 56 -43 99 -99 99s-99 -43 -99 -99z
" />
    <glyph glyph-name="Acircumflex" unicode="&#xc2;" horiz-adv-x="1272" 
d="M257 0h-208l476 1365h223l475 -1365h-220l-128 381h-490zM635 1132h-8l-192 -581h392zM302 1497l278 246h135l266 -246h-185l-148 135h-8l-156 -135h-182z" />
    <glyph glyph-name="Acircumflexdotbelow" unicode="&#x1eac;" horiz-adv-x="1272" 
d="M257 0h-208l476 1365h223l475 -1365h-220l-128 381h-490zM635 1132h-8l-192 -581h392zM521 -249c0 69 48 118 115 118s116 -49 116 -118s-49 -115 -116 -115s-115 46 -115 115zM302 1497l278 246h135l266 -246h-185l-148 135h-8l-156 -135h-182z" />
    <glyph glyph-name="Acircumflexacute" unicode="&#x1ea4;" horiz-adv-x="1272" 
d="M257 0h-208l476 1365h223l475 -1365h-220l-128 381h-490zM635 1132h-8l-192 -581h392zM279 1504l272 224h179l260 -224h-193l-155 127h-8l-157 -127h-198zM839 1733l192 215h194l-306 -279z" />
    <glyph glyph-name="Acircumflextilde" unicode="&#x1eaa;" horiz-adv-x="1272" 
d="M257 0h-208l476 1365h223l475 -1365h-220l-128 381h-490zM635 1132h-8l-192 -581h392zM628 1826c-25 23 -52 51 -90 51c-58 0 -68 -53 -71 -95h-128c0 100 59 208 190 208c67 0 109 -24 158 -67c29 -26 52 -51 88 -51c51 0 70 61 74 104h128c0 -113 -74 -211 -190 -211
c-84 0 -122 27 -159 61zM279 1499l272 217h179l260 -217h-193l-155 125h-8l-157 -125h-198z" />
    <glyph glyph-name="Acircumflexgrave" unicode="&#x1ea6;" horiz-adv-x="1272" 
d="M257 0h-208l476 1365h223l475 -1365h-220l-128 381h-490zM635 1132h-8l-192 -581h392zM1094 1700h-144l-262 248h192zM279 1504l272 224h179l260 -224h-193l-155 127h-8l-157 -127h-198z" />
    <glyph glyph-name="Acircumflexhookabove" unicode="&#x1ea8;" horiz-adv-x="1272" 
d="M257 0h-208l476 1365h223l475 -1365h-220l-128 381h-490zM635 1132h-8l-192 -581h392zM279 1504l272 224h179l260 -224h-193l-155 127h-8l-157 -127h-198zM806 1868v101c19 5 59 9 91 9c115 0 188 -53 188 -149c0 -75 -55 -131 -114 -165l-67 73c30 21 53 43 53 74
c0 40 -37 62 -87 62c-18 0 -43 -1 -64 -5z" />
    <glyph glyph-name="Abreve" unicode="&#x102;" horiz-adv-x="1272" 
d="M257 0h-208l476 1365h223l475 -1365h-220l-128 381h-490zM635 1132h-8l-192 -581h392zM309 1755h134c0 -93 62 -157 193 -157s193 64 193 157h133c0 -155 -108 -276 -326 -276s-327 121 -327 276z" />
    <glyph glyph-name="Abreveacute" unicode="&#x1eae;" horiz-adv-x="1272" 
d="M257 0h-208l476 1365h223l475 -1365h-220l-128 381h-490zM635 1132h-8l-192 -581h392zM922 1721c0 -125 -88 -244 -286 -244s-291 117 -291 244h128c1 -69 57 -125 163 -125s165 54 165 125h121zM534 1727l249 239h180l-270 -239h-159z" />
    <glyph glyph-name="Abrevetilde" unicode="&#x1eb4;" horiz-adv-x="1272" 
d="M257 0h-208l476 1365h223l475 -1365h-220l-128 381h-490zM635 1132h-8l-192 -581h392zM922 1700c0 -121 -95 -230 -286 -230s-291 107 -291 230h128c0 -67 61 -118 163 -118s165 50 165 118h121zM609 1822c-22 23 -44 49 -81 49c-50 0 -62 -47 -65 -88h-124
c0 102 67 201 179 201c62 0 97 -21 141 -62c27 -26 45 -49 81 -49c45 0 64 55 67 98h122c0 -113 -71 -205 -178 -205c-75 0 -109 23 -142 56z" />
    <glyph glyph-name="Abrevehookabove" unicode="&#x1eb2;" horiz-adv-x="1272" 
d="M257 0h-208l476 1365h223l475 -1365h-220l-128 381h-490zM635 1132h-8l-192 -581h392zM921 1708c0 -122 -87 -232 -285 -232c-194 0 -291 108 -291 233h128c0 -63 57 -119 163 -119s165 56 165 118h120zM463 1867v102c18 6 58 16 104 16c112 0 202 -54 202 -151
c0 -95 -95 -143 -145 -160l-67 84c35 8 82 30 82 65c0 42 -45 54 -86 54s-68 -5 -90 -10z" />
    <glyph glyph-name="Abrevedotbelow" unicode="&#x1eb6;" horiz-adv-x="1272" 
d="M257 0h-208l476 1365h223l475 -1365h-220l-128 381h-490zM635 1132h-8l-192 -581h392zM521 -249c0 69 48 118 115 118s116 -49 116 -118s-49 -115 -116 -115s-115 46 -115 115zM309 1755h134c0 -93 62 -157 193 -157s193 64 193 157h133c0 -155 -108 -276 -326 -276
s-327 121 -327 276z" />
    <glyph glyph-name="Ainvertedbreve" unicode="&#x202;" horiz-adv-x="1272" 
d="M257 0h-208l476 1365h223l475 -1365h-220l-128 381h-490zM635 1132h-8l-192 -581h392zM636 1640c-123 0 -190 -70 -190 -148h-132c0 140 111 270 322 270s322 -130 322 -270h-132c0 78 -67 148 -190 148z" />
    <glyph glyph-name="Acaron" unicode="&#x1cd;" horiz-adv-x="1272" 
d="M257 0h-208l476 1365h223l475 -1365h-220l-128 381h-490zM635 1132h-8l-192 -581h392zM293 1717h190l151 -120h9l139 120h194l-237 -214h-194z" />
    <glyph glyph-name="Adotaccent" unicode="&#x226;" horiz-adv-x="1272" 
d="M257 0h-208l476 1365h223l475 -1365h-220l-128 381h-490zM635 1132h-8l-192 -581h392zM528 1602c0 66 44 114 108 114s112 -48 112 -114c0 -67 -48 -112 -112 -112s-108 45 -108 112z" />
    <glyph glyph-name="Adotbelow" unicode="&#x1ea0;" horiz-adv-x="1272" 
d="M257 0h-208l476 1365h223l475 -1365h-220l-128 381h-490zM635 1132h-8l-192 -581h392zM521 -249c0 69 48 118 115 118s116 -49 116 -118s-49 -115 -116 -115s-115 46 -115 115z" />
    <glyph glyph-name="Ahookabove" unicode="&#x1ea2;" horiz-adv-x="1272" 
d="M257 0h-208l476 1365h223l475 -1365h-220l-128 381h-490zM635 1132h-8l-192 -581h392zM503 1681v97c17 7 55 16 99 16c112 0 197 -54 197 -152c0 -99 -92 -141 -140 -162l-66 84c37 10 84 34 84 69c0 45 -45 57 -87 57c-39 0 -67 -5 -87 -9z" />
    <glyph glyph-name="Adblgrave" unicode="&#x200;" horiz-adv-x="1272" 
d="M257 0h-208l476 1365h223l475 -1365h-220l-128 381h-490zM635 1132h-8l-192 -581h392zM945 1509h-188l-335 250h212zM575 1509h-188l-335 250h212z" />
    <glyph glyph-name="Amacron" unicode="&#x100;" horiz-adv-x="1272" 
d="M257 0h-208l476 1365h223l475 -1365h-220l-128 381h-490zM635 1132h-8l-192 -581h392zM931 1505h-590v124h590v-124z" />
    <glyph glyph-name="Aogonek" unicode="&#x104;" horiz-adv-x="1272" 
d="M257 0h-208l476 1365h223l468 -1340c-82 -27 -179 -83 -179 -173c0 -63 49 -97 116 -97c21 0 57 3 79 8v-130c-20 -10 -74 -20 -125 -20c-124 0 -239 60 -239 197c0 112 81 179 143 219v4h-21l-115 348h-490zM634 1131l-5 2l-194 -581h394z" />
    <glyph glyph-name="B" unicode="B" horiz-adv-x="1287" 
d="M184 0v1365h531c230 0 387 -124 387 -336c0 -169 -94 -265 -223 -300v-10c183 -21 299 -144 299 -335c0 -251 -201 -384 -477 -384h-517zM389 1188v-401h199c205 0 309 63 309 204c0 135 -96 197 -221 197h-287zM389 618v-441h225c206 0 353 43 353 214
c0 151 -109 227 -273 227h-305z" />
    <glyph glyph-name="Blinebelow" unicode="&#x1e06;" horiz-adv-x="1287" 
d="M184 0v1365h531c230 0 387 -124 387 -336c0 -169 -94 -265 -223 -300v-10c183 -21 299 -144 299 -335c0 -251 -201 -384 -477 -384h-517zM389 1188v-401h199c205 0 309 63 309 204c0 135 -96 197 -221 197h-287zM389 618v-441h225c206 0 353 43 353 214
c0 151 -109 227 -273 227h-305zM905 -319h-581v126h581v-126z" />
    <glyph glyph-name="Bdotbelow" unicode="&#x1e04;" horiz-adv-x="1287" 
d="M492 -249c0 69 48 118 115 118s116 -49 116 -118s-49 -115 -116 -115s-115 46 -115 115zM184 0v1365h531c230 0 387 -124 387 -336c0 -169 -94 -265 -223 -300v-10c183 -21 299 -144 299 -335c0 -251 -201 -384 -477 -384h-517zM389 1188v-401h199c205 0 309 63 309 204
c0 135 -96 197 -221 197h-287zM389 618v-441h225c206 0 353 43 353 214c0 151 -109 227 -273 227h-305z" />
    <glyph glyph-name="Bdotaccent" unicode="&#x1e02;" horiz-adv-x="1287" 
d="M184 0v1365h531c230 0 387 -124 387 -336c0 -169 -94 -265 -223 -300v-10c183 -21 299 -144 299 -335c0 -251 -201 -384 -477 -384h-517zM389 1188v-401h199c205 0 309 63 309 204c0 135 -96 197 -221 197h-287zM389 618v-441h225c206 0 353 43 353 214
c0 151 -109 227 -273 227h-305zM499 1602c0 66 44 114 108 114s112 -48 112 -114c0 -67 -48 -112 -112 -112s-108 45 -108 112z" />
    <glyph glyph-name="C" unicode="C" horiz-adv-x="1312" 
d="M337 770v-182c0 -289 137 -423 345 -423c203 0 308 126 308 273h201v-15c0 -216 -167 -451 -516 -451c-336 0 -545 218 -545 615v185c0 391 213 620 547 620c335 0 514 -230 514 -469v-15h-201c0 146 -109 293 -312 293s-341 -146 -341 -431z" />
    <glyph glyph-name="Cacute" unicode="&#x106;" horiz-adv-x="1312" 
d="M529 1509l260 212h228l-279 -212h-209zM337 770v-182c0 -289 137 -423 345 -423c203 0 308 126 308 273h201v-15c0 -216 -167 -451 -516 -451c-336 0 -545 218 -545 615v185c0 391 213 620 547 620c335 0 514 -230 514 -469v-15h-201c0 146 -109 293 -312 293
s-341 -146 -341 -431z" />
    <glyph glyph-name="Ccaron" unicode="&#x10c;" horiz-adv-x="1312" 
d="M337 770v-182c0 -289 137 -423 345 -423c203 0 308 126 308 273h201v-15c0 -216 -167 -451 -516 -451c-336 0 -545 218 -545 615v185c0 391 213 620 547 620c335 0 514 -230 514 -469v-15h-201c0 146 -109 293 -312 293s-341 -146 -341 -431zM330 1717h190l151 -120h9
l139 120h194l-237 -214h-194z" />
    <glyph glyph-name="Ccircumflex" unicode="&#x108;" horiz-adv-x="1312" 
d="M337 770v-182c0 -289 137 -423 345 -423c203 0 308 126 308 273h201v-15c0 -216 -167 -451 -516 -451c-336 0 -545 218 -545 615v185c0 391 213 620 547 620c335 0 514 -230 514 -469v-15h-201c0 146 -109 293 -312 293s-341 -146 -341 -431zM339 1497l278 246h135
l266 -246h-185l-148 135h-8l-156 -135h-182z" />
    <glyph glyph-name="Cdotaccent" unicode="&#x10a;" horiz-adv-x="1312" 
d="M337 770v-182c0 -289 137 -423 345 -423c203 0 308 126 308 273h201v-15c0 -216 -167 -451 -516 -451c-336 0 -545 218 -545 615v185c0 391 213 620 547 620c335 0 514 -230 514 -469v-15h-201c0 146 -109 293 -312 293s-341 -146 -341 -431zM565 1602
c0 66 44 114 108 114s112 -48 112 -114c0 -67 -48 -112 -112 -112s-108 45 -108 112z" />
    <glyph glyph-name="Ccedilla" unicode="&#xc7;" horiz-adv-x="1312" 
d="M666 -485c-63 -2 -122 8 -150 16v113c27 -8 82 -14 115 -14c54 0 116 15 116 71c0 61 -67 64 -143 64h-53v89l47 123c-290 31 -468 244 -468 610v185c0 391 213 620 547 620c335 0 514 -230 514 -469v-15h-201c0 146 -109 293 -312 293s-341 -146 -341 -431v-182
c0 -289 137 -423 345 -423c203 0 308 126 308 273h201v-15c0 -202 -148 -425 -463 -448l-40 -104c124 0 207 -56 207 -164c0 -131 -101 -187 -229 -192z" />
    <glyph glyph-name="Ccedillaacute" unicode="&#x1e08;" horiz-adv-x="1312" 
d="M529 1509l260 212h228l-279 -212h-209zM666 -485c-63 -2 -122 8 -150 16v113c27 -8 82 -14 115 -14c54 0 116 15 116 71c0 61 -67 64 -143 64h-53v89l47 123c-290 31 -468 244 -468 610v185c0 391 213 620 547 620c335 0 514 -230 514 -469v-15h-201
c0 146 -109 293 -312 293s-341 -146 -341 -431v-182c0 -289 137 -423 345 -423c203 0 308 126 308 273h201v-15c0 -202 -148 -425 -463 -448l-40 -104c124 0 207 -56 207 -164c0 -131 -101 -187 -229 -192z" />
    <glyph glyph-name="D" unicode="D" horiz-adv-x="1356" 
d="M184 1365h458c440 0 603 -281 603 -681c0 -394 -157 -684 -603 -684h-458v1365zM390 1178v-990h233c277 0 410 155 410 493c0 296 -109 497 -410 497h-233z" />
    <glyph glyph-name="Ddotaccent" unicode="&#x1e0a;" horiz-adv-x="1356" 
d="M518 1602c0 66 44 114 108 114s112 -48 112 -114c0 -67 -48 -112 -112 -112s-108 45 -108 112zM184 1365h458c440 0 603 -281 603 -681c0 -394 -157 -684 -603 -684h-458v1365zM390 1178v-990h233c277 0 410 155 410 493c0 296 -109 497 -410 497h-233z" />
    <glyph glyph-name="Dcircumflexbelow" unicode="&#x1e12;" horiz-adv-x="1356" 
d="M184 1365h458c440 0 603 -281 603 -681c0 -394 -157 -684 -603 -684h-458v1365zM390 1178v-990h233c277 0 410 155 410 493c0 296 -109 497 -410 497h-233zM283 -373l277 253h137l266 -253h-188l-146 140h-7l-157 -140h-182z" />
    <glyph glyph-name="Dcommaaccent" unicode="&#x1e10;" horiz-adv-x="1356" 
d="M616 -472h-143l82 316h168zM184 1365h458c440 0 603 -281 603 -681c0 -394 -157 -684 -603 -684h-458v1365zM390 1178v-990h233c277 0 410 155 410 493c0 296 -109 497 -410 497h-233z" />
    <glyph glyph-name="Dlinebelow" unicode="&#x1e0e;" horiz-adv-x="1356" 
d="M924 -319h-581v126h581v-126zM184 1365h458c440 0 603 -281 603 -681c0 -394 -157 -684 -603 -684h-458v1365zM390 1178v-990h233c277 0 410 155 410 493c0 296 -109 497 -410 497h-233z" />
    <glyph glyph-name="Dcaron" unicode="&#x10e;" horiz-adv-x="1356" 
d="M283 1717h190l151 -120h9l139 120h194l-237 -214h-194zM184 1365h458c440 0 603 -281 603 -681c0 -394 -157 -684 -603 -684h-458v1365zM390 1178v-990h233c277 0 410 155 410 493c0 296 -109 497 -410 497h-233z" />
    <glyph glyph-name="Ddotbelow" unicode="&#x1e0c;" horiz-adv-x="1356" 
d="M511 -249c0 69 48 118 115 118s116 -49 116 -118s-49 -115 -116 -115s-115 46 -115 115zM184 1365h458c440 0 603 -281 603 -681c0 -394 -157 -684 -603 -684h-458v1365zM390 1178v-990h233c277 0 410 155 410 493c0 296 -109 497 -410 497h-233z" />
    <glyph glyph-name="Dcroat" unicode="&#x110;" horiz-adv-x="1438" 
d="M723 0h-458v599h-162v193h162v573h458c440 0 603 -281 603 -681c0 -394 -157 -684 -603 -684zM471 190h233c276 0 409 155 409 494c0 296 -108 497 -409 497h-233v-389h287v-193h-287v-409z" />
    <glyph glyph-name="E" unicode="E" horiz-adv-x="1161" 
d="M1023 188v-188h-839v1365h839v-188h-634v-393h598v-180h-598v-416h634z" />
    <glyph glyph-name="Egrave" unicode="&#xc8;" horiz-adv-x="1161" 
d="M733 1509h-201l-280 209h224zM1023 188v-188h-839v1365h839v-188h-634v-393h598v-180h-598v-416h634z" />
    <glyph glyph-name="Edblgrave" unicode="&#x204;" horiz-adv-x="1161" 
d="M908 1509h-188l-335 250h212zM538 1509h-188l-335 250h212zM1023 188v-188h-839v1365h839v-188h-634v-393h598v-180h-598v-416h634z" />
    <glyph glyph-name="Eacute" unicode="&#xc9;" horiz-adv-x="1161" 
d="M455 1509l260 212h228l-279 -212h-209zM1023 188v-188h-839v1365h839v-188h-634v-393h598v-180h-598v-416h634z" />
    <glyph glyph-name="Ecircumflex" unicode="&#xca;" horiz-adv-x="1161" 
d="M265 1497l278 246h135l266 -246h-185l-148 135h-8l-156 -135h-182zM1023 188v-188h-839v1365h839v-188h-634v-393h598v-180h-598v-416h634z" />
    <glyph glyph-name="Ecircumflexhookabove" unicode="&#x1ec2;" horiz-adv-x="1161" 
d="M242 1504l272 224h179l260 -224h-193l-155 127h-8l-157 -127h-198zM769 1868v101c19 5 59 9 91 9c115 0 188 -53 188 -149c0 -75 -55 -131 -114 -165l-67 73c30 21 53 43 53 74c0 40 -37 62 -87 62c-18 0 -43 -1 -64 -5zM1023 188v-188h-839v1365h839v-188h-634v-393h598
v-180h-598v-416h634z" />
    <glyph glyph-name="Ecircumflexgrave" unicode="&#x1ec0;" horiz-adv-x="1161" 
d="M1057 1700h-144l-262 248h192zM242 1504l272 224h179l260 -224h-193l-155 127h-8l-157 -127h-198zM1023 188v-188h-839v1365h839v-188h-634v-393h598v-180h-598v-416h634z" />
    <glyph glyph-name="Ecircumflextilde" unicode="&#x1ec4;" horiz-adv-x="1161" 
d="M1023 188v-188h-839v1365h839v-188h-634v-393h598v-180h-598v-416h634zM591 1826c-25 23 -52 51 -90 51c-58 0 -68 -53 -71 -95h-128c0 100 59 208 190 208c67 0 109 -24 158 -67c29 -26 52 -51 88 -51c51 0 70 61 74 104h128c0 -113 -74 -211 -190 -211
c-84 0 -122 27 -159 61zM242 1499l272 217h179l260 -217h-193l-155 125h-8l-157 -125h-198z" />
    <glyph glyph-name="Ecircumflexdotbelow" unicode="&#x1ec6;" horiz-adv-x="1161" 
d="M484 -249c0 69 48 118 115 118s116 -49 116 -118s-49 -115 -116 -115s-115 46 -115 115zM265 1497l278 246h135l266 -246h-185l-148 135h-8l-156 -135h-182zM1023 188v-188h-839v1365h839v-188h-634v-393h598v-180h-598v-416h634z" />
    <glyph glyph-name="Ecircumflexacute" unicode="&#x1ebe;" horiz-adv-x="1161" 
d="M242 1504l272 224h179l260 -224h-193l-155 127h-8l-157 -127h-198zM802 1733l192 215h194l-306 -279zM1023 188v-188h-839v1365h839v-188h-634v-393h598v-180h-598v-416h634z" />
    <glyph glyph-name="Edieresis" unicode="&#xcb;" horiz-adv-x="1161" 
d="M305 1580c0 64 47 108 110 108c66 0 112 -44 112 -108c0 -62 -46 -107 -112 -107c-63 0 -110 45 -110 107zM668 1580c0 64 47 108 110 108c66 0 113 -44 113 -108c0 -62 -46 -107 -113 -107c-63 0 -110 45 -110 107zM1023 188v-188h-839v1365h839v-188h-634v-393h598
v-180h-598v-416h634z" />
    <glyph glyph-name="Edotbelow" unicode="&#x1eb8;" horiz-adv-x="1161" 
d="M484 -249c0 69 48 118 115 118s116 -49 116 -118s-49 -115 -116 -115s-115 46 -115 115zM1023 188v-188h-839v1365h839v-188h-634v-393h598v-180h-598v-416h634z" />
    <glyph glyph-name="Einvertedbreve" unicode="&#x206;" horiz-adv-x="1161" 
d="M1023 188v-188h-839v1365h839v-188h-634v-393h598v-180h-598v-416h634zM599 1640c-123 0 -190 -70 -190 -148h-132c0 140 111 270 322 270s322 -130 322 -270h-132c0 78 -67 148 -190 148z" />
    <glyph glyph-name="Ehookabove" unicode="&#x1eba;" horiz-adv-x="1161" 
d="M1023 188v-188h-839v1365h839v-188h-634v-393h598v-180h-598v-416h634zM466 1681v97c17 7 55 16 99 16c112 0 197 -54 197 -152c0 -99 -92 -141 -140 -162l-66 84c37 10 84 34 84 69c0 45 -45 57 -87 57c-39 0 -67 -5 -87 -9z" />
    <glyph glyph-name="Ecaron" unicode="&#x11a;" horiz-adv-x="1161" 
d="M256 1717h190l151 -120h9l139 120h194l-237 -214h-194zM1023 188v-188h-839v1365h839v-188h-634v-393h598v-180h-598v-416h634z" />
    <glyph glyph-name="Emacron" unicode="&#x112;" horiz-adv-x="1161" 
d="M1023 188v-188h-839v1365h839v-188h-634v-393h598v-180h-598v-416h634zM894 1505h-590v124h590v-124z" />
    <glyph glyph-name="Emacrongrave" unicode="&#x1e14;" horiz-adv-x="1161" 
d="M733 1739h-201l-280 209h224zM1023 188v-188h-839v1365h839v-188h-634v-393h598v-180h-598v-416h634zM894 1505h-590v124h590v-124z" />
    <glyph glyph-name="Emacronacute" unicode="&#x1e16;" horiz-adv-x="1161" 
d="M455 1739l260 212h228l-279 -212h-209zM1023 188v-188h-839v1365h839v-188h-634v-393h598v-180h-598v-416h634zM894 1505h-590v124h590v-124z" />
    <glyph glyph-name="Etilde" unicode="&#x1ebc;" horiz-adv-x="1161" 
d="M1023 188v-188h-839v1365h839v-188h-634v-393h598v-180h-598v-416h634zM572 1521c-24 24 -49 54 -86 54c-57 0 -66 -54 -69 -98h-126c0 108 56 218 185 218c66 0 109 -27 156 -70c29 -28 48 -55 85 -55c49 0 68 64 72 109h125c0 -110 -71 -222 -186 -222
c-81 0 -119 28 -156 64z" />
    <glyph glyph-name="Ecircumflexbelow" unicode="&#x1e18;" horiz-adv-x="1161" 
d="M1023 188v-188h-839v1365h839v-188h-634v-393h598v-180h-598v-416h634zM256 -373l277 253h137l266 -253h-188l-146 140h-7l-157 -140h-182z" />
    <glyph glyph-name="Ebreve" unicode="&#x114;" horiz-adv-x="1161" 
d="M1023 188v-188h-839v1365h839v-188h-634v-393h598v-180h-598v-416h634zM272 1755h134c0 -93 62 -157 193 -157s193 64 193 157h133c0 -155 -108 -276 -326 -276s-327 121 -327 276z" />
    <glyph glyph-name="Etildebelow" unicode="&#x1e1a;" horiz-adv-x="1161" 
d="M572 -315c-24 24 -49 54 -86 54c-57 0 -66 -54 -69 -98h-126c0 108 56 218 185 218c66 0 109 -27 156 -70c29 -28 48 -55 85 -55c49 0 68 64 72 109h125c0 -110 -71 -222 -186 -222c-81 0 -119 29 -156 64zM1023 188v-188h-839v1365h839v-188h-634v-393h598v-180h-598
v-416h634z" />
    <glyph glyph-name="Edotaccent" unicode="&#x116;" horiz-adv-x="1161" 
d="M491 1602c0 66 44 114 108 114s112 -48 112 -114c0 -67 -48 -112 -112 -112s-108 45 -108 112zM1023 188v-188h-839v1365h839v-188h-634v-393h598v-180h-598v-416h634z" />
    <glyph glyph-name="Ecedilla" unicode="&#x228;" horiz-adv-x="1161" 
d="M527 0h-343v1365h839v-188h-634v-393h598v-180h-598v-416h634v-188h-365l-49 -129c124 0 207 -56 207 -164c0 -131 -101 -187 -229 -192c-63 -2 -122 8 -150 16v113c27 -8 82 -14 115 -14c54 0 116 15 116 71c0 61 -67 64 -143 64h-53v89z" />
    <glyph glyph-name="Ecedillabreve" unicode="&#x1e1c;" horiz-adv-x="1161" 
d="M527 0h-343v1365h839v-188h-634v-393h598v-180h-598v-416h634v-188h-365l-49 -129c124 0 207 -56 207 -164c0 -131 -101 -187 -229 -192c-63 -2 -122 8 -150 16v113c27 -8 82 -14 115 -14c54 0 116 15 116 71c0 61 -67 64 -143 64h-53v89zM272 1755h134
c0 -93 62 -157 193 -157s193 64 193 157h133c0 -155 -108 -276 -326 -276s-327 121 -327 276z" />
    <glyph glyph-name="Eogonek" unicode="&#x118;" horiz-adv-x="1161" 
d="M1024 -368c-28 -9 -76 -19 -123 -19c-123 0 -231 59 -231 195c0 83 48 150 101 187v5h-587v1365h839v-188h-634v-393h598v-180h-598v-416h634v-159c-83 -18 -192 -74 -194 -175c0 -65 47 -99 119 -99c25 0 57 4 76 8v-131z" />
    <glyph glyph-name="F" unicode="F" horiz-adv-x="1096" 
d="M390 0h-206v1365h828v-189h-622v-423h569v-186h-569v-567z" />
    <glyph glyph-name="Fdotaccent" unicode="&#x1e1e;" horiz-adv-x="1096" 
d="M487 1602c0 66 44 114 108 114s112 -48 112 -114c0 -67 -48 -112 -112 -112s-108 45 -108 112zM390 0h-206v1365h828v-189h-622v-423h569v-186h-569v-567z" />
    <glyph glyph-name="G" unicode="G" horiz-adv-x="1337" 
d="M1203 939h-202c-23 176 -158 262 -316 262c-193 0 -349 -127 -349 -426v-178c0 -263 114 -433 347 -433c192 0 325 116 325 273v109h-329v177h528v-277c0 -196 -131 -474 -524 -474c-373 0 -553 253 -553 624v181c0 383 218 615 559 615c328 0 500 -217 514 -453z" />
    <glyph glyph-name="Gacute" unicode="&#x1f4;" horiz-adv-x="1337" 
d="M541 1509l260 212h228l-279 -212h-209zM1203 939h-202c-23 176 -158 262 -316 262c-193 0 -349 -127 -349 -426v-178c0 -263 114 -433 347 -433c192 0 325 116 325 273v109h-329v177h528v-277c0 -196 -131 -474 -524 -474c-373 0 -553 253 -553 624v181
c0 383 218 615 559 615c328 0 500 -217 514 -453z" />
    <glyph glyph-name="Gcaron" unicode="&#x1e6;" horiz-adv-x="1337" 
d="M342 1717h190l151 -120h9l139 120h194l-237 -214h-194zM1203 939h-202c-23 176 -158 262 -316 262c-193 0 -349 -127 -349 -426v-178c0 -263 114 -433 347 -433c192 0 325 116 325 273v109h-329v177h528v-277c0 -196 -131 -474 -524 -474c-373 0 -553 253 -553 624v181
c0 383 218 615 559 615c328 0 500 -217 514 -453z" />
    <glyph glyph-name="Gcircumflex" unicode="&#x11c;" horiz-adv-x="1337" 
d="M351 1497l278 246h135l266 -246h-185l-148 135h-8l-156 -135h-182zM1203 939h-202c-23 176 -158 262 -316 262c-193 0 -349 -127 -349 -426v-178c0 -263 114 -433 347 -433c192 0 325 116 325 273v109h-329v177h528v-277c0 -196 -131 -474 -524 -474
c-373 0 -553 253 -553 624v181c0 383 218 615 559 615c328 0 500 -217 514 -453z" />
    <glyph glyph-name="Gbreve" unicode="&#x11e;" horiz-adv-x="1337" 
d="M1203 939h-202c-23 176 -158 262 -316 262c-193 0 -349 -127 -349 -426v-178c0 -263 114 -433 347 -433c192 0 325 116 325 273v109h-329v177h528v-277c0 -196 -131 -474 -524 -474c-373 0 -553 253 -553 624v181c0 383 218 615 559 615c328 0 500 -217 514 -453z
M358 1755h134c0 -93 62 -157 193 -157s193 64 193 157h133c0 -155 -108 -276 -326 -276s-327 121 -327 276z" />
    <glyph glyph-name="Gmacron" unicode="&#x1e20;" horiz-adv-x="1337" 
d="M1203 939h-202c-23 176 -158 262 -316 262c-193 0 -349 -127 -349 -426v-178c0 -263 114 -433 347 -433c192 0 325 116 325 273v109h-329v177h528v-277c0 -196 -131 -474 -524 -474c-373 0 -553 253 -553 624v181c0 383 218 615 559 615c328 0 500 -217 514 -453z
M980 1505h-590v124h590v-124z" />
    <glyph glyph-name="Gdotaccent" unicode="&#x120;" horiz-adv-x="1337" 
d="M577 1602c0 66 44 114 108 114s112 -48 112 -114c0 -67 -48 -112 -112 -112s-108 45 -108 112zM1203 939h-202c-23 176 -158 262 -316 262c-193 0 -349 -127 -349 -426v-178c0 -263 114 -433 347 -433c192 0 325 116 325 273v109h-329v177h528v-277
c0 -196 -131 -474 -524 -474c-373 0 -553 253 -553 624v181c0 383 218 615 559 615c328 0 500 -217 514 -453z" />
    <glyph glyph-name="Gcommaaccent" unicode="&#x122;" horiz-adv-x="1337" 
d="M675 -472h-143l82 316h168zM1203 939h-202c-23 176 -158 262 -316 262c-193 0 -349 -127 -349 -426v-178c0 -263 114 -433 347 -433c192 0 325 116 325 273v109h-329v177h528v-277c0 -196 -131 -474 -524 -474c-373 0 -553 253 -553 624v181c0 383 218 615 559 615
c328 0 500 -217 514 -453z" />
    <glyph glyph-name="H" unicode="H" horiz-adv-x="1431" 
d="M1246 0h-206v607h-650v-607h-206v1365h206v-568h650v568h206v-1365z" />
    <glyph glyph-name="Hdieresis" unicode="&#x1e26;" horiz-adv-x="1431" 
d="M1246 0h-206v607h-650v-607h-206v1365h206v-568h650v568h206v-1365zM421 1580c0 64 47 108 110 108c66 0 112 -44 112 -108c0 -62 -46 -107 -112 -107c-63 0 -110 45 -110 107zM784 1580c0 64 47 108 110 108c66 0 113 -44 113 -108c0 -62 -46 -107 -113 -107
c-63 0 -110 45 -110 107z" />
    <glyph glyph-name="Hcaron" unicode="&#x21e;" horiz-adv-x="1431" 
d="M1246 0h-206v607h-650v-607h-206v1365h206v-568h650v568h206v-1365zM372 1717h190l151 -120h9l139 120h194l-237 -214h-194z" />
    <glyph glyph-name="Hcircumflex" unicode="&#x124;" horiz-adv-x="1431" 
d="M1246 0h-206v607h-650v-607h-206v1365h206v-568h650v568h206v-1365zM381 1497l278 246h135l266 -246h-185l-148 135h-8l-156 -135h-182z" />
    <glyph glyph-name="Hdotbelow" unicode="&#x1e24;" horiz-adv-x="1431" 
d="M1246 0h-206v607h-650v-607h-206v1365h206v-568h650v568h206v-1365zM600 -249c0 69 48 118 115 118s116 -49 116 -118s-49 -115 -116 -115s-115 46 -115 115z" />
    <glyph glyph-name="Hdotaccent" unicode="&#x1e22;" horiz-adv-x="1431" 
d="M1246 0h-206v607h-650v-607h-206v1365h206v-568h650v568h206v-1365zM607 1602c0 66 44 114 108 114s112 -48 112 -114c0 -67 -48 -112 -112 -112s-108 45 -108 112z" />
    <glyph glyph-name="Hbrevebelow" unicode="&#x1e2a;" horiz-adv-x="1431" 
d="M402 -135c0 -143 95 -290 313 -290s305 150 305 290h-131c0 -84 -55 -164 -174 -164s-174 80 -174 164h-139zM1246 0h-206v607h-650v-607h-206v1365h206v-568h650v568h206v-1365z" />
    <glyph glyph-name="Hcedilla" unicode="&#x1e28;" horiz-adv-x="1431" 
d="M259 0h-75v1365h206v-568h650v568h206v-1365h-206v607h-650v-607l-49 -129c124 0 207 -56 207 -164c0 -131 -101 -187 -229 -192c-63 -2 -122 8 -150 16v113c27 -8 82 -14 115 -14c54 0 116 15 116 71c0 61 -67 64 -143 64h-53v89z" />
    <glyph glyph-name="Hbar" unicode="&#x126;" horiz-adv-x="1431" 
d="M390 774h650v225h-650v-225zM390 585v-585h-206v999h-105v150h105v216h206v-216h650v216h206v-216h105v-150h-105v-999h-206v585h-650z" />
    <glyph glyph-name="I" unicode="I" horiz-adv-x="575" 
d="M390 0h-206v1365h206v-1365z" />
    <glyph glyph-name="Idotaccent" unicode="&#x130;" horiz-adv-x="575" 
d="M390 0h-206v1365h206v-1365zM180 1602c0 66 44 114 108 114s112 -48 112 -114c0 -67 -48 -112 -112 -112s-108 45 -108 112z" />
    <glyph glyph-name="Igrave" unicode="&#xcc;" horiz-adv-x="575" 
d="M390 0h-206v1365h206v-1365zM422 1509h-201l-280 209h224z" />
    <glyph glyph-name="Idblgrave" unicode="&#x208;" horiz-adv-x="575" 
d="M390 0h-206v1365h206v-1365zM597 1509h-188l-335 250h212zM227 1509h-188l-335 250h212z" />
    <glyph glyph-name="Iacute" unicode="&#xcd;" horiz-adv-x="575" 
d="M390 0h-206v1365h206v-1365zM144 1509l260 212h228l-279 -212h-209z" />
    <glyph glyph-name="Icircumflex" unicode="&#xce;" horiz-adv-x="575" 
d="M390 0h-206v1365h206v-1365zM-46 1497l278 246h135l266 -246h-185l-148 135h-8l-156 -135h-182z" />
    <glyph glyph-name="Icaron" unicode="&#x1cf;" horiz-adv-x="575" 
d="M390 0h-206v1365h206v-1365zM-55 1717h190l151 -120h9l139 120h194l-237 -214h-194z" />
    <glyph glyph-name="Idieresis" unicode="&#xcf;" horiz-adv-x="575" 
d="M390 0h-206v1365h206v-1365zM-6 1580c0 64 47 108 110 108c66 0 112 -44 112 -108c0 -62 -46 -107 -112 -107c-63 0 -110 45 -110 107zM357 1580c0 64 47 108 110 108c66 0 113 -44 113 -108c0 -62 -46 -107 -113 -107c-63 0 -110 45 -110 107z" />
    <glyph glyph-name="Idieresisacute" unicode="&#x1e2e;" horiz-adv-x="575" 
d="M390 0h-206v1365h206v-1365zM144 1739l260 212h228l-279 -212h-209zM-6 1580c0 64 47 108 110 108c66 0 112 -44 112 -108c0 -62 -46 -107 -112 -107c-63 0 -110 45 -110 107zM357 1580c0 64 47 108 110 108c66 0 113 -44 113 -108c0 -62 -46 -107 -113 -107
c-63 0 -110 45 -110 107z" />
    <glyph glyph-name="Ibreve" unicode="&#x12c;" horiz-adv-x="575" 
d="M390 0h-206v1365h206v-1365zM-39 1755h134c0 -93 62 -157 193 -157s193 64 193 157h133c0 -155 -108 -276 -326 -276s-327 121 -327 276z" />
    <glyph glyph-name="Idotbelow" unicode="&#x1eca;" horiz-adv-x="575" 
d="M390 0h-206v1365h206v-1365zM172 -249c0 69 48 118 115 118s116 -49 116 -118s-49 -115 -116 -115s-115 46 -115 115z" />
    <glyph glyph-name="Iinvertedbreve" unicode="&#x20a;" horiz-adv-x="575" 
d="M390 0h-206v1365h206v-1365zM288 1640c-123 0 -190 -70 -190 -148h-132c0 140 111 270 322 270s322 -130 322 -270h-132c0 78 -67 148 -190 148z" />
    <glyph glyph-name="Imacron" unicode="&#x12a;" horiz-adv-x="575" 
d="M390 0h-206v1365h206v-1365zM583 1505h-590v124h590v-124z" />
    <glyph glyph-name="Itildebelow" unicode="&#x1e2c;" horiz-adv-x="575" 
d="M390 0h-206v1365h206v-1365zM260 -315c-24 24 -49 54 -86 54c-57 0 -66 -54 -69 -98h-126c0 108 56 218 185 218c66 0 109 -27 156 -70c29 -28 48 -55 85 -55c49 0 68 64 72 109h125c0 -110 -71 -222 -186 -222c-81 0 -119 29 -156 64z" />
    <glyph glyph-name="Ihookabove" unicode="&#x1ec8;" horiz-adv-x="575" 
d="M390 0h-206v1365h206v-1365zM155 1681v97c17 7 55 16 99 16c112 0 197 -54 197 -152c0 -99 -92 -141 -140 -162l-66 84c37 10 84 34 84 69c0 45 -45 57 -87 57c-39 0 -67 -5 -87 -9z" />
    <glyph glyph-name="Itilde" unicode="&#x128;" horiz-adv-x="575" 
d="M390 0h-206v1365h206v-1365zM261 1521c-24 24 -49 54 -86 54c-57 0 -66 -54 -69 -98h-126c0 108 56 218 185 218c66 0 109 -27 156 -70c29 -28 48 -55 85 -55c49 0 68 64 72 109h125c0 -110 -71 -222 -186 -222c-81 0 -119 28 -156 64z" />
    <glyph glyph-name="Iogonek" unicode="&#x12e;" horiz-adv-x="574" 
d="M414 -366c-17 -9 -67 -21 -125 -21c-140 0 -230 72 -230 198c0 115 77 179 140 212v4h-15v1338h206v-1345c-90 -33 -170 -86 -170 -167c0 -66 48 -99 116 -99c22 0 57 4 78 9v-129z" />
    <glyph glyph-name="J" unicode="J" horiz-adv-x="1051" 
d="M51 351h200c4 -114 94 -180 199 -180c128 0 216 69 216 232v962h206v-950c0 -300 -171 -443 -421 -443s-400 165 -400 379z" />
    <glyph glyph-name="Jcircumflex" unicode="&#x134;" horiz-adv-x="1051" 
d="M51 351h200c4 -114 94 -180 199 -180c128 0 216 69 216 232v962h206v-950c0 -300 -171 -443 -421 -443s-400 165 -400 379zM434 1497l278 246h135l266 -246h-185l-148 135h-8l-156 -135h-182z" />
    <glyph glyph-name="K" unicode="K" horiz-adv-x="1262" 
d="M1203 1365l-501 -584l526 -781h-255l-424 631l-159 -171v-460h-206v1365h206v-636h9l569 636h235z" />
    <glyph glyph-name="Kacute" unicode="&#x1e30;" horiz-adv-x="1262" 
d="M467 1509l260 212h228l-279 -212h-209zM1203 1365l-501 -584l526 -781h-255l-424 631l-159 -171v-460h-206v1365h206v-636h9l569 636h235z" />
    <glyph glyph-name="Kcaron" unicode="&#x1e8;" horiz-adv-x="1262" 
d="M1203 1365l-501 -584l526 -781h-255l-424 631l-159 -171v-460h-206v1365h206v-636h9l569 636h235zM268 1717h190l151 -120h9l139 120h194l-237 -214h-194z" />
    <glyph glyph-name="Kdotbelow" unicode="&#x1e32;" horiz-adv-x="1262" 
d="M516 -249c0 69 48 118 115 118s116 -49 116 -118s-49 -115 -116 -115s-115 46 -115 115zM1203 1365l-501 -584l526 -781h-255l-424 631l-159 -171v-460h-206v1365h206v-636h9l569 636h235z" />
    <glyph glyph-name="Klinebelow" unicode="&#x1e34;" horiz-adv-x="1262" 
d="M1203 1365l-501 -584l526 -781h-255l-424 631l-159 -171v-460h-206v1365h206v-636h9l569 636h235zM929 -319h-581v126h581v-126z" />
    <glyph glyph-name="Kcommaaccent" unicode="&#x136;" horiz-adv-x="1262" 
d="M1203 1365l-501 -584l526 -781h-255l-424 631l-159 -171v-460h-206v1365h206v-636h9l569 636h235zM621 -472h-143l82 316h168z" />
    <glyph glyph-name="L" unicode="L" horiz-adv-x="1052" 
d="M1003 193v-193h-819v1365h206v-1172h613z" />
    <glyph glyph-name="Lacute" unicode="&#x139;" horiz-adv-x="1052" 
d="M143 1509l260 212h228l-279 -212h-209zM1003 193v-193h-819v1365h206v-1172h613z" />
    <glyph glyph-name="Lcircumflexbelow" unicode="&#x1e3c;" horiz-adv-x="1052" 
d="M1003 193v-193h-819v1365h206v-1172h613zM191 -373l277 253h137l266 -253h-188l-146 140h-7l-157 -140h-182z" />
    <glyph glyph-name="Ldotbelow" unicode="&#x1e36;" horiz-adv-x="1052" 
d="M419 -249c0 69 48 118 115 118s116 -49 116 -118s-49 -115 -116 -115s-115 46 -115 115zM1003 193v-193h-819v1365h206v-1172h613z" />
    <glyph glyph-name="Ldotbelowmacron" unicode="&#x1e38;" horiz-adv-x="1052" 
d="M419 -249c0 69 48 118 115 118s116 -49 116 -118s-49 -115 -116 -115s-115 46 -115 115zM1003 193v-193h-819v1365h206v-1172h613zM582 1505h-590v124h590v-124z" />
    <glyph glyph-name="Llinebelow" unicode="&#x1e3a;" horiz-adv-x="1052" 
d="M832 -319h-581v126h581v-126zM1003 193v-193h-819v1365h206v-1172h613z" />
    <glyph glyph-name="Lcommaaccent" unicode="&#x13b;" horiz-adv-x="1052" 
d="M524 -472h-143l82 316h168zM1003 193v-193h-819v1365h206v-1172h613z" />
    <glyph glyph-name="Lcaron" unicode="&#x13d;" horiz-adv-x="1052" 
d="M614 1437h183l-50 -488h-133v488zM1003 193v-193h-819v1365h206v-1172h613z" />
    <glyph glyph-name="Lslash" unicode="&#x141;" horiz-adv-x="1067" 
d="M1018 0h-818v527l-127 -73v199l127 73v639h206v-513l358 204v-202l-358 -202v-459h612v-193z" />
    <glyph glyph-name="M" unicode="M" horiz-adv-x="1653" 
d="M374 0h-186v1365h205l430 -977h8l429 977h205v-1365h-187v956h-11l-362 -814h-157l-364 814h-10v-956z" />
    <glyph glyph-name="Macute" unicode="&#x1e3e;" horiz-adv-x="1653" 
d="M683 1509l260 212h228l-279 -212h-209zM374 0h-186v1365h205l430 -977h8l429 977h205v-1365h-187v956h-11l-362 -814h-157l-364 814h-10v-956z" />
    <glyph glyph-name="Mdotaccent" unicode="&#x1e40;" horiz-adv-x="1653" 
d="M719 1602c0 66 44 114 108 114s112 -48 112 -114c0 -67 -48 -112 -112 -112s-108 45 -108 112zM374 0h-186v1365h205l430 -977h8l429 977h205v-1365h-187v956h-11l-362 -814h-157l-364 814h-10v-956z" />
    <glyph glyph-name="Mdotbelow" unicode="&#x1e42;" horiz-adv-x="1653" 
d="M711 -249c0 69 48 118 115 118s116 -49 116 -118s-49 -115 -116 -115s-115 46 -115 115zM374 0h-186v1365h205l430 -977h8l429 977h205v-1365h-187v956h-11l-362 -814h-157l-364 814h-10v-956z" />
    <glyph glyph-name="N" unicode="N" horiz-adv-x="1421" 
d="M384 0h-200v1365h187l656 -988h10v988h200v-1365h-187l-657 991h-9v-991z" />
    <glyph glyph-name="Ngrave" unicode="&#x1f8;" horiz-adv-x="1421" 
d="M844 1509h-201l-280 209h224zM384 0h-200v1365h187l656 -988h10v988h200v-1365h-187l-657 991h-9v-991z" />
    <glyph glyph-name="Nacute" unicode="&#x143;" horiz-adv-x="1421" 
d="M566 1509l260 212h228l-279 -212h-209zM384 0h-200v1365h187l656 -988h10v988h200v-1365h-187l-657 991h-9v-991z" />
    <glyph glyph-name="Ntilde" unicode="&#xd1;" horiz-adv-x="1421" 
d="M683 1521c-24 24 -49 54 -86 54c-57 0 -66 -54 -69 -98h-126c0 108 56 218 185 218c66 0 109 -27 156 -70c29 -28 48 -55 85 -55c49 0 68 64 72 109h125c0 -110 -71 -222 -186 -222c-81 0 -119 28 -156 64zM384 0h-200v1365h187l656 -988h10v988h200v-1365h-187l-657 991
h-9v-991z" />
    <glyph glyph-name="Ndotbelow" unicode="&#x1e46;" horiz-adv-x="1421" 
d="M595 -249c0 69 48 118 115 118s116 -49 116 -118s-49 -115 -116 -115s-115 46 -115 115zM384 0h-200v1365h187l656 -988h10v988h200v-1365h-187l-657 991h-9v-991z" />
    <glyph glyph-name="Ndotaccent" unicode="&#x1e44;" horiz-adv-x="1421" 
d="M602 1602c0 66 44 114 108 114s112 -48 112 -114c0 -67 -48 -112 -112 -112s-108 45 -108 112zM384 0h-200v1365h187l656 -988h10v988h200v-1365h-187l-657 991h-9v-991z" />
    <glyph glyph-name="Ncaron" unicode="&#x147;" horiz-adv-x="1421" 
d="M367 1717h190l151 -120h9l139 120h194l-237 -214h-194zM384 0h-200v1365h187l656 -988h10v988h200v-1365h-187l-657 991h-9v-991z" />
    <glyph glyph-name="Ncircumflexbelow" unicode="&#x1e4a;" horiz-adv-x="1421" 
d="M384 0h-200v1365h187l656 -988h10v988h200v-1365h-187l-657 991h-9v-991zM367 -373l277 253h137l266 -253h-188l-146 140h-7l-157 -140h-182z" />
    <glyph glyph-name="Nlinebelow" unicode="&#x1e48;" horiz-adv-x="1421" 
d="M1008 -319h-581v126h581v-126zM384 0h-200v1365h187l656 -988h10v988h200v-1365h-187l-657 991h-9v-991z" />
    <glyph glyph-name="Ncommaaccent" unicode="&#x145;" horiz-adv-x="1421" 
d="M700 -472h-143l82 316h168zM384 0h-200v1365h187l656 -988h10v988h200v-1365h-187l-657 991h-9v-991z" />
    <glyph glyph-name="O" unicode="O" horiz-adv-x="1377" 
d="M338 772v-190c0 -285 150 -419 350 -419c201 0 352 134 352 419v190c0 285 -151 430 -352 430c-200 0 -350 -145 -350 -430zM130 583v188c0 388 218 621 560 621s558 -234 558 -621v-188c0 -386 -219 -611 -562 -611c-342 0 -556 225 -556 611z" />
    <glyph glyph-name="Odieresis" unicode="&#xd6;" horiz-adv-x="1377" 
d="M395 1580c0 64 47 108 110 108c66 0 112 -44 112 -108c0 -62 -46 -107 -112 -107c-63 0 -110 45 -110 107zM758 1580c0 64 47 108 110 108c66 0 113 -44 113 -108c0 -62 -46 -107 -113 -107c-63 0 -110 45 -110 107zM338 772v-190c0 -285 150 -419 350 -419
c201 0 352 134 352 419v190c0 285 -151 430 -352 430c-200 0 -350 -145 -350 -430zM130 583v188c0 388 218 621 560 621s558 -234 558 -621v-188c0 -386 -219 -611 -562 -611c-342 0 -556 225 -556 611z" />
    <glyph glyph-name="Oslash" unicode="&#xd8;" horiz-adv-x="1377" 
d="M686 -28c-155 0 -285 46 -379 133l-100 -124l-106 90l117 143c-57 97 -88 221 -88 369v188c0 388 218 621 560 621c151 0 278 -45 372 -129l95 116l110 -83l-116 -140c63 -101 97 -231 97 -385v-188c0 -386 -219 -611 -562 -611zM334 581c0 -67 10 -127 28 -176l577 696
c-64 69 -151 104 -251 104c-202 0 -354 -146 -354 -433v-191zM688 159c202 0 354 135 354 422v191c0 74 -12 140 -34 193l-578 -699c63 -72 154 -107 258 -107z" />
    <glyph glyph-name="Otilde" unicode="&#xd5;" horiz-adv-x="1377" 
d="M338 772v-190c0 -285 150 -419 350 -419c201 0 352 134 352 419v190c0 285 -151 430 -352 430c-200 0 -350 -145 -350 -430zM130 583v188c0 388 218 621 560 621s558 -234 558 -621v-188c0 -386 -219 -611 -562 -611c-342 0 -556 225 -556 611zM662 1521
c-24 24 -49 54 -86 54c-57 0 -66 -54 -69 -98h-126c0 108 56 218 185 218c66 0 109 -27 156 -70c29 -28 48 -55 85 -55c49 0 68 64 72 109h125c0 -110 -71 -222 -186 -222c-81 0 -119 28 -156 64z" />
    <glyph glyph-name="Oacute" unicode="&#xd3;" horiz-adv-x="1377" 
d="M545 1509l260 212h228l-279 -212h-209zM338 772v-190c0 -285 150 -419 350 -419c201 0 352 134 352 419v190c0 285 -151 430 -352 430c-200 0 -350 -145 -350 -430zM130 583v188c0 388 218 621 560 621s558 -234 558 -621v-188c0 -386 -219 -611 -562 -611
c-342 0 -556 225 -556 611z" />
    <glyph glyph-name="Ocircumflex" unicode="&#xd4;" horiz-adv-x="1377" 
d="M355 1497l278 246h135l266 -246h-185l-148 135h-8l-156 -135h-182zM338 772v-190c0 -285 150 -419 350 -419c201 0 352 134 352 419v190c0 285 -151 430 -352 430c-200 0 -350 -145 -350 -430zM130 583v188c0 388 218 621 560 621s558 -234 558 -621v-188
c0 -386 -219 -611 -562 -611c-342 0 -556 225 -556 611z" />
    <glyph glyph-name="Ograve" unicode="&#xd2;" horiz-adv-x="1377" 
d="M823 1509h-201l-280 209h224zM338 772v-190c0 -285 150 -419 350 -419c201 0 352 134 352 419v190c0 285 -151 430 -352 430c-200 0 -350 -145 -350 -430zM130 583v188c0 388 218 621 560 621s558 -234 558 -621v-188c0 -386 -219 -611 -562 -611
c-342 0 -556 225 -556 611z" />
    <glyph glyph-name="Ocircumflexhookabove" unicode="&#x1ed4;" horiz-adv-x="1377" 
d="M332 1504l272 224h179l260 -224h-193l-155 127h-8l-157 -127h-198zM859 1868v101c19 5 59 9 91 9c115 0 188 -53 188 -149c0 -75 -55 -131 -114 -165l-67 73c30 21 53 43 53 74c0 40 -37 62 -87 62c-18 0 -43 -1 -64 -5zM338 772v-190c0 -285 150 -419 350 -419
c201 0 352 134 352 419v190c0 285 -151 430 -352 430c-200 0 -350 -145 -350 -430zM130 583v188c0 388 218 621 560 621s558 -234 558 -621v-188c0 -386 -219 -611 -562 -611c-342 0 -556 225 -556 611z" />
    <glyph glyph-name="Ocircumflexgrave" unicode="&#x1ed2;" horiz-adv-x="1377" 
d="M1147 1700h-144l-262 248h192zM332 1504l272 224h179l260 -224h-193l-155 127h-8l-157 -127h-198zM338 772v-190c0 -285 150 -419 350 -419c201 0 352 134 352 419v190c0 285 -151 430 -352 430c-200 0 -350 -145 -350 -430zM130 583v188c0 388 218 621 560 621
s558 -234 558 -621v-188c0 -386 -219 -611 -562 -611c-342 0 -556 225 -556 611z" />
    <glyph glyph-name="Odotbelow" unicode="&#x1ecc;" horiz-adv-x="1377" 
d="M574 -249c0 69 48 118 115 118s116 -49 116 -118s-49 -115 -116 -115s-115 46 -115 115zM338 772v-190c0 -285 150 -419 350 -419c201 0 352 134 352 419v190c0 285 -151 430 -352 430c-200 0 -350 -145 -350 -430zM130 583v188c0 388 218 621 560 621s558 -234 558 -621
v-188c0 -386 -219 -611 -562 -611c-342 0 -556 225 -556 611z" />
    <glyph glyph-name="Odblgrave" unicode="&#x20c;" horiz-adv-x="1377" 
d="M998 1509h-188l-335 250h212zM628 1509h-188l-335 250h212zM338 772v-190c0 -285 150 -419 350 -419c201 0 352 134 352 419v190c0 285 -151 430 -352 430c-200 0 -350 -145 -350 -430zM130 583v188c0 388 218 621 560 621s558 -234 558 -621v-188
c0 -386 -219 -611 -562 -611c-342 0 -556 225 -556 611z" />
    <glyph glyph-name="Otildeacute" unicode="&#x1e4c;" horiz-adv-x="1377" 
d="M545 1739l260 212h228l-279 -212h-209zM338 772v-190c0 -285 150 -419 350 -419c201 0 352 134 352 419v190c0 285 -151 430 -352 430c-200 0 -350 -145 -350 -430zM130 583v188c0 388 218 621 560 621s558 -234 558 -621v-188c0 -386 -219 -611 -562 -611
c-342 0 -556 225 -556 611zM662 1521c-24 24 -49 54 -86 54c-57 0 -66 -54 -69 -98h-126c0 108 56 218 185 218c66 0 109 -27 156 -70c29 -28 48 -55 85 -55c49 0 68 64 72 109h125c0 -110 -71 -222 -186 -222c-81 0 -119 28 -156 64z" />
    <glyph glyph-name="Omacronacute" unicode="&#x1e52;" horiz-adv-x="1377" 
d="M545 1739l260 212h228l-279 -212h-209zM338 772v-190c0 -285 150 -419 350 -419c201 0 352 134 352 419v190c0 285 -151 430 -352 430c-200 0 -350 -145 -350 -430zM130 583v188c0 388 218 621 560 621s558 -234 558 -621v-188c0 -386 -219 -611 -562 -611
c-342 0 -556 225 -556 611zM984 1505h-590v124h590v-124z" />
    <glyph glyph-name="Ocircumflextilde" unicode="&#x1ed6;" horiz-adv-x="1377" 
d="M681 1826c-25 23 -52 51 -90 51c-58 0 -68 -53 -71 -95h-128c0 100 59 208 190 208c67 0 109 -24 158 -67c29 -26 52 -51 88 -51c51 0 70 61 74 104h128c0 -113 -74 -211 -190 -211c-84 0 -122 27 -159 61zM332 1499l272 217h179l260 -217h-193l-155 125h-8l-157 -125
h-198zM338 772v-190c0 -285 150 -419 350 -419c201 0 352 134 352 419v190c0 285 -151 430 -352 430c-200 0 -350 -145 -350 -430zM130 583v188c0 388 218 621 560 621s558 -234 558 -621v-188c0 -386 -219 -611 -562 -611c-342 0 -556 225 -556 611z" />
    <glyph glyph-name="Odotaccentmacron" unicode="&#x230;" horiz-adv-x="1377" 
d="M581 1602c0 66 44 114 108 114s112 -48 112 -114c0 -67 -48 -112 -112 -112s-108 45 -108 112zM338 772v-190c0 -285 150 -419 350 -419c201 0 352 134 352 419v190c0 285 -151 430 -352 430c-200 0 -350 -145 -350 -430zM130 583v188c0 388 218 621 560 621
s558 -234 558 -621v-188c0 -386 -219 -611 -562 -611c-342 0 -556 225 -556 611zM984 1778h-590v124h590v-124z" />
    <glyph glyph-name="Omacrongrave" unicode="&#x1e50;" horiz-adv-x="1377" 
d="M823 1739h-201l-280 209h224zM338 772v-190c0 -285 150 -419 350 -419c201 0 352 134 352 419v190c0 285 -151 430 -352 430c-200 0 -350 -145 -350 -430zM130 583v188c0 388 218 621 560 621s558 -234 558 -621v-188c0 -386 -219 -611 -562 -611
c-342 0 -556 225 -556 611zM984 1505h-590v124h590v-124z" />
    <glyph glyph-name="Ocaron" unicode="&#x1d1;" horiz-adv-x="1377" 
d="M346 1717h190l151 -120h9l139 120h194l-237 -214h-194zM338 772v-190c0 -285 150 -419 350 -419c201 0 352 134 352 419v190c0 285 -151 430 -352 430c-200 0 -350 -145 -350 -430zM130 583v188c0 388 218 621 560 621s558 -234 558 -621v-188
c0 -386 -219 -611 -562 -611c-342 0 -556 225 -556 611z" />
    <glyph glyph-name="Oslashacute" unicode="&#x1fe;" horiz-adv-x="1377" 
d="M686 -28c-155 0 -285 46 -379 133l-100 -124l-106 90l117 143c-57 97 -88 221 -88 369v188c0 388 218 621 560 621c151 0 278 -45 372 -129l95 116l110 -83l-116 -140c63 -101 97 -231 97 -385v-188c0 -386 -219 -611 -562 -611zM334 581c0 -67 10 -127 28 -176l577 696
c-64 69 -151 104 -251 104c-202 0 -354 -146 -354 -433v-191zM688 159c202 0 354 135 354 422v191c0 74 -12 140 -34 193l-578 -699c63 -72 154 -107 258 -107zM545 1509l260 212h228l-279 -212h-209z" />
    <glyph glyph-name="Ohungarumlaut" unicode="&#x150;" horiz-adv-x="1377" 
d="M363 1509l311 249h212l-335 -249h-188zM732 1509l312 249h211l-334 -249h-189zM338 772v-190c0 -285 150 -419 350 -419c201 0 352 134 352 419v190c0 285 -151 430 -352 430c-200 0 -350 -145 -350 -430zM130 583v188c0 388 218 621 560 621s558 -234 558 -621v-188
c0 -386 -219 -611 -562 -611c-342 0 -556 225 -556 611z" />
    <glyph glyph-name="Obreve" unicode="&#x14e;" horiz-adv-x="1377" 
d="M338 772v-190c0 -285 150 -419 350 -419c201 0 352 134 352 419v190c0 285 -151 430 -352 430c-200 0 -350 -145 -350 -430zM130 583v188c0 388 218 621 560 621s558 -234 558 -621v-188c0 -386 -219 -611 -562 -611c-342 0 -556 225 -556 611zM362 1755h134
c0 -93 62 -157 193 -157s193 64 193 157h133c0 -155 -108 -276 -326 -276s-327 121 -327 276z" />
    <glyph glyph-name="Oinvertedbreve" unicode="&#x20e;" horiz-adv-x="1377" 
d="M689 1640c-123 0 -190 -70 -190 -148h-132c0 140 111 270 322 270s322 -130 322 -270h-132c0 78 -67 148 -190 148zM338 772v-190c0 -285 150 -419 350 -419c201 0 352 134 352 419v190c0 285 -151 430 -352 430c-200 0 -350 -145 -350 -430zM130 583v188
c0 388 218 621 560 621s558 -234 558 -621v-188c0 -386 -219 -611 -562 -611c-342 0 -556 225 -556 611z" />
    <glyph glyph-name="Ohookabove" unicode="&#x1ece;" horiz-adv-x="1377" 
d="M556 1681v97c17 7 55 16 99 16c112 0 197 -54 197 -152c0 -99 -92 -141 -140 -162l-66 84c37 10 84 34 84 69c0 45 -45 57 -87 57c-39 0 -67 -5 -87 -9zM338 772v-190c0 -285 150 -419 350 -419c201 0 352 134 352 419v190c0 285 -151 430 -352 430
c-200 0 -350 -145 -350 -430zM130 583v188c0 388 218 621 560 621s558 -234 558 -621v-188c0 -386 -219 -611 -562 -611c-342 0 -556 225 -556 611z" />
    <glyph glyph-name="Odieresismacron" unicode="&#x22a;" horiz-adv-x="1377" 
d="M395 1580c0 64 47 108 110 108c66 0 112 -44 112 -108c0 -62 -46 -107 -112 -107c-63 0 -110 45 -110 107zM758 1580c0 64 47 108 110 108c66 0 113 -44 113 -108c0 -62 -46 -107 -113 -107c-63 0 -110 45 -110 107zM338 772v-190c0 -285 150 -419 350 -419
c201 0 352 134 352 419v190c0 285 -151 430 -352 430c-200 0 -350 -145 -350 -430zM130 583v188c0 388 218 621 560 621s558 -234 558 -621v-188c0 -386 -219 -611 -562 -611c-342 0 -556 225 -556 611zM984 1778h-590v124h590v-124z" />
    <glyph glyph-name="Otildemacron" unicode="&#x22c;" horiz-adv-x="1377" 
d="M338 772v-190c0 -285 150 -419 350 -419c201 0 352 134 352 419v190c0 285 -151 430 -352 430c-200 0 -350 -145 -350 -430zM130 583v188c0 388 218 621 560 621s558 -234 558 -621v-188c0 -386 -219 -611 -562 -611c-342 0 -556 225 -556 611zM662 1521
c-24 24 -49 54 -86 54c-57 0 -66 -54 -69 -98h-126c0 108 56 218 185 218c66 0 109 -27 156 -70c29 -28 48 -55 85 -55c49 0 68 64 72 109h125c0 -110 -71 -222 -186 -222c-81 0 -119 28 -156 64zM984 1778h-590v124h590v-124z" />
    <glyph glyph-name="Odotaccent" unicode="&#x22e;" horiz-adv-x="1377" 
d="M581 1602c0 66 44 114 108 114s112 -48 112 -114c0 -67 -48 -112 -112 -112s-108 45 -108 112zM338 772v-190c0 -285 150 -419 350 -419c201 0 352 134 352 419v190c0 285 -151 430 -352 430c-200 0 -350 -145 -350 -430zM130 583v188c0 388 218 621 560 621
s558 -234 558 -621v-188c0 -386 -219 -611 -562 -611c-342 0 -556 225 -556 611z" />
    <glyph glyph-name="Ocircumflexdotbelow" unicode="&#x1ed8;" horiz-adv-x="1377" 
d="M574 -249c0 69 48 118 115 118s116 -49 116 -118s-49 -115 -116 -115s-115 46 -115 115zM355 1497l278 246h135l266 -246h-185l-148 135h-8l-156 -135h-182zM338 772v-190c0 -285 150 -419 350 -419c201 0 352 134 352 419v190c0 285 -151 430 -352 430
c-200 0 -350 -145 -350 -430zM130 583v188c0 388 218 621 560 621s558 -234 558 -621v-188c0 -386 -219 -611 -562 -611c-342 0 -556 225 -556 611z" />
    <glyph glyph-name="Ocircumflexacute" unicode="&#x1ed0;" horiz-adv-x="1377" 
d="M332 1504l272 224h179l260 -224h-193l-155 127h-8l-157 -127h-198zM892 1733l192 215h194l-306 -279zM338 772v-190c0 -285 150 -419 350 -419c201 0 352 134 352 419v190c0 285 -151 430 -352 430c-200 0 -350 -145 -350 -430zM130 583v188c0 388 218 621 560 621
s558 -234 558 -621v-188c0 -386 -219 -611 -562 -611c-342 0 -556 225 -556 611z" />
    <glyph glyph-name="Otildedieresis" unicode="&#x1e4e;" horiz-adv-x="1377" 
d="M396 1845c0 64 47 108 110 108c66 0 112 -44 112 -108c0 -62 -46 -107 -112 -107c-63 0 -110 45 -110 107zM759 1845c0 64 47 108 110 108c66 0 113 -44 113 -108c0 -62 -46 -107 -113 -107c-63 0 -110 45 -110 107zM338 772v-190c0 -285 150 -419 350 -419
c201 0 352 134 352 419v190c0 285 -151 430 -352 430c-200 0 -350 -145 -350 -430zM130 583v188c0 388 218 621 560 621s558 -234 558 -621v-188c0 -386 -219 -611 -562 -611c-342 0 -556 225 -556 611zM662 1521c-24 24 -49 54 -86 54c-57 0 -66 -54 -69 -98h-126
c0 108 56 218 185 218c66 0 109 -27 156 -70c29 -28 48 -55 85 -55c49 0 68 64 72 109h125c0 -110 -71 -222 -186 -222c-81 0 -119 28 -156 64z" />
    <glyph glyph-name="Omacron" unicode="&#x14c;" horiz-adv-x="1377" 
d="M338 772v-190c0 -285 150 -419 350 -419c201 0 352 134 352 419v190c0 285 -151 430 -352 430c-200 0 -350 -145 -350 -430zM130 583v188c0 388 218 621 560 621s558 -234 558 -621v-188c0 -386 -219 -611 -562 -611c-342 0 -556 225 -556 611zM984 1505h-590v124h590
v-124z" />
    <glyph glyph-name="Oogonek" unicode="&#x1ea;" horiz-adv-x="1377" 
d="M337 772v-190c0 -285 150 -419 351 -419s352 134 352 419v190c0 285 -151 430 -352 430s-351 -145 -351 -430zM666 -26c-314 0 -536 228 -536 609v187c0 389 218 622 560 622s558 -234 558 -622v-187c0 -258 -91 -392 -176 -489c-81 -90 -161 -144 -161 -233
c0 -71 50 -100 118 -100c22 0 52 3 75 9v-138c-18 -6 -55 -19 -121 -19c-125 1 -232 67 -232 197c0 76 35 143 102 196l-4 12c-61 -34 -120 -44 -183 -44z" />
    <glyph glyph-name="Oogonekmacron" unicode="&#x1ec;" horiz-adv-x="1377" 
d="M337 772v-190c0 -285 150 -419 351 -419s352 134 352 419v190c0 285 -151 430 -352 430s-351 -145 -351 -430zM666 -26c-314 0 -536 228 -536 609v187c0 389 218 622 560 622s558 -234 558 -622v-187c0 -258 -91 -392 -176 -489c-81 -90 -161 -144 -161 -233
c0 -71 50 -100 118 -100c22 0 52 3 75 9v-138c-18 -6 -55 -19 -121 -19c-125 1 -232 67 -232 197c0 76 35 143 102 196l-4 12c-61 -34 -120 -44 -183 -44zM984 1505h-590v124h590v-124z" />
    <glyph glyph-name="Ohorn" unicode="&#x1a0;" horiz-adv-x="1388" 
d="M1248 583c0 -386 -219 -611 -562 -611c-342 0 -556 225 -556 611v188c0 388 218 621 560 621c194 0 282 -83 404 -83c112 0 136 63 136 149v104h172v-118c0 -179 -91 -282 -257 -282l-4 -5c54 -79 107 -229 107 -386v-188zM337 772v-191c0 -285 151 -418 351 -418
c201 0 352 133 352 418v191c0 285 -151 430 -352 430c-200 0 -351 -145 -351 -430z" />
    <glyph glyph-name="Ohorndotbelow" unicode="&#x1ee2;" horiz-adv-x="1388" 
d="M574 -249c0 69 48 118 115 118s116 -49 116 -118s-49 -115 -116 -115s-115 46 -115 115zM1248 583c0 -386 -219 -611 -562 -611c-342 0 -556 225 -556 611v188c0 388 218 621 560 621c194 0 282 -83 404 -83c112 0 136 63 136 149v104h172v-118
c0 -179 -91 -282 -257 -282l-4 -5c54 -79 107 -229 107 -386v-188zM337 772v-191c0 -285 151 -418 351 -418c201 0 352 133 352 418v191c0 285 -151 430 -352 430c-200 0 -351 -145 -351 -430z" />
    <glyph glyph-name="Ohornhookabove" unicode="&#x1ede;" horiz-adv-x="1388" 
d="M556 1681v97c17 7 55 16 99 16c112 0 197 -54 197 -152c0 -99 -92 -141 -140 -162l-66 84c37 10 84 34 84 69c0 45 -45 57 -87 57c-39 0 -67 -5 -87 -9zM1248 583c0 -386 -219 -611 -562 -611c-342 0 -556 225 -556 611v188c0 388 218 621 560 621c194 0 282 -83 404 -83
c112 0 136 63 136 149v104h172v-118c0 -179 -91 -282 -257 -282l-4 -5c54 -79 107 -229 107 -386v-188zM337 772v-191c0 -285 151 -418 351 -418c201 0 352 133 352 418v191c0 285 -151 430 -352 430c-200 0 -351 -145 -351 -430z" />
    <glyph glyph-name="Ohorntilde" unicode="&#x1ee0;" horiz-adv-x="1388" 
d="M1248 583c0 -386 -219 -611 -562 -611c-342 0 -556 225 -556 611v188c0 388 218 621 560 621c194 0 282 -83 404 -83c112 0 136 63 136 149v104h172v-118c0 -179 -91 -282 -257 -282l-4 -5c54 -79 107 -229 107 -386v-188zM337 772v-191c0 -285 151 -418 351 -418
c201 0 352 133 352 418v191c0 285 -151 430 -352 430c-200 0 -351 -145 -351 -430zM662 1521c-24 24 -49 54 -86 54c-57 0 -66 -54 -69 -98h-126c0 108 56 218 185 218c66 0 109 -27 156 -70c29 -28 48 -55 85 -55c49 0 68 64 72 109h125c0 -110 -71 -222 -186 -222
c-81 0 -119 28 -156 64z" />
    <glyph glyph-name="Ohorngrave" unicode="&#x1edc;" horiz-adv-x="1388" 
d="M823 1509h-201l-280 209h224zM1248 583c0 -386 -219 -611 -562 -611c-342 0 -556 225 -556 611v188c0 388 218 621 560 621c194 0 282 -83 404 -83c112 0 136 63 136 149v104h172v-118c0 -179 -91 -282 -257 -282l-4 -5c54 -79 107 -229 107 -386v-188zM337 772v-191
c0 -285 151 -418 351 -418c201 0 352 133 352 418v191c0 285 -151 430 -352 430c-200 0 -351 -145 -351 -430z" />
    <glyph glyph-name="Ohornacute" unicode="&#x1eda;" horiz-adv-x="1388" 
d="M545 1509l260 212h228l-279 -212h-209zM1248 583c0 -386 -219 -611 -562 -611c-342 0 -556 225 -556 611v188c0 388 218 621 560 621c194 0 282 -83 404 -83c112 0 136 63 136 149v104h172v-118c0 -179 -91 -282 -257 -282l-4 -5c54 -79 107 -229 107 -386v-188zM337 772
v-191c0 -285 151 -418 351 -418c201 0 352 133 352 418v191c0 285 -151 430 -352 430c-200 0 -351 -145 -351 -430z" />
    <glyph glyph-name="P" unicode="P" horiz-adv-x="1218" 
d="M184 1365h513c272 0 444 -185 444 -440c0 -257 -173 -437 -445 -437h-306v-488h-206v1365zM390 1181v-512h192c219 0 348 51 348 256c0 163 -95 256 -258 256h-282z" />
    <glyph glyph-name="Pdotaccent" unicode="&#x1e56;" horiz-adv-x="1218" 
d="M184 1365h513c272 0 444 -185 444 -440c0 -257 -173 -437 -445 -437h-306v-488h-206v1365zM390 1181v-512h192c219 0 348 51 348 256c0 163 -95 256 -258 256h-282zM477 1602c0 66 44 114 108 114s112 -48 112 -114c0 -67 -48 -112 -112 -112s-108 45 -108 112z" />
    <glyph glyph-name="Pacute" unicode="&#x1e54;" horiz-adv-x="1218" 
d="M441 1509l260 212h228l-279 -212h-209zM184 1365h513c272 0 444 -185 444 -440c0 -257 -173 -437 -445 -437h-306v-488h-206v1365zM390 1181v-512h192c219 0 348 51 348 256c0 163 -95 256 -258 256h-282z" />
    <glyph glyph-name="Q" unicode="Q" horiz-adv-x="1380" 
d="M131 589v186c0 386 219 617 558 617s560 -232 560 -617v-186c0 -209 -65 -372 -179 -477l183 -257h-219l-118 159c-66 -26 -143 -42 -227 -42c-339 0 -558 231 -558 617zM334 775v-187c0 -291 152 -432 352 -434c46 0 86 7 124 22l-145 200h214l73 -92
c58 70 93 170 93 304v187c0 286 -154 428 -356 428c-201 0 -355 -142 -355 -428z" />
    <glyph glyph-name="R" unicode="R" horiz-adv-x="1282" 
d="M695 1365c310 0 451 -192 451 -419c0 -225 -137 -340 -252 -382l277 -564h-233l-248 526h-301v-526h-205v1365h511zM389 703h271c178 0 274 84 274 235c0 162 -107 245 -267 245h-278v-480z" />
    <glyph glyph-name="Rcaron" unicode="&#x158;" horiz-adv-x="1282" 
d="M695 1365c310 0 451 -192 451 -419c0 -225 -137 -340 -252 -382l277 -564h-233l-248 526h-301v-526h-205v1365h511zM389 703h271c178 0 274 84 274 235c0 162 -107 245 -267 245h-278v-480zM265 1717h190l151 -120h9l139 120h194l-237 -214h-194z" />
    <glyph glyph-name="Rlinebelow" unicode="&#x1e5e;" horiz-adv-x="1282" 
d="M695 1365c310 0 451 -192 451 -419c0 -225 -137 -340 -252 -382l277 -564h-233l-248 526h-301v-526h-205v1365h511zM389 703h271c178 0 274 84 274 235c0 162 -107 245 -267 245h-278v-480zM906 -319h-581v126h581v-126z" />
    <glyph glyph-name="Rdotbelowmacron" unicode="&#x1e5c;" horiz-adv-x="1282" 
d="M493 -249c0 69 48 118 115 118s116 -49 116 -118s-49 -115 -116 -115s-115 46 -115 115zM695 1365c310 0 451 -192 451 -419c0 -225 -137 -340 -252 -382l277 -564h-233l-248 526h-301v-526h-205v1365h511zM389 703h271c178 0 274 84 274 235c0 162 -107 245 -267 245
h-278v-480zM903 1505h-590v124h590v-124z" />
    <glyph glyph-name="Rdblgrave" unicode="&#x210;" horiz-adv-x="1282" 
d="M917 1509h-188l-335 250h212zM547 1509h-188l-335 250h212zM695 1365c310 0 451 -192 451 -419c0 -225 -137 -340 -252 -382l277 -564h-233l-248 526h-301v-526h-205v1365h511zM389 703h271c178 0 274 84 274 235c0 162 -107 245 -267 245h-278v-480z" />
    <glyph glyph-name="Rinvertedbreve" unicode="&#x212;" horiz-adv-x="1282" 
d="M695 1365c310 0 451 -192 451 -419c0 -225 -137 -340 -252 -382l277 -564h-233l-248 526h-301v-526h-205v1365h511zM389 703h271c178 0 274 84 274 235c0 162 -107 245 -267 245h-278v-480zM608 1640c-123 0 -190 -70 -190 -148h-132c0 140 111 270 322 270
s322 -130 322 -270h-132c0 78 -67 148 -190 148z" />
    <glyph glyph-name="Racute" unicode="&#x154;" horiz-adv-x="1282" 
d="M464 1509l260 212h228l-279 -212h-209zM695 1365c310 0 451 -192 451 -419c0 -225 -137 -340 -252 -382l277 -564h-233l-248 526h-301v-526h-205v1365h511zM389 703h271c178 0 274 84 274 235c0 162 -107 245 -267 245h-278v-480z" />
    <glyph glyph-name="Rdotbelow" unicode="&#x1e5a;" horiz-adv-x="1282" 
d="M493 -249c0 69 48 118 115 118s116 -49 116 -118s-49 -115 -116 -115s-115 46 -115 115zM695 1365c310 0 451 -192 451 -419c0 -225 -137 -340 -252 -382l277 -564h-233l-248 526h-301v-526h-205v1365h511zM389 703h271c178 0 274 84 274 235c0 162 -107 245 -267 245
h-278v-480z" />
    <glyph glyph-name="Rdotaccent" unicode="&#x1e58;" horiz-adv-x="1282" 
d="M695 1365c310 0 451 -192 451 -419c0 -225 -137 -340 -252 -382l277 -564h-233l-248 526h-301v-526h-205v1365h511zM389 703h271c178 0 274 84 274 235c0 162 -107 245 -267 245h-278v-480zM500 1602c0 66 44 114 108 114s112 -48 112 -114c0 -67 -48 -112 -112 -112
s-108 45 -108 112z" />
    <glyph glyph-name="Rcommaaccent" unicode="&#x156;" horiz-adv-x="1282" 
d="M695 1365c310 0 451 -192 451 -419c0 -225 -137 -340 -252 -382l277 -564h-233l-248 526h-301v-526h-205v1365h511zM389 703h271c178 0 274 84 274 235c0 162 -107 245 -267 245h-278v-480zM598 -472h-143l82 316h168z" />
    <glyph glyph-name="S" unicode="S" horiz-adv-x="1225" 
d="M87 378h203c12 -120 119 -221 319 -221c182 0 294 83 294 214c0 105 -71 162 -219 198l-231 56c-170 42 -328 146 -328 367c0 261 229 403 485 403c253 0 479 -141 484 -397h-200c-11 117 -104 214 -287 214c-161 0 -274 -74 -274 -203c0 -90 62 -154 190 -184l229 -56
c207 -50 358 -147 358 -378c0 -269 -220 -419 -519 -419c-373 0 -499 222 -504 406z" />
    <glyph glyph-name="Scaron" unicode="&#x160;" horiz-adv-x="1225" 
d="M87 378h203c12 -120 119 -221 319 -221c182 0 294 83 294 214c0 105 -71 162 -219 198l-231 56c-170 42 -328 146 -328 367c0 261 229 403 485 403c253 0 479 -141 484 -397h-200c-11 117 -104 214 -287 214c-161 0 -274 -74 -274 -203c0 -90 62 -154 190 -184l229 -56
c207 -50 358 -147 358 -378c0 -269 -220 -419 -519 -419c-373 0 -499 222 -504 406zM267 1717h190l151 -120h9l139 120h194l-237 -214h-194z" />
    <glyph glyph-name="Scedilla" unicode="&#x15e;" horiz-adv-x="1225" 
d="M624 -485c-63 -2 -122 8 -150 16v113c27 -8 82 -14 115 -14c54 0 116 15 116 71c0 61 -67 64 -143 64h-53v89l46 120c-345 14 -463 227 -468 404h203c12 -120 119 -221 319 -221c182 0 294 83 294 214c0 105 -71 162 -219 198l-231 56c-170 42 -328 146 -328 367
c0 261 229 403 485 403c253 0 479 -141 484 -397h-200c-11 117 -104 214 -287 214c-161 0 -274 -74 -274 -203c0 -90 62 -154 190 -184l229 -56c207 -50 358 -147 358 -378c0 -238 -174 -384 -423 -413l-41 -107c124 0 207 -56 207 -164c0 -131 -101 -187 -229 -192z" />
    <glyph glyph-name="Sdotaccent" unicode="&#x1e60;" horiz-adv-x="1225" 
d="M87 378h203c12 -120 119 -221 319 -221c182 0 294 83 294 214c0 105 -71 162 -219 198l-231 56c-170 42 -328 146 -328 367c0 261 229 403 485 403c253 0 479 -141 484 -397h-200c-11 117 -104 214 -287 214c-161 0 -274 -74 -274 -203c0 -90 62 -154 190 -184l229 -56
c207 -50 358 -147 358 -378c0 -269 -220 -419 -519 -419c-373 0 -499 222 -504 406zM502 1602c0 66 44 114 108 114s112 -48 112 -114c0 -67 -48 -112 -112 -112s-108 45 -108 112z" />
    <glyph glyph-name="Sdotbelow" unicode="&#x1e62;" horiz-adv-x="1225" 
d="M476 -249c0 69 48 118 115 118s116 -49 116 -118s-49 -115 -116 -115s-115 46 -115 115zM87 378h203c12 -120 119 -221 319 -221c182 0 294 83 294 214c0 105 -71 162 -219 198l-231 56c-170 42 -328 146 -328 367c0 261 229 403 485 403c253 0 479 -141 484 -397h-200
c-11 117 -104 214 -287 214c-161 0 -274 -74 -274 -203c0 -90 62 -154 190 -184l229 -56c207 -50 358 -147 358 -378c0 -269 -220 -419 -519 -419c-373 0 -499 222 -504 406z" />
    <glyph glyph-name="Scommaaccent" unicode="&#x218;" horiz-adv-x="1225" 
d="M87 378h203c12 -120 119 -221 319 -221c182 0 294 83 294 214c0 105 -71 162 -219 198l-231 56c-170 42 -328 146 -328 367c0 261 229 403 485 403c253 0 479 -141 484 -397h-200c-11 117 -104 214 -287 214c-161 0 -274 -74 -274 -203c0 -90 62 -154 190 -184l229 -56
c207 -50 358 -147 358 -378c0 -269 -220 -419 -519 -419c-373 0 -499 222 -504 406zM581 -472h-143l82 316h168z" />
    <glyph glyph-name="Sdotbelowdotaccent" unicode="&#x1e68;" horiz-adv-x="1225" 
d="M476 -249c0 69 48 118 115 118s116 -49 116 -118s-49 -115 -116 -115s-115 46 -115 115zM87 378h203c12 -120 119 -221 319 -221c182 0 294 83 294 214c0 105 -71 162 -219 198l-231 56c-170 42 -328 146 -328 367c0 261 229 403 485 403c253 0 479 -141 484 -397h-200
c-11 117 -104 214 -287 214c-161 0 -274 -74 -274 -203c0 -90 62 -154 190 -184l229 -56c207 -50 358 -147 358 -378c0 -269 -220 -419 -519 -419c-373 0 -499 222 -504 406zM502 1602c0 66 44 114 108 114s112 -48 112 -114c0 -67 -48 -112 -112 -112s-108 45 -108 112z
" />
    <glyph glyph-name="Scarondotaccent" unicode="&#x1e66;" horiz-adv-x="1225" 
d="M502 1856c0 67 44 114 108 114s112 -47 112 -114s-48 -112 -112 -112s-108 45 -108 112zM87 378h203c12 -120 119 -221 319 -221c182 0 294 83 294 214c0 105 -71 162 -219 198l-231 56c-170 42 -328 146 -328 367c0 261 229 403 485 403c253 0 479 -141 484 -397h-200
c-11 117 -104 214 -287 214c-161 0 -274 -74 -274 -203c0 -90 62 -154 190 -184l229 -56c207 -50 358 -147 358 -378c0 -269 -220 -419 -519 -419c-373 0 -499 222 -504 406zM267 1717h190l151 -120h9l139 120h194l-237 -214h-194z" />
    <glyph glyph-name="Scircumflex" unicode="&#x15c;" horiz-adv-x="1225" 
d="M87 378h203c12 -120 119 -221 319 -221c182 0 294 83 294 214c0 105 -71 162 -219 198l-231 56c-170 42 -328 146 -328 367c0 261 229 403 485 403c253 0 479 -141 484 -397h-200c-11 117 -104 214 -287 214c-161 0 -274 -74 -274 -203c0 -90 62 -154 190 -184l229 -56
c207 -50 358 -147 358 -378c0 -269 -220 -419 -519 -419c-373 0 -499 222 -504 406zM276 1497l278 246h135l266 -246h-185l-148 135h-8l-156 -135h-182z" />
    <glyph glyph-name="Sacutedotaccent" unicode="&#x1e64;" horiz-adv-x="1225" 
d="M247 1656c0 65 49 115 109 115c64 0 113 -50 113 -115c0 -64 -49 -112 -113 -112c-60 0 -109 48 -109 112zM567 1510l260 212h228l-279 -212h-209zM87 378h203c12 -120 119 -221 319 -221c182 0 294 83 294 214c0 105 -71 162 -219 198l-231 56
c-170 42 -328 146 -328 367c0 261 229 403 485 403c253 0 479 -141 484 -397h-200c-11 117 -104 214 -287 214c-161 0 -274 -74 -274 -203c0 -90 62 -154 190 -184l229 -56c207 -50 358 -147 358 -378c0 -269 -220 -419 -519 -419c-373 0 -499 222 -504 406z" />
    <glyph glyph-name="Sacute" unicode="&#x15a;" horiz-adv-x="1225" 
d="M466 1509l260 212h228l-279 -212h-209zM87 378h203c12 -120 119 -221 319 -221c182 0 294 83 294 214c0 105 -71 162 -219 198l-231 56c-170 42 -328 146 -328 367c0 261 229 403 485 403c253 0 479 -141 484 -397h-200c-11 117 -104 214 -287 214
c-161 0 -274 -74 -274 -203c0 -90 62 -154 190 -184l229 -56c207 -50 358 -147 358 -378c0 -269 -220 -419 -519 -419c-373 0 -499 222 -504 406z" />
    <glyph glyph-name="T" unicode="T" horiz-adv-x="1107" 
d="M656 0h-206v1175h-405v190h1017v-190h-406v-1175z" />
    <glyph glyph-name="Tcircumflexbelow" unicode="&#x1e70;" horiz-adv-x="1107" 
d="M656 0h-206v1175h-405v190h1017v-190h-406v-1175zM211 -373l277 253h137l266 -253h-188l-146 140h-7l-157 -140h-182z" />
    <glyph glyph-name="Tdotbelow" unicode="&#x1e6c;" horiz-adv-x="1107" 
d="M439 -249c0 69 48 118 115 118s116 -49 116 -118s-49 -115 -116 -115s-115 46 -115 115zM656 0h-206v1175h-405v190h1017v-190h-406v-1175z" />
    <glyph glyph-name="Tcommaaccent" unicode="&#x21a;" horiz-adv-x="1107" 
d="M544 -472h-143l82 316h168zM656 0h-206v1175h-405v190h1017v-190h-406v-1175z" />
    <glyph glyph-name="Tdotaccent" unicode="&#x1e6a;" horiz-adv-x="1107" 
d="M446 1602c0 66 44 114 108 114s112 -48 112 -114c0 -67 -48 -112 -112 -112s-108 45 -108 112zM656 0h-206v1175h-405v190h1017v-190h-406v-1175z" />
    <glyph glyph-name="Tcedilla" unicode="&#x162;" horiz-adv-x="1107" 
d="M506 0h-55v1175h-406v190h1017v-190h-406v-1175h-19l-65 -129c124 0 206 -56 206 -164c0 -131 -101 -187 -229 -192c-63 -2 -122 8 -149 16v113c27 -8 81 -14 114 -14c54 0 116 15 116 71c0 61 -67 64 -143 64h-53v89z" />
    <glyph glyph-name="Tlinebelow" unicode="&#x1e6e;" horiz-adv-x="1107" 
d="M852 -319h-581v126h581v-126zM656 0h-206v1175h-405v190h1017v-190h-406v-1175z" />
    <glyph glyph-name="Tcaron" unicode="&#x164;" horiz-adv-x="1107" 
d="M211 1717h190l151 -120h9l139 120h194l-237 -214h-194zM656 0h-206v1175h-405v190h1017v-190h-406v-1175z" />
    <glyph glyph-name="Tbar" unicode="&#x166;" horiz-adv-x="1107" 
d="M888 623h-232v-623h-205v623h-231v150h231v402h-406v190h1017v-190h-406v-402h232v-150z" />
    <glyph glyph-name="U" unicode="U" horiz-adv-x="1394" 
d="M374 1365v-877c0 -201 126 -323 323 -323c196 0 323 122 323 323v877h206v-891c0 -302 -212 -502 -529 -502s-529 203 -529 505v888h206z" />
    <glyph glyph-name="Uacute" unicode="&#xda;" horiz-adv-x="1394" 
d="M553 1509l260 212h228l-279 -212h-209zM374 1365v-877c0 -201 126 -323 323 -323c196 0 323 122 323 323v877h206v-891c0 -302 -212 -502 -529 -502s-529 203 -529 505v888h206z" />
    <glyph glyph-name="Ucircumflex" unicode="&#xdb;" horiz-adv-x="1394" 
d="M363 1497l278 246h135l266 -246h-185l-148 135h-8l-156 -135h-182zM374 1365v-877c0 -201 126 -323 323 -323c196 0 323 122 323 323v877h206v-891c0 -302 -212 -502 -529 -502s-529 203 -529 505v888h206z" />
    <glyph glyph-name="Ugrave" unicode="&#xd9;" horiz-adv-x="1394" 
d="M831 1509h-201l-280 209h224zM374 1365v-877c0 -201 126 -323 323 -323c196 0 323 122 323 323v877h206v-891c0 -302 -212 -502 -529 -502s-529 203 -529 505v888h206z" />
    <glyph glyph-name="Udieresis" unicode="&#xdc;" horiz-adv-x="1394" 
d="M403 1580c0 64 47 108 110 108c66 0 112 -44 112 -108c0 -62 -46 -107 -112 -107c-63 0 -110 45 -110 107zM766 1580c0 64 47 108 110 108c66 0 113 -44 113 -108c0 -62 -46 -107 -113 -107c-63 0 -110 45 -110 107zM374 1365v-877c0 -201 126 -323 323 -323
c196 0 323 122 323 323v877h206v-891c0 -302 -212 -502 -529 -502s-529 203 -529 505v888h206z" />
    <glyph glyph-name="Uhungarumlaut" unicode="&#x170;" horiz-adv-x="1394" 
d="M374 1365v-877c0 -201 126 -323 323 -323c196 0 323 122 323 323v877h206v-891c0 -302 -212 -502 -529 -502s-529 203 -529 505v888h206zM371 1509l311 249h212l-335 -249h-188zM740 1509l312 249h211l-334 -249h-189z" />
    <glyph glyph-name="Utildebelow" unicode="&#x1e74;" horiz-adv-x="1394" 
d="M670 -315c-24 24 -49 54 -86 54c-57 0 -66 -54 -69 -98h-126c0 108 56 218 185 218c66 0 109 -27 156 -70c29 -28 48 -55 85 -55c49 0 68 64 72 109h125c0 -110 -71 -222 -186 -222c-81 0 -119 29 -156 64zM374 1365v-877c0 -201 126 -323 323 -323
c196 0 323 122 323 323v877h206v-891c0 -302 -212 -502 -529 -502s-529 203 -529 505v888h206z" />
    <glyph glyph-name="Uhookabove" unicode="&#x1ee6;" horiz-adv-x="1394" 
d="M374 1365v-877c0 -201 126 -323 323 -323c196 0 323 122 323 323v877h206v-891c0 -302 -212 -502 -529 -502s-529 203 -529 505v888h206zM564 1681v97c17 7 55 16 99 16c112 0 197 -54 197 -152c0 -99 -92 -141 -140 -162l-66 84c37 10 84 34 84 69c0 45 -45 57 -87 57
c-39 0 -67 -5 -87 -9z" />
    <glyph glyph-name="Ubreve" unicode="&#x16c;" horiz-adv-x="1394" 
d="M374 1365v-877c0 -201 126 -323 323 -323c196 0 323 122 323 323v877h206v-891c0 -302 -212 -502 -529 -502s-529 203 -529 505v888h206zM370 1755h134c0 -93 62 -157 193 -157s193 64 193 157h133c0 -155 -108 -276 -326 -276s-327 121 -327 276z" />
    <glyph glyph-name="Udieresisbelow" unicode="&#x1e72;" horiz-adv-x="1394" 
d="M374 1365v-877c0 -201 126 -323 323 -323c196 0 323 122 323 323v877h206v-891c0 -302 -212 -502 -529 -502s-529 203 -529 505v888h206zM395 -272c0 66 49 113 115 113s116 -47 116 -113c0 -64 -50 -112 -116 -112c-65 0 -115 48 -115 112zM771 -272
c0 66 50 113 112 113c69 0 119 -47 119 -113c0 -64 -50 -112 -119 -112c-62 0 -112 48 -112 112z" />
    <glyph glyph-name="Ucaron" unicode="&#x1d3;" horiz-adv-x="1394" 
d="M354 1717h190l151 -120h9l139 120h194l-237 -214h-194zM374 1365v-877c0 -201 126 -323 323 -323c196 0 323 122 323 323v877h206v-891c0 -302 -212 -502 -529 -502s-529 203 -529 505v888h206z" />
    <glyph glyph-name="Uinvertedbreve" unicode="&#x216;" horiz-adv-x="1394" 
d="M374 1365v-877c0 -201 126 -323 323 -323c196 0 323 122 323 323v877h206v-891c0 -302 -212 -502 -529 -502s-529 203 -529 505v888h206zM697 1640c-123 0 -190 -70 -190 -148h-132c0 140 111 270 322 270s322 -130 322 -270h-132c0 78 -67 148 -190 148z" />
    <glyph glyph-name="Udieresisacute" unicode="&#x1d7;" horiz-adv-x="1394" 
d="M553 1739l260 212h228l-279 -212h-209zM403 1580c0 64 47 108 110 108c66 0 112 -44 112 -108c0 -62 -46 -107 -112 -107c-63 0 -110 45 -110 107zM766 1580c0 64 47 108 110 108c66 0 113 -44 113 -108c0 -62 -46 -107 -113 -107c-63 0 -110 45 -110 107zM374 1365v-877
c0 -201 126 -323 323 -323c196 0 323 122 323 323v877h206v-891c0 -302 -212 -502 -529 -502s-529 203 -529 505v888h206z" />
    <glyph glyph-name="Utildeacute" unicode="&#x1e78;" horiz-adv-x="1394" 
d="M553 1739l260 212h228l-279 -212h-209zM374 1365v-877c0 -201 126 -323 323 -323c196 0 323 122 323 323v877h206v-891c0 -302 -212 -502 -529 -502s-529 203 -529 505v888h206zM670 1521c-24 24 -49 54 -86 54c-57 0 -66 -54 -69 -98h-126c0 108 56 218 185 218
c66 0 109 -27 156 -70c29 -28 48 -55 85 -55c49 0 68 64 72 109h125c0 -110 -71 -222 -186 -222c-81 0 -119 28 -156 64z" />
    <glyph glyph-name="Udotbelow" unicode="&#x1ee4;" horiz-adv-x="1394" 
d="M582 -249c0 69 48 118 115 118s116 -49 116 -118s-49 -115 -116 -115s-115 46 -115 115zM374 1365v-877c0 -201 126 -323 323 -323c196 0 323 122 323 323v877h206v-891c0 -302 -212 -502 -529 -502s-529 203 -529 505v888h206z" />
    <glyph glyph-name="Utilde" unicode="&#x168;" horiz-adv-x="1394" 
d="M374 1365v-877c0 -201 126 -323 323 -323c196 0 323 122 323 323v877h206v-891c0 -302 -212 -502 -529 -502s-529 203 -529 505v888h206zM670 1521c-24 24 -49 54 -86 54c-57 0 -66 -54 -69 -98h-126c0 108 56 218 185 218c66 0 109 -27 156 -70c29 -28 48 -55 85 -55
c49 0 68 64 72 109h125c0 -110 -71 -222 -186 -222c-81 0 -119 28 -156 64z" />
    <glyph glyph-name="Udieresisgrave" unicode="&#x1db;" horiz-adv-x="1394" 
d="M831 1739h-201l-280 209h224zM403 1580c0 64 47 108 110 108c66 0 112 -44 112 -108c0 -62 -46 -107 -112 -107c-63 0 -110 45 -110 107zM766 1580c0 64 47 108 110 108c66 0 113 -44 113 -108c0 -62 -46 -107 -113 -107c-63 0 -110 45 -110 107zM374 1365v-877
c0 -201 126 -323 323 -323c196 0 323 122 323 323v877h206v-891c0 -302 -212 -502 -529 -502s-529 203 -529 505v888h206z" />
    <glyph glyph-name="Ucircumflexbelow" unicode="&#x1e76;" horiz-adv-x="1394" 
d="M374 1365v-877c0 -201 126 -323 323 -323c196 0 323 122 323 323v877h206v-891c0 -302 -212 -502 -529 -502s-529 203 -529 505v888h206zM354 -373l277 253h137l266 -253h-188l-146 140h-7l-157 -140h-182z" />
    <glyph glyph-name="Umacron" unicode="&#x16a;" horiz-adv-x="1394" 
d="M374 1365v-877c0 -201 126 -323 323 -323c196 0 323 122 323 323v877h206v-891c0 -302 -212 -502 -529 -502s-529 203 -529 505v888h206zM992 1505h-590v124h590v-124z" />
    <glyph glyph-name="Uring" unicode="&#x16e;" horiz-adv-x="1394" 
d="M374 1365v-877c0 -201 126 -323 323 -323c196 0 323 122 323 323v877h206v-891c0 -302 -212 -502 -529 -502s-529 203 -529 505v888h206zM697 1499c-110 0 -198 84 -198 197s88 195 198 195c111 0 198 -82 198 -195s-87 -197 -198 -197zM598 1695c0 -55 43 -99 99 -99
s99 44 99 99c0 56 -43 99 -99 99s-99 -43 -99 -99z" />
    <glyph glyph-name="Umacrondieresis" unicode="&#x1e7a;" horiz-adv-x="1394" 
d="M404 1845c0 64 47 108 110 108c66 0 112 -44 112 -108c0 -62 -46 -107 -112 -107c-63 0 -110 45 -110 107zM767 1845c0 64 47 108 110 108c66 0 113 -44 113 -108c0 -62 -46 -107 -113 -107c-63 0 -110 45 -110 107zM374 1365v-877c0 -201 126 -323 323 -323
c196 0 323 122 323 323v877h206v-891c0 -302 -212 -502 -529 -502s-529 203 -529 505v888h206zM992 1505h-590v124h590v-124z" />
    <glyph glyph-name="Udieresismacron" unicode="&#x1d5;" horiz-adv-x="1394" 
d="M403 1580c0 64 47 108 110 108c66 0 112 -44 112 -108c0 -62 -46 -107 -112 -107c-63 0 -110 45 -110 107zM766 1580c0 64 47 108 110 108c66 0 113 -44 113 -108c0 -62 -46 -107 -113 -107c-63 0 -110 45 -110 107zM374 1365v-877c0 -201 126 -323 323 -323
c196 0 323 122 323 323v877h206v-891c0 -302 -212 -502 -529 -502s-529 203 -529 505v888h206zM992 1778h-590v124h590v-124z" />
    <glyph glyph-name="Udblgrave" unicode="&#x214;" horiz-adv-x="1394" 
d="M1006 1509h-188l-335 250h212zM636 1509h-188l-335 250h212zM374 1365v-877c0 -201 126 -323 323 -323c196 0 323 122 323 323v877h206v-891c0 -302 -212 -502 -529 -502s-529 203 -529 505v888h206z" />
    <glyph glyph-name="Udieresiscaron" unicode="&#x1d9;" horiz-adv-x="1394" 
d="M403 1580c0 64 47 108 110 108c66 0 112 -44 112 -108c0 -62 -46 -107 -112 -107c-63 0 -110 45 -110 107zM766 1580c0 64 47 108 110 108c66 0 113 -44 113 -108c0 -62 -46 -107 -113 -107c-63 0 -110 45 -110 107zM354 1978h190l151 -120h9l139 120h194l-237 -214h-194
zM374 1365v-877c0 -201 126 -323 323 -323c196 0 323 122 323 323v877h206v-891c0 -302 -212 -502 -529 -502s-529 203 -529 505v888h206z" />
    <glyph glyph-name="Uogonek" unicode="&#x172;" horiz-adv-x="1394" 
d="M995 -387c-122 0 -231 66 -231 198c0 63 22 135 97 194l-4 6c-38 -18 -82 -38 -172 -38c-299 0 -516 202 -516 504v888h205v-877c0 -202 126 -323 323 -323c196 0 323 122 323 323v877h206v-891c0 -188 -72 -303 -151 -388c-74 -80 -153 -136 -153 -226
c0 -73 53 -101 118 -101c19 0 49 3 75 10v-136c-17 -7 -65 -20 -120 -20z" />
    <glyph glyph-name="Uhorn" unicode="&#x1af;" horiz-adv-x="1464" 
d="M697 -27c-317 0 -529 203 -529 504v888h206v-877c0 -201 126 -322 323 -322c196 0 323 122 323 322v877h207c100 0 127 57 127 143v111h170v-126c0 -159 -78 -282 -252 -282h-46v-737c0 -302 -212 -501 -529 -501z" />
    <glyph glyph-name="Uhorngrave" unicode="&#x1eea;" horiz-adv-x="1464" 
d="M831 1509h-201l-280 209h224zM697 -27c-317 0 -529 203 -529 504v888h206v-877c0 -201 126 -322 323 -322c196 0 323 122 323 322v877h207c100 0 127 57 127 143v111h170v-126c0 -159 -78 -282 -252 -282h-46v-737c0 -302 -212 -501 -529 -501z" />
    <glyph glyph-name="Uhornacute" unicode="&#x1ee8;" horiz-adv-x="1464" 
d="M553 1509l260 212h228l-279 -212h-209zM697 -27c-317 0 -529 203 -529 504v888h206v-877c0 -201 126 -322 323 -322c196 0 323 122 323 322v877h207c100 0 127 57 127 143v111h170v-126c0 -159 -78 -282 -252 -282h-46v-737c0 -302 -212 -501 -529 -501z" />
    <glyph glyph-name="Uhorndotbelow" unicode="&#x1ef0;" horiz-adv-x="1464" 
d="M582 -249c0 69 48 118 115 118s116 -49 116 -118s-49 -115 -116 -115s-115 46 -115 115zM697 -27c-317 0 -529 203 -529 504v888h206v-877c0 -201 126 -322 323 -322c196 0 323 122 323 322v877h207c100 0 127 57 127 143v111h170v-126c0 -159 -78 -282 -252 -282h-46
v-737c0 -302 -212 -501 -529 -501z" />
    <glyph glyph-name="Uhornhookabove" unicode="&#x1eec;" horiz-adv-x="1464" 
d="M564 1681v97c17 7 55 16 99 16c112 0 197 -54 197 -152c0 -99 -92 -141 -140 -162l-66 84c37 10 84 34 84 69c0 45 -45 57 -87 57c-39 0 -67 -5 -87 -9zM697 -27c-317 0 -529 203 -529 504v888h206v-877c0 -201 126 -322 323 -322c196 0 323 122 323 322v877h207
c100 0 127 57 127 143v111h170v-126c0 -159 -78 -282 -252 -282h-46v-737c0 -302 -212 -501 -529 -501z" />
    <glyph glyph-name="Uhorntilde" unicode="&#x1eee;" horiz-adv-x="1464" 
d="M670 1521c-24 24 -49 54 -86 54c-57 0 -66 -54 -69 -98h-126c0 108 56 218 185 218c66 0 109 -27 156 -70c29 -28 48 -55 85 -55c49 0 68 64 72 109h125c0 -110 -71 -222 -186 -222c-81 0 -119 28 -156 64zM697 -27c-317 0 -529 203 -529 504v888h206v-877
c0 -201 126 -322 323 -322c196 0 323 122 323 322v877h207c100 0 127 57 127 143v111h170v-126c0 -159 -78 -282 -252 -282h-46v-737c0 -302 -212 -501 -529 -501z" />
    <glyph glyph-name="V" unicode="V" horiz-adv-x="1268" 
d="M747 0h-227l-479 1365h236l355 -1115h11l352 1115h232z" />
    <glyph glyph-name="Vtilde" unicode="&#x1e7c;" horiz-adv-x="1268" 
d="M607 1521c-24 24 -49 54 -86 54c-57 0 -66 -54 -69 -98h-126c0 108 56 218 185 218c66 0 109 -27 156 -70c29 -28 48 -55 85 -55c49 0 68 64 72 109h125c0 -110 -71 -222 -186 -222c-81 0 -119 28 -156 64zM747 0h-227l-479 1365h236l355 -1115h11l352 1115h232z" />
    <glyph glyph-name="Vdotbelow" unicode="&#x1e7e;" horiz-adv-x="1268" 
d="M519 -249c0 69 48 118 115 118s116 -49 116 -118s-49 -115 -116 -115s-115 46 -115 115zM747 0h-227l-479 1365h236l355 -1115h11l352 1115h232z" />
    <glyph glyph-name="W" unicode="W" horiz-adv-x="1751" 
d="M595 0h-187l-370 1365h232l237 -1045h10l260 1045h198l258 -1045h11l237 1045h232l-371 -1365h-188l-274 1018h-10z" />
    <glyph glyph-name="Wdotaccent" unicode="&#x1e86;" horiz-adv-x="1751" 
d="M768 1602c0 66 44 114 108 114s112 -48 112 -114c0 -67 -48 -112 -112 -112s-108 45 -108 112zM595 0h-187l-370 1365h232l237 -1045h10l260 1045h198l258 -1045h11l237 1045h232l-371 -1365h-188l-274 1018h-10z" />
    <glyph glyph-name="Wgrave" unicode="&#x1e80;" horiz-adv-x="1751" 
d="M1010 1509h-201l-280 209h224zM595 0h-187l-370 1365h232l237 -1045h10l260 1045h198l258 -1045h11l237 1045h232l-371 -1365h-188l-274 1018h-10z" />
    <glyph glyph-name="Wdotbelow" unicode="&#x1e88;" horiz-adv-x="1751" 
d="M761 -249c0 69 48 118 115 118s116 -49 116 -118s-49 -115 -116 -115s-115 46 -115 115zM595 0h-187l-370 1365h232l237 -1045h10l260 1045h198l258 -1045h11l237 1045h232l-371 -1365h-188l-274 1018h-10z" />
    <glyph glyph-name="Wdieresis" unicode="&#x1e84;" horiz-adv-x="1751" 
d="M582 1580c0 64 47 108 110 108c66 0 112 -44 112 -108c0 -62 -46 -107 -112 -107c-63 0 -110 45 -110 107zM945 1580c0 64 47 108 110 108c66 0 113 -44 113 -108c0 -62 -46 -107 -113 -107c-63 0 -110 45 -110 107zM595 0h-187l-370 1365h232l237 -1045h10l260 1045h198
l258 -1045h11l237 1045h232l-371 -1365h-188l-274 1018h-10z" />
    <glyph glyph-name="Wacute" unicode="&#x1e82;" horiz-adv-x="1751" 
d="M732 1509l260 212h228l-279 -212h-209zM595 0h-187l-370 1365h232l237 -1045h10l260 1045h198l258 -1045h11l237 1045h232l-371 -1365h-188l-274 1018h-10z" />
    <glyph glyph-name="Wcircumflex" unicode="&#x174;" horiz-adv-x="1751" 
d="M542 1497l278 246h135l266 -246h-185l-148 135h-8l-156 -135h-182zM595 0h-187l-370 1365h232l237 -1045h10l260 1045h198l258 -1045h11l237 1045h232l-371 -1365h-188l-274 1018h-10z" />
    <glyph glyph-name="X" unicode="X" horiz-adv-x="1197" 
d="M1171 1365l-447 -687l439 -678h-243l-325 512h-10l-326 -512h-229l438 688l-433 677h246l324 -516h10l321 516h235z" />
    <glyph glyph-name="Xdotaccent" unicode="&#x1e8a;" horiz-adv-x="1197" 
d="M1171 1365l-447 -687l439 -678h-243l-325 512h-10l-326 -512h-229l438 688l-433 677h246l324 -516h10l321 516h235zM491 1602c0 66 44 114 108 114s112 -48 112 -114c0 -67 -48 -112 -112 -112s-108 45 -108 112z" />
    <glyph glyph-name="Xdieresis" unicode="&#x1e8c;" horiz-adv-x="1197" 
d="M1171 1365l-447 -687l439 -678h-243l-325 512h-10l-326 -512h-229l438 688l-433 677h246l324 -516h10l321 516h235zM305 1580c0 64 47 108 110 108c66 0 112 -44 112 -108c0 -62 -46 -107 -112 -107c-63 0 -110 45 -110 107zM668 1580c0 64 47 108 110 108
c66 0 113 -44 113 -108c0 -62 -46 -107 -113 -107c-63 0 -110 45 -110 107z" />
    <glyph glyph-name="Y" unicode="Y" horiz-adv-x="1162" 
d="M683 0h-205v554l-456 811h232l322 -592h10l325 592h229l-457 -808v-557z" />
    <glyph glyph-name="Ydieresis" unicode="&#x178;" horiz-adv-x="1162" 
d="M683 0h-205v554l-456 811h232l322 -592h10l325 592h229l-457 -808v-557zM287 1580c0 64 47 108 110 108c66 0 112 -44 112 -108c0 -62 -46 -107 -112 -107c-63 0 -110 45 -110 107zM650 1580c0 64 47 108 110 108c66 0 113 -44 113 -108c0 -62 -46 -107 -113 -107
c-63 0 -110 45 -110 107z" />
    <glyph glyph-name="Yacute" unicode="&#xdd;" horiz-adv-x="1162" 
d="M683 0h-205v554l-456 811h232l322 -592h10l325 592h229l-457 -808v-557zM437 1509l260 212h228l-279 -212h-209z" />
    <glyph glyph-name="Ytilde" unicode="&#x1ef8;" horiz-adv-x="1162" 
d="M683 0h-205v554l-456 811h232l322 -592h10l325 592h229l-457 -808v-557zM554 1521c-24 24 -49 54 -86 54c-57 0 -66 -54 -69 -98h-126c0 108 56 218 185 218c66 0 109 -27 156 -70c29 -28 48 -55 85 -55c49 0 68 64 72 109h125c0 -110 -71 -222 -186 -222
c-81 0 -119 28 -156 64z" />
    <glyph glyph-name="Ygrave" unicode="&#x1ef2;" horiz-adv-x="1162" 
d="M683 0h-205v554l-456 811h232l322 -592h10l325 592h229l-457 -808v-557zM715 1509h-201l-280 209h224z" />
    <glyph glyph-name="Ycircumflex" unicode="&#x176;" horiz-adv-x="1162" 
d="M683 0h-205v554l-456 811h232l322 -592h10l325 592h229l-457 -808v-557zM247 1497l278 246h135l266 -246h-185l-148 135h-8l-156 -135h-182z" />
    <glyph glyph-name="Ymacron" unicode="&#x232;" horiz-adv-x="1162" 
d="M683 0h-205v554l-456 811h232l322 -592h10l325 592h229l-457 -808v-557zM876 1505h-590v124h590v-124z" />
    <glyph glyph-name="Ydotbelow" unicode="&#x1ef4;" horiz-adv-x="1162" 
d="M683 0h-205v554l-456 811h232l322 -592h10l325 592h229l-457 -808v-557zM466 -249c0 69 48 118 115 118s116 -49 116 -118s-49 -115 -116 -115s-115 46 -115 115z" />
    <glyph glyph-name="Ydotaccent" unicode="&#x1e8e;" horiz-adv-x="1162" 
d="M683 0h-205v554l-456 811h232l322 -592h10l325 592h229l-457 -808v-557zM473 1602c0 66 44 114 108 114s112 -48 112 -114c0 -67 -48 -112 -112 -112s-108 45 -108 112z" />
    <glyph glyph-name="Yhookabove" unicode="&#x1ef6;" horiz-adv-x="1162" 
d="M683 0h-205v554l-456 811h232l322 -592h10l325 592h229l-457 -808v-557zM448 1681v97c17 7 55 16 99 16c112 0 197 -54 197 -152c0 -99 -92 -141 -140 -162l-66 84c37 10 84 34 84 69c0 45 -45 57 -87 57c-39 0 -67 -5 -87 -9z" />
    <glyph glyph-name="Z" unicode="Z" horiz-adv-x="1209" 
d="M110 0v150l707 1014v13h-684v188h937v-148l-703 -1016v-13h721v-188h-978z" />
    <glyph glyph-name="Zcaron" unicode="&#x17d;" horiz-adv-x="1209" 
d="M110 0v150l707 1014v13h-684v188h937v-148l-703 -1016v-13h721v-188h-978zM262 1717h190l151 -120h9l139 120h194l-237 -214h-194z" />
    <glyph glyph-name="Zcircumflex" unicode="&#x1e90;" horiz-adv-x="1209" 
d="M110 0v150l707 1014v13h-684v188h937v-148l-703 -1016v-13h721v-188h-978zM271 1497l278 246h135l266 -246h-185l-148 135h-8l-156 -135h-182z" />
    <glyph glyph-name="Zlinebelow" unicode="&#x1e94;" horiz-adv-x="1209" 
d="M110 0v150l707 1014v13h-684v188h937v-148l-703 -1016v-13h721v-188h-978zM903 -319h-581v126h581v-126z" />
    <glyph glyph-name="Zdotbelow" unicode="&#x1e92;" horiz-adv-x="1209" 
d="M490 -249c0 69 48 118 115 118s116 -49 116 -118s-49 -115 -116 -115s-115 46 -115 115zM110 0v150l707 1014v13h-684v188h937v-148l-703 -1016v-13h721v-188h-978z" />
    <glyph glyph-name="Zdotaccent" unicode="&#x17b;" horiz-adv-x="1209" 
d="M110 0v150l707 1014v13h-684v188h937v-148l-703 -1016v-13h721v-188h-978zM497 1602c0 66 44 114 108 114s112 -48 112 -114c0 -67 -48 -112 -112 -112s-108 45 -108 112z" />
    <glyph glyph-name="Zacute" unicode="&#x179;" horiz-adv-x="1209" 
d="M461 1509l260 212h228l-279 -212h-209zM110 0v150l707 1014v13h-684v188h937v-148l-703 -1016v-13h721v-188h-978z" />
    <glyph glyph-name="AE" unicode="&#xc6;" horiz-adv-x="1917" 
d="M877 1178l-316 -610l387 1v609h-71zM948 392h-468l-211 -392h-230l719 1365h1021v-187h-626v-394h590v-180h-590v-416h626v-188h-831v392z" />
    <glyph glyph-name="AEmacron" unicode="&#x1e2;" horiz-adv-x="1917" 
d="M877 1178l-316 -610l387 1v609h-71zM948 392h-468l-211 -392h-230l719 1365h1021v-187h-626v-394h590v-180h-590v-416h626v-188h-831v392zM1663 1505h-590v124h590v-124z" />
    <glyph glyph-name="AEacute" unicode="&#x1fc;" horiz-adv-x="1917" 
d="M1224 1509l260 212h228l-279 -212h-209zM877 1178l-316 -610l387 1v609h-71zM948 392h-468l-211 -392h-230l719 1365h1021v-187h-626v-394h590v-180h-590v-416h626v-188h-831v392z" />
    <glyph glyph-name="OE" unicode="&#x152;" horiz-adv-x="2011" 
d="M340 772v-191c0 -285 152 -418 352 -418c201 0 354 123 354 408v218c0 285 -153 413 -354 413c-200 0 -352 -145 -352 -430zM671 -28c-331 0 -541 227 -541 611v187c0 397 220 622 544 622c154 0 296 -54 369 -167h14v140h816v-188h-625v-393h589v-180h-589v-416h625
v-188h-816v144h-14c-73 -108 -214 -172 -372 -172z" />
    <glyph glyph-name="Eth" unicode="&#xd0;" horiz-adv-x="1438" 
d="M723 0h-458v599h-162v193h162v573h458c440 0 603 -281 603 -681c0 -394 -157 -684 -603 -684zM471 190h233c276 0 409 155 409 494c0 296 -108 497 -409 497h-233v-389h287v-193h-287v-409z" />
    <glyph glyph-name="Thorn" unicode="&#xde;" horiz-adv-x="1215" 
d="M184 1365h205v-247h292c271 0 443 -154 443 -409c0 -257 -173 -407 -444 -407h-290v-302h-206v1365zM390 934v-451h229c166 0 294 31 294 226c0 157 -95 225 -257 225h-266z" />
    <glyph glyph-name="A.sc" horiz-adv-x="1146" 
d="M269 0h-205l394 1083h232l393 -1083h-220l-97 282h-398zM572 879h-8l-151 -441h309z" />
    <glyph glyph-name="Adieresis.sc" horiz-adv-x="1146" 
d="M269 0h-205l394 1083h232l393 -1083h-220l-97 282h-398zM572 879h-8l-151 -441h309zM274 1336c0 66 49 113 115 113s116 -47 116 -113c0 -64 -50 -112 -116 -112c-65 0 -115 48 -115 112zM650 1336c0 66 50 113 112 113c69 0 119 -47 119 -113c0 -64 -50 -112 -119 -112
c-62 0 -112 48 -112 112z" />
    <glyph glyph-name="Aring.sc" horiz-adv-x="1146" 
d="M477 1173c0 -49 42 -87 93 -87c52 0 93 38 93 87c0 50 -41 87 -93 87c-51 0 -93 -37 -93 -87zM722 438l-150 441h-8l-151 -441h309zM269 0h-205l379 1032c-46 32 -76 84 -76 142c0 112 90 198 203 198s203 -86 203 -198c0 -55 -29 -103 -71 -134l381 -1040h-220l-97 282
h-398z" />
    <glyph glyph-name="Agrave.sc" horiz-adv-x="1146" 
d="M675 1255h-151l-279 354h192zM269 0h-205l394 1083h232l393 -1083h-220l-97 282h-398zM572 879h-8l-151 -441h309z" />
    <glyph glyph-name="Atilde.sc" horiz-adv-x="1146" 
d="M269 0h-205l394 1083h232l393 -1083h-220l-97 282h-398zM572 879h-8l-151 -441h309zM548 1266c-19 27 -42 60 -86 60c-54 0 -67 -64 -70 -119h-127c0 141 69 261 190 261c65 0 109 -20 153 -80c24 -33 40 -69 85 -69c47 0 68 75 71 132h127c0 -135 -82 -263 -189 -263
c-77 0 -119 27 -154 78z" />
    <glyph glyph-name="Acircumflex.sc" horiz-adv-x="1146" 
d="M253 1252l251 368h138l240 -368h-167l-141 238h-5l-150 -238h-166zM269 0h-205l394 1083h232l393 -1083h-220l-97 282h-398zM572 879h-8l-151 -441h309z" />
    <glyph glyph-name="Aacute.sc" horiz-adv-x="1146" 
d="M522 1255l239 354h192l-279 -354h-152zM269 0h-205l394 1083h232l393 -1083h-220l-97 282h-398zM572 879h-8l-151 -441h309z" />
    <glyph glyph-name="Abrevegrave.sc" horiz-adv-x="1146" 
d="M269 0h-205l394 1083h232l393 -1083h-220l-97 282h-398zM572 879h-8l-151 -441h309zM859 1439c0 -125 -87 -244 -285 -244s-292 116 -292 244h129c0 -70 57 -125 163 -125s164 55 165 125h120zM691 1445h-160l-273 239h183z" />
    <glyph glyph-name="Acircumflexacute.sc" horiz-adv-x="1146" 
d="M217 1222l272 224h179l260 -224h-193l-155 127h-8l-157 -127h-198zM777 1451l192 215h194l-306 -279zM269 0h-205l394 1083h232l393 -1083h-220l-97 282h-398zM572 879h-8l-151 -441h309z" />
    <glyph glyph-name="Adotmacron.sc" horiz-adv-x="1146" 
d="M466 1320c0 66 44 114 108 114s112 -48 112 -114c0 -67 -48 -112 -112 -112s-108 45 -108 112zM866 1570h-581v126h581v-126zM269 0h-205l394 1083h232l393 -1083h-220l-97 282h-398zM572 879h-8l-151 -441h309z" />
    <glyph glyph-name="Aringbelow.sc" horiz-adv-x="1146" 
d="M269 0h-205l394 1083h232l393 -1083h-220l-97 282h-398zM572 879h-8l-151 -441h309zM573 -414c-110 0 -198 84 -198 197s88 195 198 195c111 0 198 -82 198 -195s-87 -197 -198 -197zM474 -218c0 -55 43 -99 99 -99s99 44 99 99c0 56 -43 99 -99 99s-99 -43 -99 -99z" />
    <glyph glyph-name="Acircumflexdotbelow.sc" horiz-adv-x="1146" 
d="M253 1252l251 368h138l240 -368h-167l-141 238h-5l-150 -238h-166zM269 0h-205l394 1083h232l393 -1083h-220l-97 282h-398zM572 879h-8l-151 -441h309zM458 -249c0 69 48 118 115 118s116 -49 116 -118s-49 -115 -116 -115s-115 46 -115 115z" />
    <glyph glyph-name="Abreve.sc" horiz-adv-x="1146" 
d="M269 0h-205l394 1083h232l393 -1083h-220l-97 282h-398zM572 879h-8l-151 -441h309zM306 1509h132c0 -84 50 -164 166 -164s167 80 167 164h130c-1 -138 -90 -289 -297 -289c-206 0 -298 151 -298 289z" />
    <glyph glyph-name="Ainvertedbreve.sc" horiz-adv-x="1146" 
d="M269 0h-205l394 1083h232l393 -1083h-220l-97 282h-398zM572 879h-8l-151 -441h309zM276 1252c1 139 91 289 298 289s298 -151 297 -289h-131c0 84 -50 164 -166 164s-166 -80 -166 -164h-132z" />
    <glyph glyph-name="Adieresismacron.sc" horiz-adv-x="1146" 
d="M269 0h-205l394 1083h232l393 -1083h-220l-97 282h-398zM572 879h-8l-151 -441h309zM274 1336c0 66 49 113 115 113s116 -47 116 -113c0 -64 -50 -112 -116 -112c-65 0 -115 48 -115 112zM650 1336c0 66 50 113 112 113c69 0 119 -47 119 -113c0 -64 -50 -112 -119 -112
c-62 0 -112 48 -112 112zM866 1570h-581v126h581v-126z" />
    <glyph glyph-name="Acaron.sc" horiz-adv-x="1146" 
d="M257 1586h166l149 -245h6l141 245h166l-239 -368h-138zM269 0h-205l394 1083h232l393 -1083h-220l-97 282h-398zM572 879h-8l-151 -441h309z" />
    <glyph glyph-name="Adotaccent.sc" horiz-adv-x="1146" 
d="M466 1320c0 66 44 114 108 114s112 -48 112 -114c0 -67 -48 -112 -112 -112s-108 45 -108 112zM269 0h-205l394 1083h232l393 -1083h-220l-97 282h-398zM572 879h-8l-151 -441h309z" />
    <glyph glyph-name="Adotbelow.sc" horiz-adv-x="1146" 
d="M458 -249c0 69 48 118 115 118s116 -49 116 -118s-49 -115 -116 -115s-115 46 -115 115zM269 0h-205l394 1083h232l393 -1083h-220l-97 282h-398zM572 879h-8l-151 -441h309z" />
    <glyph glyph-name="Abreveacute.sc" horiz-adv-x="1146" 
d="M269 0h-205l394 1083h232l393 -1083h-220l-97 282h-398zM572 879h-8l-151 -441h309zM860 1439c0 -125 -88 -244 -286 -244s-291 117 -291 244h128c1 -69 57 -125 163 -125s165 54 165 125h121zM472 1445l249 239h180l-270 -239h-159z" />
    <glyph glyph-name="Aringacute.sc" horiz-adv-x="1146" 
d="M538 1299l238 353h193l-279 -353h-152zM477 1173c0 -49 42 -87 93 -87c52 0 93 38 93 87c0 50 -41 87 -93 87c-51 0 -93 -37 -93 -87zM722 438l-150 441h-8l-151 -441h309zM269 0h-205l379 1032c-46 32 -76 84 -76 142c0 112 90 198 203 198s203 -86 203 -198
c0 -55 -29 -103 -71 -134l381 -1040h-220l-97 282h-398z" />
    <glyph glyph-name="Aogonek.sc" horiz-adv-x="1146" 
d="M1151 -367c-16 -9 -72 -21 -124 -21c-124 0 -231 66 -231 197c0 91 56 150 90 186v5h-23l-97 282h-398l-99 -282h-205l394 1083h232l388 -1064c-83 -55 -115 -114 -115 -168c0 -60 45 -92 108 -92c20 0 57 4 80 9v-135zM572 879h-8l-151 -441h309z" />
    <glyph glyph-name="Ahookabove.sc" horiz-adv-x="1146" 
d="M269 0h-205l394 1083h232l393 -1083h-220l-97 282h-398zM572 879h-8l-151 -441h309zM432 1473v112c25 10 63 18 110 18c130 0 219 -67 219 -185c0 -108 -75 -162 -160 -208l-69 90c71 40 97 69 97 109c0 47 -43 78 -102 78c-38 0 -73 -7 -95 -14z" />
    <glyph glyph-name="Abrevetilde.sc" horiz-adv-x="1146" 
d="M269 0h-205l394 1083h232l393 -1083h-220l-97 282h-398zM572 879h-8l-151 -441h309zM860 1418c0 -121 -95 -230 -286 -230s-291 107 -291 230h128c0 -67 61 -118 163 -118s165 50 165 118h121zM547 1540c-22 23 -44 49 -81 49c-50 0 -62 -47 -65 -88h-124
c0 102 67 201 179 201c62 0 97 -21 141 -62c27 -26 45 -49 81 -49c45 0 64 55 67 98h122c0 -113 -71 -205 -178 -205c-75 0 -109 23 -142 56z" />
    <glyph glyph-name="Acircumflextilde.sc" horiz-adv-x="1146" 
d="M269 0h-205l394 1083h232l393 -1083h-220l-97 282h-398zM572 879h-8l-151 -441h309zM566 1544c-25 23 -52 51 -90 51c-58 0 -68 -53 -71 -95h-128c0 100 59 208 190 208c67 0 109 -24 158 -67c29 -26 52 -51 88 -51c51 0 70 61 74 104h128c0 -113 -74 -211 -190 -211
c-84 0 -122 27 -159 61zM217 1217l272 217h179l260 -217h-193l-155 125h-8l-157 -125h-198z" />
    <glyph glyph-name="Acircumflexgrave.sc" horiz-adv-x="1146" 
d="M1032 1418h-144l-262 248h192zM217 1222l272 224h179l260 -224h-193l-155 127h-8l-157 -127h-198zM269 0h-205l394 1083h232l393 -1083h-220l-97 282h-398zM572 879h-8l-151 -441h309z" />
    <glyph glyph-name="Acircumflexhookabove.sc" horiz-adv-x="1146" 
d="M217 1222l272 224h179l260 -224h-193l-155 127h-8l-157 -127h-198zM744 1586v101c19 5 59 9 91 9c115 0 188 -53 188 -149c0 -75 -55 -131 -114 -165l-67 73c30 21 53 43 53 74c0 40 -37 62 -87 62c-18 0 -43 -1 -64 -5zM269 0h-205l394 1083h232l393 -1083h-220l-97 282
h-398zM572 879h-8l-151 -441h309z" />
    <glyph glyph-name="Abrevehookabove.sc" horiz-adv-x="1146" 
d="M269 0h-205l394 1083h232l393 -1083h-220l-97 282h-398zM572 879h-8l-151 -441h309zM859 1426c0 -122 -87 -232 -285 -232c-194 0 -291 108 -291 233h128c0 -63 57 -119 163 -119s165 56 165 118h120zM401 1585v102c18 6 58 16 104 16c112 0 202 -54 202 -151
c0 -95 -95 -143 -145 -160l-67 84c35 8 82 30 82 65c0 42 -45 54 -86 54s-68 -5 -90 -10z" />
    <glyph glyph-name="Adblgrave.sc" horiz-adv-x="1146" 
d="M269 0h-205l394 1083h232l393 -1083h-220l-97 282h-398zM572 879h-8l-151 -441h309zM361 1252l-290 363h188l244 -363h-142zM691 1252l-290 363h189l244 -363h-143z" />
    <glyph glyph-name="Abrevedotbelow.sc" horiz-adv-x="1146" 
d="M458 -249c0 69 48 118 115 118s116 -49 116 -118s-49 -115 -116 -115s-115 46 -115 115zM269 0h-205l394 1083h232l393 -1083h-220l-97 282h-398zM572 879h-8l-151 -441h309zM306 1509h132c0 -84 50 -164 166 -164s167 80 167 164h130c-1 -138 -90 -289 -297 -289
c-206 0 -298 151 -298 289z" />
    <glyph glyph-name="Amacron.sc" horiz-adv-x="1146" 
d="M269 0h-205l394 1083h232l393 -1083h-220l-97 282h-398zM572 879h-8l-151 -441h309zM867 1258h-581v126h581v-126z" />
    <glyph glyph-name="B.sc" horiz-adv-x="1152" 
d="M176 0v1083h467c199 0 335 -98 335 -266c0 -137 -85 -213 -194 -238v-9c148 -14 255 -106 255 -264c0 -200 -173 -306 -402 -306h-461zM379 926v-295h158c159 0 238 51 238 150c0 97 -74 145 -177 145h-219zM379 484v-326h178c162 0 274 38 274 160
c0 108 -85 166 -217 166h-235z" />
    <glyph glyph-name="Bdotbelow.sc" horiz-adv-x="1152" 
d="M427 -249c0 69 48 118 115 118s116 -49 116 -118s-49 -115 -116 -115s-115 46 -115 115zM176 0v1083h467c199 0 335 -98 335 -266c0 -137 -85 -213 -194 -238v-9c148 -14 255 -106 255 -264c0 -200 -173 -306 -402 -306h-461zM379 926v-295h158c159 0 238 51 238 150
c0 97 -74 145 -177 145h-219zM379 484v-326h178c162 0 274 38 274 160c0 108 -85 166 -217 166h-235z" />
    <glyph glyph-name="Blinebelow.sc" horiz-adv-x="1152" 
d="M840 -319h-581v126h581v-126zM176 0v1083h467c199 0 335 -98 335 -266c0 -137 -85 -213 -194 -238v-9c148 -14 255 -106 255 -264c0 -200 -173 -306 -402 -306h-461zM379 926v-295h158c159 0 238 51 238 150c0 97 -74 145 -177 145h-219zM379 484v-326h178
c162 0 274 38 274 160c0 108 -85 166 -217 166h-235z" />
    <glyph glyph-name="Bdotaccent.sc" horiz-adv-x="1152" 
d="M434 1320c0 66 44 114 108 114s112 -48 112 -114c0 -67 -48 -112 -112 -112s-108 45 -108 112zM176 0v1083h467c199 0 335 -98 335 -266c0 -137 -85 -213 -194 -238v-9c148 -14 255 -106 255 -264c0 -200 -173 -306 -402 -306h-461zM379 926v-295h158
c159 0 238 51 238 150c0 97 -74 145 -177 145h-219zM379 484v-326h178c162 0 274 38 274 160c0 108 -85 166 -217 166h-235z" />
    <glyph glyph-name="C.sc" horiz-adv-x="1171" 
d="M336 607v-136c0 -213 107 -315 271 -315c160 0 243 95 243 209h198v-19c0 -186 -152 -367 -446 -367s-473 179 -473 492v137c0 310 181 496 474 496c285 0 445 -178 445 -380v-19h-198c0 113 -85 222 -246 222c-160 0 -268 -108 -268 -320z" />
    <glyph glyph-name="Cacute.sc" horiz-adv-x="1171" 
d="M548 1255l239 354h192l-279 -354h-152zM336 607v-136c0 -213 107 -315 271 -315c160 0 243 95 243 209h198v-19c0 -186 -152 -367 -446 -367s-473 179 -473 492v137c0 310 181 496 474 496c285 0 445 -178 445 -380v-19h-198c0 113 -85 222 -246 222
c-160 0 -268 -108 -268 -320z" />
    <glyph glyph-name="Ccaron.sc" horiz-adv-x="1171" 
d="M283 1586h166l149 -245h6l141 245h166l-239 -368h-138zM336 607v-136c0 -213 107 -315 271 -315c160 0 243 95 243 209h198v-19c0 -186 -152 -367 -446 -367s-473 179 -473 492v137c0 310 181 496 474 496c285 0 445 -178 445 -380v-19h-198c0 113 -85 222 -246 222
c-160 0 -268 -108 -268 -320z" />
    <glyph glyph-name="Cdotaccent.sc" horiz-adv-x="1171" 
d="M492 1320c0 66 44 114 108 114s112 -48 112 -114c0 -67 -48 -112 -112 -112s-108 45 -108 112zM336 607v-136c0 -213 107 -315 271 -315c160 0 243 95 243 209h198v-19c0 -186 -152 -367 -446 -367s-473 179 -473 492v137c0 310 181 496 474 496c285 0 445 -178 445 -380
v-19h-198c0 113 -85 222 -246 222c-160 0 -268 -108 -268 -320z" />
    <glyph glyph-name="Ccircumflex.sc" horiz-adv-x="1171" 
d="M279 1252l251 368h138l240 -368h-167l-141 238h-5l-150 -238h-166zM336 607v-136c0 -213 107 -315 271 -315c160 0 243 95 243 209h198v-19c0 -186 -152 -367 -446 -367s-473 179 -473 492v137c0 310 181 496 474 496c285 0 445 -178 445 -380v-19h-198
c0 113 -85 222 -246 222c-160 0 -268 -108 -268 -320z" />
    <glyph glyph-name="Ccedilla.sc" horiz-adv-x="1171" 
d="M614 -485c-62 -2 -121 8 -149 16v113c27 -8 82 -14 115 -14c54 0 115 15 115 71c0 61 -67 64 -142 64h-54v89l49 127c-262 22 -419 197 -419 490v137c0 310 181 496 474 496c285 0 445 -178 445 -380v-19h-198c0 113 -85 222 -246 222c-160 0 -268 -108 -268 -320v-136
c0 -213 107 -315 271 -315c160 0 243 95 243 209h198v-19c0 -167 -124 -333 -368 -362l-43 -113c124 0 207 -56 207 -164c0 -131 -101 -187 -230 -192z" />
    <glyph glyph-name="Ccedillaacute.sc" horiz-adv-x="1171" 
d="M614 -485c-62 -2 -121 8 -149 16v113c27 -8 82 -14 115 -14c54 0 115 15 115 71c0 61 -67 64 -142 64h-54v89l49 127c-262 22 -419 197 -419 490v137c0 310 181 496 474 496c285 0 445 -178 445 -380v-19h-198c0 113 -85 222 -246 222c-160 0 -268 -108 -268 -320v-136
c0 -213 107 -315 271 -315c160 0 243 95 243 209h198v-19c0 -167 -124 -333 -368 -362l-43 -113c124 0 207 -56 207 -164c0 -131 -101 -187 -230 -192zM548 1255l239 354h192l-279 -354h-152z" />
    <glyph glyph-name="D.sc" horiz-adv-x="1211" 
d="M176 1083h406c372 0 513 -221 513 -539c0 -316 -138 -544 -513 -544h-406v1083zM381 912v-741h177c214 0 328 102 328 369c0 215 -83 372 -328 372h-177z" />
    <glyph glyph-name="Dcroat.sc" horiz-adv-x="1282" 
d="M654 0h-406v460h-139v181h139v442h406c372 0 513 -221 513 -539c0 -316 -138 -544 -513 -544zM452 175h177c214 0 329 102 329 368c0 216 -84 373 -329 373h-177v-275h224v-181h-224v-285z" />
    <glyph glyph-name="Ddotaccent.sc" horiz-adv-x="1211" 
d="M176 1083h406c372 0 513 -221 513 -539c0 -316 -138 -544 -513 -544h-406v1083zM381 912v-741h177c214 0 328 102 328 369c0 215 -83 372 -328 372h-177zM440 1320c0 66 44 114 108 114s112 -48 112 -114c0 -67 -48 -112 -112 -112s-108 45 -108 112z" />
    <glyph glyph-name="Dcircumflexbelow.sc" horiz-adv-x="1211" 
d="M176 1083h406c372 0 513 -221 513 -539c0 -316 -138 -544 -513 -544h-406v1083zM381 912v-741h177c214 0 328 102 328 369c0 215 -83 372 -328 372h-177zM205 -373l277 253h137l266 -253h-188l-146 140h-7l-157 -140h-182z" />
    <glyph glyph-name="Dcommaaccent.sc" horiz-adv-x="1211" 
d="M176 1083h406c372 0 513 -221 513 -539c0 -316 -138 -544 -513 -544h-406v1083zM381 912v-741h177c214 0 328 102 328 369c0 215 -83 372 -328 372h-177zM538 -472h-143l82 316h168z" />
    <glyph glyph-name="Dlinebelow.sc" horiz-adv-x="1211" 
d="M176 1083h406c372 0 513 -221 513 -539c0 -316 -138 -544 -513 -544h-406v1083zM381 912v-741h177c214 0 328 102 328 369c0 215 -83 372 -328 372h-177zM846 -319h-581v126h581v-126z" />
    <glyph glyph-name="Dcaron.sc" horiz-adv-x="1211" 
d="M176 1083h406c372 0 513 -221 513 -539c0 -316 -138 -544 -513 -544h-406v1083zM381 912v-741h177c214 0 328 102 328 369c0 215 -83 372 -328 372h-177zM231 1586h166l149 -245h6l141 245h166l-239 -368h-138z" />
    <glyph glyph-name="Ddotbelow.sc" horiz-adv-x="1211" 
d="M176 1083h406c372 0 513 -221 513 -539c0 -316 -138 -544 -513 -544h-406v1083zM381 912v-741h177c214 0 328 102 328 369c0 215 -83 372 -328 372h-177zM433 -249c0 69 48 118 115 118s116 -49 116 -118s-49 -115 -116 -115s-115 46 -115 115z" />
    <glyph glyph-name="E.sc" horiz-adv-x="1042" 
d="M904 171v-171h-728v1083h728v-172h-525v-282h494v-161h-494v-297h525z" />
    <glyph glyph-name="Eacute.sc" horiz-adv-x="1042" 
d="M486 1255l239 354h192l-279 -354h-152zM904 171v-171h-728v1083h728v-172h-525v-282h494v-161h-494v-297h525z" />
    <glyph glyph-name="Ecircumflex.sc" horiz-adv-x="1042" 
d="M217 1252l251 368h138l240 -368h-167l-141 238h-5l-150 -238h-166zM904 171v-171h-728v1083h728v-172h-525v-282h494v-161h-494v-297h525z" />
    <glyph glyph-name="Edieresis.sc" horiz-adv-x="1042" 
d="M238 1336c0 66 49 113 115 113s116 -47 116 -113c0 -64 -50 -112 -116 -112c-65 0 -115 48 -115 112zM614 1336c0 66 50 113 112 113c69 0 119 -47 119 -113c0 -64 -50 -112 -119 -112c-62 0 -112 48 -112 112zM904 171v-171h-728v1083h728v-172h-525v-282h494v-161h-494
v-297h525z" />
    <glyph glyph-name="Egrave.sc" horiz-adv-x="1042" 
d="M639 1255h-151l-279 354h192zM904 171v-171h-728v1083h728v-172h-525v-282h494v-161h-494v-297h525z" />
    <glyph glyph-name="Edotbelow.sc" horiz-adv-x="1042" 
d="M423 -249c0 69 48 118 115 118s116 -49 116 -118s-49 -115 -116 -115s-115 46 -115 115zM904 171v-171h-728v1083h728v-172h-525v-282h494v-161h-494v-297h525z" />
    <glyph glyph-name="Einvertedbreve.sc" horiz-adv-x="1042" 
d="M904 171v-171h-728v1083h728v-172h-525v-282h494v-161h-494v-297h525zM240 1252c1 139 91 289 298 289s298 -151 297 -289h-131c0 84 -50 164 -166 164s-166 -80 -166 -164h-132z" />
    <glyph glyph-name="Ecircumflexhookabove.sc" horiz-adv-x="1042" 
d="M181 1222l272 224h179l260 -224h-193l-155 127h-8l-157 -127h-198zM708 1586v101c19 5 59 9 91 9c115 0 188 -53 188 -149c0 -75 -55 -131 -114 -165l-67 73c30 21 53 43 53 74c0 40 -37 62 -87 62c-18 0 -43 -1 -64 -5zM904 171v-171h-728v1083h728v-172h-525v-282h494
v-161h-494v-297h525z" />
    <glyph glyph-name="Ecircumflexgrave.sc" horiz-adv-x="1042" 
d="M996 1418h-144l-262 248h192zM181 1222l272 224h179l260 -224h-193l-155 127h-8l-157 -127h-198zM904 171v-171h-728v1083h728v-172h-525v-282h494v-161h-494v-297h525z" />
    <glyph glyph-name="Ecircumflextilde.sc" horiz-adv-x="1042" 
d="M530 1544c-25 23 -52 51 -90 51c-58 0 -68 -53 -71 -95h-128c0 100 59 208 190 208c67 0 109 -24 158 -67c29 -26 52 -51 88 -51c51 0 70 61 74 104h128c0 -113 -74 -211 -190 -211c-84 0 -122 27 -159 61zM181 1217l272 217h179l260 -217h-193l-155 125h-8l-157 -125
h-198zM904 171v-171h-728v1083h728v-172h-525v-282h494v-161h-494v-297h525z" />
    <glyph glyph-name="Eogonek.sc" horiz-adv-x="1042" 
d="M965 -367c-18 -9 -73 -21 -125 -21c-123 0 -224 68 -224 193c0 94 62 160 108 190v5h-548v1083h728v-172h-525v-282h494v-161h-494v-297h525v-151c-87 -47 -131 -108 -131 -165c0 -63 49 -96 109 -96c20 0 58 3 83 9v-135z" />
    <glyph glyph-name="Ehookabove.sc" horiz-adv-x="1042" 
d="M396 1473v112c25 10 63 18 110 18c130 0 219 -67 219 -185c0 -108 -75 -162 -160 -208l-69 90c71 40 97 69 97 109c0 47 -43 78 -102 78c-38 0 -73 -7 -95 -14zM904 171v-171h-728v1083h728v-172h-525v-282h494v-161h-494v-297h525z" />
    <glyph glyph-name="Ecircumflexdotbelow.sc" horiz-adv-x="1042" 
d="M217 1252l251 368h138l240 -368h-167l-141 238h-5l-150 -238h-166zM904 171v-171h-728v1083h728v-172h-525v-282h494v-161h-494v-297h525zM423 -249c0 69 48 118 115 118s116 -49 116 -118s-49 -115 -116 -115s-115 46 -115 115z" />
    <glyph glyph-name="Ecaron.sc" horiz-adv-x="1042" 
d="M221 1586h166l149 -245h6l141 245h166l-239 -368h-138zM904 171v-171h-728v1083h728v-172h-525v-282h494v-161h-494v-297h525z" />
    <glyph glyph-name="Emacrongrave.sc" horiz-adv-x="1042" 
d="M639 1523h-151l-279 354h192zM831 1258h-581v126h581v-126zM904 171v-171h-728v1083h728v-172h-525v-282h494v-161h-494v-297h525z" />
    <glyph glyph-name="Etilde.sc" horiz-adv-x="1042" 
d="M512 1266c-19 27 -42 60 -86 60c-54 0 -67 -64 -70 -119h-127c0 141 69 261 190 261c65 0 109 -20 153 -80c24 -33 40 -69 85 -69c47 0 68 75 71 132h127c0 -135 -82 -263 -189 -263c-77 0 -119 27 -154 78zM904 171v-171h-728v1083h728v-172h-525v-282h494v-161h-494
v-297h525z" />
    <glyph glyph-name="Ecircumflexacute.sc" horiz-adv-x="1042" 
d="M181 1222l272 224h179l260 -224h-193l-155 127h-8l-157 -127h-198zM741 1451l192 215h194l-306 -279zM904 171v-171h-728v1083h728v-172h-525v-282h494v-161h-494v-297h525z" />
    <glyph glyph-name="Ecedilla.sc" horiz-adv-x="1042" 
d="M469 0h-293v1083h728v-172h-525v-282h494v-161h-494v-297h525v-171h-304l-49 -129c124 0 207 -56 207 -164c0 -131 -101 -187 -229 -192c-63 -2 -122 8 -149 16v113c27 -8 81 -14 114 -14c54 0 116 15 116 71c0 61 -67 64 -143 64h-53v89z" />
    <glyph glyph-name="Ecedillabreve.sc" horiz-adv-x="1042" 
d="M469 0h-293v1083h728v-172h-525v-282h494v-161h-494v-297h525v-171h-304l-49 -129c124 0 207 -56 207 -164c0 -131 -101 -187 -229 -192c-63 -2 -122 8 -149 16v113c27 -8 81 -14 114 -14c54 0 116 15 116 71c0 61 -67 64 -143 64h-53v89zM270 1509h132
c0 -84 50 -164 166 -164s167 80 167 164h130c-1 -138 -90 -289 -297 -289c-206 0 -298 151 -298 289z" />
    <glyph glyph-name="Ecircumflexbelow.sc" horiz-adv-x="1042" 
d="M904 171v-171h-728v1083h728v-172h-525v-282h494v-161h-494v-297h525zM195 -373l277 253h137l266 -253h-188l-146 140h-7l-157 -140h-182z" />
    <glyph glyph-name="Emacronacute.sc" horiz-adv-x="1042" 
d="M486 1526l239 354h192l-279 -354h-152zM831 1258h-581v126h581v-126zM904 171v-171h-728v1083h728v-172h-525v-282h494v-161h-494v-297h525z" />
    <glyph glyph-name="Emacron.sc" horiz-adv-x="1042" 
d="M831 1258h-581v126h581v-126zM904 171v-171h-728v1083h728v-172h-525v-282h494v-161h-494v-297h525z" />
    <glyph glyph-name="Edblgrave.sc" horiz-adv-x="1042" 
d="M325 1252l-290 363h188l244 -363h-142zM655 1252l-290 363h189l244 -363h-143zM904 171v-171h-728v1083h728v-172h-525v-282h494v-161h-494v-297h525z" />
    <glyph glyph-name="Ebreve.sc" horiz-adv-x="1042" 
d="M270 1509h132c0 -84 50 -164 166 -164s167 80 167 164h130c-1 -138 -90 -289 -297 -289c-206 0 -298 151 -298 289zM904 171v-171h-728v1083h728v-172h-525v-282h494v-161h-494v-297h525z" />
    <glyph glyph-name="Etildebelow.sc" horiz-adv-x="1042" 
d="M511 -315c-24 24 -49 54 -86 54c-57 0 -66 -54 -69 -98h-126c0 108 56 218 185 218c66 0 109 -27 156 -70c29 -28 48 -55 85 -55c49 0 68 64 72 109h125c0 -110 -71 -222 -186 -222c-81 0 -119 29 -156 64zM904 171v-171h-728v1083h728v-172h-525v-282h494v-161h-494
v-297h525z" />
    <glyph glyph-name="Edotaccent.sc" horiz-adv-x="1042" 
d="M430 1320c0 66 44 114 108 114s112 -48 112 -114c0 -67 -48 -112 -112 -112s-108 45 -108 112zM904 171v-171h-728v1083h728v-172h-525v-282h494v-161h-494v-297h525z" />
    <glyph glyph-name="F.sc" horiz-adv-x="991" 
d="M381 0h-205v1083h720v-173h-515v-307h470v-169h-470v-434z" />
    <glyph glyph-name="Fdotaccent.sc" horiz-adv-x="991" 
d="M381 0h-205v1083h720v-173h-515v-307h470v-169h-470v-434zM412 1320c0 66 44 114 108 114s112 -48 112 -114c0 -67 -48 -112 -112 -112s-108 45 -108 112z" />
    <glyph glyph-name="G.sc" horiz-adv-x="1192" 
d="M1060 737h-200c-17 124 -122 191 -250 191c-155 0 -275 -97 -275 -316v-136c0 -190 85 -321 275 -321c154 0 257 87 257 199v70h-256v158h451v-216c0 -168 -115 -387 -453 -387c-328 0 -480 208 -480 497v138c0 300 185 490 484 490c290 0 437 -179 447 -367z" />
    <glyph glyph-name="Gbreve.sc" horiz-adv-x="1192" 
d="M1060 737h-200c-17 124 -122 191 -250 191c-155 0 -275 -97 -275 -316v-136c0 -190 85 -321 275 -321c154 0 257 87 257 199v70h-256v158h451v-216c0 -168 -115 -387 -453 -387c-328 0 -480 208 -480 497v138c0 300 185 490 484 490c290 0 437 -179 447 -367zM342 1509
h132c0 -84 50 -164 166 -164s167 80 167 164h130c-1 -138 -90 -289 -297 -289c-206 0 -298 151 -298 289z" />
    <glyph glyph-name="Gcaron.sc" horiz-adv-x="1192" 
d="M1060 737h-200c-17 124 -122 191 -250 191c-155 0 -275 -97 -275 -316v-136c0 -190 85 -321 275 -321c154 0 257 87 257 199v70h-256v158h451v-216c0 -168 -115 -387 -453 -387c-328 0 -480 208 -480 497v138c0 300 185 490 484 490c290 0 437 -179 447 -367zM293 1586
h166l149 -245h6l141 245h166l-239 -368h-138z" />
    <glyph glyph-name="Gmacron.sc" horiz-adv-x="1192" 
d="M1060 737h-200c-17 124 -122 191 -250 191c-155 0 -275 -97 -275 -316v-136c0 -190 85 -321 275 -321c154 0 257 87 257 199v70h-256v158h451v-216c0 -168 -115 -387 -453 -387c-328 0 -480 208 -480 497v138c0 300 185 490 484 490c290 0 437 -179 447 -367zM903 1258
h-581v126h581v-126z" />
    <glyph glyph-name="Gcircumflex.sc" horiz-adv-x="1192" 
d="M1060 737h-200c-17 124 -122 191 -250 191c-155 0 -275 -97 -275 -316v-136c0 -190 85 -321 275 -321c154 0 257 87 257 199v70h-256v158h451v-216c0 -168 -115 -387 -453 -387c-328 0 -480 208 -480 497v138c0 300 185 490 484 490c290 0 437 -179 447 -367zM289 1252
l251 368h138l240 -368h-167l-141 238h-5l-150 -238h-166z" />
    <glyph glyph-name="Gacute.sc" horiz-adv-x="1192" 
d="M1060 737h-200c-17 124 -122 191 -250 191c-155 0 -275 -97 -275 -316v-136c0 -190 85 -321 275 -321c154 0 257 87 257 199v70h-256v158h451v-216c0 -168 -115 -387 -453 -387c-328 0 -480 208 -480 497v138c0 300 185 490 484 490c290 0 437 -179 447 -367zM558 1255
l239 354h192l-279 -354h-152z" />
    <glyph glyph-name="Gdotaccent.sc" horiz-adv-x="1192" 
d="M1060 737h-200c-17 124 -122 191 -250 191c-155 0 -275 -97 -275 -316v-136c0 -190 85 -321 275 -321c154 0 257 87 257 199v70h-256v158h451v-216c0 -168 -115 -387 -453 -387c-328 0 -480 208 -480 497v138c0 300 185 490 484 490c290 0 437 -179 447 -367zM502 1320
c0 66 44 114 108 114s112 -48 112 -114c0 -67 -48 -112 -112 -112s-108 45 -108 112z" />
    <glyph glyph-name="Gcommaaccent.sc" horiz-adv-x="1192" 
d="M1060 737h-200c-17 124 -122 191 -250 191c-155 0 -275 -97 -275 -316v-136c0 -190 85 -321 275 -321c154 0 257 87 257 199v70h-256v158h451v-216c0 -168 -115 -387 -453 -387c-328 0 -480 208 -480 497v138c0 300 185 490 484 490c290 0 437 -179 447 -367zM595 -472
h-143l82 316h168z" />
    <glyph glyph-name="H.sc" horiz-adv-x="1274" 
d="M1098 0h-205v467h-512v-467h-205v1083h205v-442h512v442h205v-1083z" />
    <glyph glyph-name="Hcircumflex.sc" horiz-adv-x="1274" 
d="M316 1252l251 368h138l240 -368h-167l-141 238h-5l-150 -238h-166zM1098 0h-205v467h-512v-467h-205v1083h205v-442h512v442h205v-1083z" />
    <glyph glyph-name="Hdotaccent.sc" horiz-adv-x="1274" 
d="M529 1320c0 66 44 114 108 114s112 -48 112 -114c0 -67 -48 -112 -112 -112s-108 45 -108 112zM1098 0h-205v467h-512v-467h-205v1083h205v-442h512v442h205v-1083z" />
    <glyph glyph-name="Hdieresis.sc" horiz-adv-x="1274" 
d="M1098 0h-205v467h-512v-467h-205v1083h205v-442h512v442h205v-1083zM337 1336c0 66 49 113 115 113s116 -47 116 -113c0 -64 -50 -112 -116 -112c-65 0 -115 48 -115 112zM713 1336c0 66 50 113 112 113c69 0 119 -47 119 -113c0 -64 -50 -112 -119 -112
c-62 0 -112 48 -112 112z" />
    <glyph glyph-name="Hcaron.sc" horiz-adv-x="1274" 
d="M320 1586h166l149 -245h6l141 245h166l-239 -368h-138zM1098 0h-205v467h-512v-467h-205v1083h205v-442h512v442h205v-1083z" />
    <glyph glyph-name="Hdotbelow.sc" horiz-adv-x="1274" 
d="M522 -249c0 69 48 118 115 118s116 -49 116 -118s-49 -115 -116 -115s-115 46 -115 115zM1098 0h-205v467h-512v-467h-205v1083h205v-442h512v442h205v-1083z" />
    <glyph glyph-name="Hcedilla.sc" horiz-adv-x="1274" 
d="M249 0h-73v1083h205v-442h512v442h205v-1083h-205v467h-512v-467l-53 -137c124 0 207 -56 207 -164c0 -130 -101 -187 -229 -191c-63 -2 -122 7 -150 15v113c27 -8 82 -13 115 -13c54 0 116 14 116 70c0 61 -67 65 -143 65h-53v89z" />
    <glyph glyph-name="Hbrevebelow.sc" horiz-adv-x="1274" 
d="M324 -135c0 -143 95 -290 313 -290s305 150 305 290h-131c0 -84 -55 -164 -174 -164s-174 80 -174 164h-139zM1098 0h-205v467h-512v-467h-205v1083h205v-442h512v442h205v-1083z" />
    <glyph glyph-name="Hbar.sc" horiz-adv-x="1274" 
d="M381 626h512v164h-512v-164zM381 453v-453h-205v790h-84v133h84v160h205v-160h512v160h205v-160h83v-133h-83v-790h-205v453h-512z" />
    <glyph glyph-name="I.sc" horiz-adv-x="556" 
d="M381 0h-205v1083h205v-1083z" />
    <glyph glyph-name="Iacute.sc" horiz-adv-x="556" 
d="M227 1255l239 354h192l-279 -354h-152zM381 0h-205v1083h205v-1083z" />
    <glyph glyph-name="Icircumflex.sc" horiz-adv-x="556" 
d="M-42 1252l251 368h138l240 -368h-167l-141 238h-5l-150 -238h-166zM381 0h-205v1083h205v-1083z" />
    <glyph glyph-name="Idieresis.sc" horiz-adv-x="556" 
d="M381 0h-205v1083h205v-1083zM-21 1336c0 66 49 113 115 113s116 -47 116 -113c0 -64 -50 -112 -116 -112c-65 0 -115 48 -115 112zM355 1336c0 66 50 113 112 113c69 0 119 -47 119 -113c0 -64 -50 -112 -119 -112c-62 0 -112 48 -112 112z" />
    <glyph glyph-name="Igrave.sc" horiz-adv-x="556" 
d="M380 1255h-151l-279 354h192zM381 0h-205v1083h205v-1083z" />
    <glyph glyph-name="Idotaccent.sc" horiz-adv-x="556" 
d="M171 1320c0 66 44 114 108 114s112 -48 112 -114c0 -67 -48 -112 -112 -112s-108 45 -108 112zM381 0h-205v1083h205v-1083z" />
    <glyph glyph-name="Icaron.sc" horiz-adv-x="556" 
d="M-38 1586h166l149 -245h6l141 245h166l-239 -368h-138zM381 0h-205v1083h205v-1083z" />
    <glyph glyph-name="Ibreve.sc" horiz-adv-x="556" 
d="M381 0h-205v1083h205v-1083zM11 1509h132c0 -84 50 -164 166 -164s167 80 167 164h130c-1 -138 -90 -289 -297 -289c-206 0 -298 151 -298 289z" />
    <glyph glyph-name="Idieresisacute.sc" horiz-adv-x="556" 
d="M227 1526l239 354h192l-279 -354h-152zM381 0h-205v1083h205v-1083zM-21 1336c0 66 49 113 115 113s116 -47 116 -113c0 -64 -50 -112 -116 -112c-65 0 -115 48 -115 112zM355 1336c0 66 50 113 112 113c69 0 119 -47 119 -113c0 -64 -50 -112 -119 -112
c-62 0 -112 48 -112 112z" />
    <glyph glyph-name="Iogonek.sc" horiz-adv-x="556" 
d="M448 -365c-5 -7 -70 -22 -130 -22c-139 0 -220 84 -220 195c0 88 52 153 92 188v4h-14v1083h205v-1063c-83 -51 -123 -116 -123 -171c0 -57 46 -90 108 -90c20 0 58 4 82 9v-133z" />
    <glyph glyph-name="Idotbelow.sc" horiz-adv-x="556" 
d="M163 -249c0 69 48 118 115 118s116 -49 116 -118s-49 -115 -116 -115s-115 46 -115 115zM381 0h-205v1083h205v-1083z" />
    <glyph glyph-name="Iinvertedbreve.sc" horiz-adv-x="556" 
d="M381 0h-205v1083h205v-1083zM-19 1252c1 139 91 289 298 289s298 -151 297 -289h-131c0 84 -50 164 -166 164s-166 -80 -166 -164h-132z" />
    <glyph glyph-name="Idblgrave.sc" horiz-adv-x="556" 
d="M381 0h-205v1083h205v-1083zM66 1252l-290 363h188l244 -363h-142zM396 1252l-290 363h189l244 -363h-143z" />
    <glyph glyph-name="Imacron.sc" horiz-adv-x="556" 
d="M381 0h-205v1083h205v-1083zM572 1258h-581v126h581v-126z" />
    <glyph glyph-name="Itildebelow.sc" horiz-adv-x="556" 
d="M251 -315c-24 24 -49 54 -86 54c-57 0 -66 -54 -69 -98h-126c0 108 56 218 185 218c66 0 109 -27 156 -70c29 -28 48 -55 85 -55c49 0 68 64 72 109h125c0 -110 -71 -222 -186 -222c-81 0 -119 29 -156 64zM381 0h-205v1083h205v-1083z" />
    <glyph glyph-name="Ihookabove.sc" horiz-adv-x="556" 
d="M381 0h-205v1083h205v-1083zM137 1473v112c25 10 63 18 110 18c130 0 219 -67 219 -185c0 -108 -75 -162 -160 -208l-69 90c71 40 97 69 97 109c0 47 -43 78 -102 78c-38 0 -73 -7 -95 -14z" />
    <glyph glyph-name="Itilde.sc" horiz-adv-x="556" 
d="M381 0h-205v1083h205v-1083zM253 1266c-19 27 -42 60 -86 60c-54 0 -67 -64 -70 -119h-127c0 141 69 261 190 261c65 0 109 -20 153 -80c24 -33 40 -69 85 -69c47 0 68 75 71 132h127c0 -135 -82 -263 -189 -263c-77 0 -119 27 -154 78z" />
    <glyph glyph-name="J.sc" horiz-adv-x="971" 
d="M69 304h198c3 -87 73 -139 160 -139c104 0 170 52 170 171v747h205v-740c0 -246 -150 -364 -374 -364c-232 0 -359 148 -359 325z" />
    <glyph glyph-name="Jcircumflex.sc" horiz-adv-x="971" 
d="M380 1252l251 368h138l240 -368h-167l-141 238h-5l-150 -238h-166zM69 304h198c3 -87 73 -139 160 -139c104 0 170 52 170 171v747h205v-740c0 -246 -150 -364 -374 -364c-232 0 -359 148 -359 325z" />
    <glyph glyph-name="K.sc" horiz-adv-x="1142" 
d="M1074 1083l-417 -466l436 -617h-249l-339 477l-124 -127v-350h-205v1083h205v-488h9l455 488h229z" />
    <glyph glyph-name="Kcaron.sc" horiz-adv-x="1142" 
d="M253 1586h166l149 -245h6l141 245h166l-239 -368h-138zM1074 1083l-417 -466l436 -617h-249l-339 477l-124 -127v-350h-205v1083h205v-488h9l455 488h229z" />
    <glyph glyph-name="Kdotbelow.sc" horiz-adv-x="1142" 
d="M456 -249c0 69 48 118 115 118s116 -49 116 -118s-49 -115 -116 -115s-115 46 -115 115zM1074 1083l-417 -466l436 -617h-249l-339 477l-124 -127v-350h-205v1083h205v-488h9l455 488h229z" />
    <glyph glyph-name="Kacute.sc" horiz-adv-x="1142" 
d="M518 1255l239 354h192l-279 -354h-152zM1074 1083l-417 -466l436 -617h-249l-339 477l-124 -127v-350h-205v1083h205v-488h9l455 488h229z" />
    <glyph glyph-name="Klinebelow.sc" horiz-adv-x="1142" 
d="M869 -319h-581v126h581v-126zM1074 1083l-417 -466l436 -617h-249l-339 477l-124 -127v-350h-205v1083h205v-488h9l455 488h229z" />
    <glyph glyph-name="Kcommaaccent.sc" horiz-adv-x="1142" 
d="M561 -472h-143l82 316h168zM1074 1083l-417 -466l436 -617h-249l-339 477l-124 -127v-350h-205v1083h205v-488h9l455 488h229z" />
    <glyph glyph-name="L.sc" horiz-adv-x="950" 
d="M882 178v-178h-706v1083h205v-905h501z" />
    <glyph glyph-name="Lcircumflexbelow.sc" horiz-adv-x="950" 
d="M882 178v-178h-706v1083h205v-905h501zM138 -373l277 253h137l266 -253h-188l-146 140h-7l-157 -140h-182z" />
    <glyph glyph-name="Lcaron.sc" horiz-adv-x="950" 
d="M570 1155h183l-50 -488h-133v488zM882 178v-178h-706v1083h205v-905h501z" />
    <glyph glyph-name="Ldotbelow.sc" horiz-adv-x="950" 
d="M882 178v-178h-706v1083h205v-905h501zM366 -249c0 69 48 118 115 118s116 -49 116 -118s-49 -115 -116 -115s-115 46 -115 115z" />
    <glyph glyph-name="Lacute.sc" horiz-adv-x="950" 
d="M882 178v-178h-706v1083h205v-905h501zM228 1255l239 354h192l-279 -354h-152z" />
    <glyph glyph-name="Ldotbelowmacron.sc" horiz-adv-x="950" 
d="M882 178v-178h-706v1083h205v-905h501zM366 -249c0 69 48 118 115 118s116 -49 116 -118s-49 -115 -116 -115s-115 46 -115 115zM573 1258h-581v126h581v-126z" />
    <glyph glyph-name="Llinebelow.sc" horiz-adv-x="950" 
d="M882 178v-178h-706v1083h205v-905h501zM779 -319h-581v126h581v-126z" />
    <glyph glyph-name="Lslash.sc" horiz-adv-x="968" 
d="M899 0h-706v409l-105 -54v178l105 56v494h204v-377l286 149v-181l-286 -148v-348h502v-178z" />
    <glyph glyph-name="Lcommaaccent.sc" horiz-adv-x="950" 
d="M882 178v-178h-706v1083h205v-905h501zM471 -472h-143l82 316h168z" />
    <glyph glyph-name="M.sc" horiz-adv-x="1465" 
d="M362 0h-183v1083h206l344 -713h7l344 713h206v-1083h-185v726h-10l-288 -594h-142l-289 594h-10v-726z" />
    <glyph glyph-name="Mdotaccent.sc" horiz-adv-x="1465" 
d="M624 1320c0 66 44 114 108 114s112 -48 112 -114c0 -67 -48 -112 -112 -112s-108 45 -108 112zM362 0h-183v1083h206l344 -713h7l344 713h206v-1083h-185v726h-10l-288 -594h-142l-289 594h-10v-726z" />
    <glyph glyph-name="Macute.sc" horiz-adv-x="1465" 
d="M680 1255l239 354h192l-279 -354h-152zM362 0h-183v1083h206l344 -713h7l344 713h206v-1083h-185v726h-10l-288 -594h-142l-289 594h-10v-726z" />
    <glyph glyph-name="Mdotbelow.sc" horiz-adv-x="1465" 
d="M617 -249c0 69 48 118 115 118s116 -49 116 -118s-49 -115 -116 -115s-115 46 -115 115zM362 0h-183v1083h206l344 -713h7l344 713h206v-1083h-185v726h-10l-288 -594h-142l-289 594h-10v-726z" />
    <glyph glyph-name="N.sc" horiz-adv-x="1260" 
d="M371 0h-195v1083h176l528 -729h8v729h196v-1083h-176l-529 733h-8v-733z" />
    <glyph glyph-name="Ntilde.sc" horiz-adv-x="1260" 
d="M371 0h-195v1083h176l528 -729h8v729h196v-1083h-176l-529 733h-8v-733zM604 1266c-19 27 -42 60 -86 60c-54 0 -67 -64 -70 -119h-127c0 141 69 261 190 261c65 0 109 -20 153 -80c24 -33 40 -69 85 -69c47 0 68 75 71 132h127c0 -135 -82 -263 -189 -263
c-77 0 -119 27 -154 78z" />
    <glyph glyph-name="Ndotbelow.sc" horiz-adv-x="1260" 
d="M515 -249c0 69 48 118 115 118s116 -49 116 -118s-49 -115 -116 -115s-115 46 -115 115zM371 0h-195v1083h176l528 -729h8v729h196v-1083h-176l-529 733h-8v-733z" />
    <glyph glyph-name="Ngrave.sc" horiz-adv-x="1260" 
d="M371 0h-195v1083h176l528 -729h8v729h196v-1083h-176l-529 733h-8v-733zM731 1255h-151l-279 354h192z" />
    <glyph glyph-name="Nacute.sc" horiz-adv-x="1260" 
d="M371 0h-195v1083h176l528 -729h8v729h196v-1083h-176l-529 733h-8v-733zM578 1255l239 354h192l-279 -354h-152z" />
    <glyph glyph-name="Ncircumflexbelow.sc" horiz-adv-x="1260" 
d="M371 0h-195v1083h176l528 -729h8v729h196v-1083h-176l-529 733h-8v-733zM287 -373l277 253h137l266 -253h-188l-146 140h-7l-157 -140h-182z" />
    <glyph glyph-name="Ndotaccent.sc" horiz-adv-x="1260" 
d="M371 0h-195v1083h176l528 -729h8v729h196v-1083h-176l-529 733h-8v-733zM522 1320c0 66 44 114 108 114s112 -48 112 -114c0 -67 -48 -112 -112 -112s-108 45 -108 112z" />
    <glyph glyph-name="Ncaron.sc" horiz-adv-x="1260" 
d="M313 1586h166l149 -245h6l141 245h166l-239 -368h-138zM371 0h-195v1083h176l528 -729h8v729h196v-1083h-176l-529 733h-8v-733z" />
    <glyph glyph-name="Nlinebelow.sc" horiz-adv-x="1260" 
d="M371 0h-195v1083h176l528 -729h8v729h196v-1083h-176l-529 733h-8v-733zM928 -319h-581v126h581v-126z" />
    <glyph glyph-name="Ncommaaccent.sc" horiz-adv-x="1260" 
d="M371 0h-195v1083h176l528 -729h8v729h196v-1083h-176l-529 733h-8v-733zM620 -472h-143l82 316h168z" />
    <glyph glyph-name="O.sc" horiz-adv-x="1228" 
d="M336 609v-143c0 -211 117 -312 277 -312c161 0 278 101 278 312v143c0 211 -117 320 -278 320c-160 0 -277 -109 -277 -320zM129 467v140c0 308 186 497 486 497s484 -190 484 -497v-140c0 -305 -186 -488 -486 -488c-301 0 -484 183 -484 488z" />
    <glyph glyph-name="Ohorn.sc" horiz-adv-x="1244" 
d="M1099 467c0 -305 -186 -488 -486 -488c-301 0 -484 183 -484 488v140c0 308 186 497 486 497c161 0 239 -61 345 -61c95 0 114 49 114 112v92h164v-111c0 -139 -80 -227 -222 -227l-3 -4c45 -64 86 -178 86 -298v-140zM336 609v-143c0 -212 117 -313 277 -313
c161 0 279 101 279 313v143c0 211 -118 320 -279 320c-160 0 -277 -109 -277 -320z" />
    <glyph glyph-name="Odieresis.sc" horiz-adv-x="1228" 
d="M336 609v-143c0 -211 117 -312 277 -312c161 0 278 101 278 312v143c0 211 -117 320 -278 320c-160 0 -277 -109 -277 -320zM129 467v140c0 308 186 497 486 497s484 -190 484 -497v-140c0 -305 -186 -488 -486 -488c-301 0 -484 183 -484 488zM315 1336
c0 66 49 113 115 113s116 -47 116 -113c0 -64 -50 -112 -116 -112c-65 0 -115 48 -115 112zM691 1336c0 66 50 113 112 113c69 0 119 -47 119 -113c0 -64 -50 -112 -119 -112c-62 0 -112 48 -112 112z" />
    <glyph glyph-name="Oslash.sc" horiz-adv-x="1228" 
d="M613 -21c-131 0 -240 34 -320 99l-84 -98l-97 77l96 111c-51 78 -79 179 -79 299v140c0 308 186 497 486 497c127 0 235 -34 315 -97l77 89l100 -72l-94 -106c56 -81 86 -186 86 -311v-140c0 -305 -186 -488 -486 -488zM333 465c0 -44 7 -85 19 -117l457 511
c-49 48 -118 74 -196 74c-162 0 -280 -110 -280 -323v-145zM613 149c163 0 282 102 282 316v145c0 48 -9 92 -24 127l-460 -513c50 -50 121 -75 202 -75z" />
    <glyph glyph-name="Otilde.sc" horiz-adv-x="1228" 
d="M336 609v-143c0 -211 117 -312 277 -312c161 0 278 101 278 312v143c0 211 -117 320 -278 320c-160 0 -277 -109 -277 -320zM129 467v140c0 308 186 497 486 497s484 -190 484 -497v-140c0 -305 -186 -488 -486 -488c-301 0 -484 183 -484 488zM589 1266
c-19 27 -42 60 -86 60c-54 0 -67 -64 -70 -119h-127c0 141 69 261 190 261c65 0 109 -20 153 -80c24 -33 40 -69 85 -69c47 0 68 75 71 132h127c0 -135 -82 -263 -189 -263c-77 0 -119 27 -154 78z" />
    <glyph glyph-name="Oacute.sc" horiz-adv-x="1228" 
d="M336 609v-143c0 -211 117 -312 277 -312c161 0 278 101 278 312v143c0 211 -117 320 -278 320c-160 0 -277 -109 -277 -320zM129 467v140c0 308 186 497 486 497s484 -190 484 -497v-140c0 -305 -186 -488 -486 -488c-301 0 -484 183 -484 488zM563 1255l239 354h192
l-279 -354h-152z" />
    <glyph glyph-name="Ocircumflex.sc" horiz-adv-x="1228" 
d="M336 609v-143c0 -211 117 -312 277 -312c161 0 278 101 278 312v143c0 211 -117 320 -278 320c-160 0 -277 -109 -277 -320zM129 467v140c0 308 186 497 486 497s484 -190 484 -497v-140c0 -305 -186 -488 -486 -488c-301 0 -484 183 -484 488zM294 1252l251 368h138
l240 -368h-167l-141 238h-5l-150 -238h-166z" />
    <glyph glyph-name="Ograve.sc" horiz-adv-x="1228" 
d="M336 609v-143c0 -211 117 -312 277 -312c161 0 278 101 278 312v143c0 211 -117 320 -278 320c-160 0 -277 -109 -277 -320zM129 467v140c0 308 186 497 486 497s484 -190 484 -497v-140c0 -305 -186 -488 -486 -488c-301 0 -484 183 -484 488zM716 1255h-151l-279 354
h192z" />
    <glyph glyph-name="Ocircumflexhookabove.sc" horiz-adv-x="1228" 
d="M336 609v-143c0 -211 117 -312 277 -312c161 0 278 101 278 312v143c0 211 -117 320 -278 320c-160 0 -277 -109 -277 -320zM129 467v140c0 308 186 497 486 497s484 -190 484 -497v-140c0 -305 -186 -488 -486 -488c-301 0 -484 183 -484 488zM258 1222l272 224h179
l260 -224h-193l-155 127h-8l-157 -127h-198zM785 1586v101c19 5 59 9 91 9c115 0 188 -53 188 -149c0 -75 -55 -131 -114 -165l-67 73c30 21 53 43 53 74c0 40 -37 62 -87 62c-18 0 -43 -1 -64 -5z" />
    <glyph glyph-name="Ocircumflexgrave.sc" horiz-adv-x="1228" 
d="M336 609v-143c0 -211 117 -312 277 -312c161 0 278 101 278 312v143c0 211 -117 320 -278 320c-160 0 -277 -109 -277 -320zM129 467v140c0 308 186 497 486 497s484 -190 484 -497v-140c0 -305 -186 -488 -486 -488c-301 0 -484 183 -484 488zM1073 1418h-144l-262 248
h192zM258 1222l272 224h179l260 -224h-193l-155 127h-8l-157 -127h-198z" />
    <glyph glyph-name="Ohorndotbelow.sc" horiz-adv-x="1244" 
d="M1099 467c0 -305 -186 -488 -486 -488c-301 0 -484 183 -484 488v140c0 308 186 497 486 497c161 0 239 -61 345 -61c95 0 114 49 114 112v92h164v-111c0 -139 -80 -227 -222 -227l-3 -4c45 -64 86 -178 86 -298v-140zM336 609v-143c0 -212 117 -313 277 -313
c161 0 279 101 279 313v143c0 211 -118 320 -279 320c-160 0 -277 -109 -277 -320zM499 -249c0 69 48 118 115 118s116 -49 116 -118s-49 -115 -116 -115s-115 46 -115 115z" />
    <glyph glyph-name="Ohornhookabove.sc" horiz-adv-x="1244" 
d="M1099 467c0 -305 -186 -488 -486 -488c-301 0 -484 183 -484 488v140c0 308 186 497 486 497c161 0 239 -61 345 -61c95 0 114 49 114 112v92h164v-111c0 -139 -80 -227 -222 -227l-3 -4c45 -64 86 -178 86 -298v-140zM336 609v-143c0 -212 117 -313 277 -313
c161 0 279 101 279 313v143c0 211 -118 320 -279 320c-160 0 -277 -109 -277 -320zM473 1473v112c25 10 63 18 110 18c130 0 219 -67 219 -185c0 -108 -75 -162 -160 -208l-69 90c71 40 97 69 97 109c0 47 -43 78 -102 78c-38 0 -73 -7 -95 -14z" />
    <glyph glyph-name="Odotbelow.sc" horiz-adv-x="1228" 
d="M336 609v-143c0 -211 117 -312 277 -312c161 0 278 101 278 312v143c0 211 -117 320 -278 320c-160 0 -277 -109 -277 -320zM129 467v140c0 308 186 497 486 497s484 -190 484 -497v-140c0 -305 -186 -488 -486 -488c-301 0 -484 183 -484 488zM499 -249
c0 69 48 118 115 118s116 -49 116 -118s-49 -115 -116 -115s-115 46 -115 115z" />
    <glyph glyph-name="Odblgrave.sc" horiz-adv-x="1228" 
d="M336 609v-143c0 -211 117 -312 277 -312c161 0 278 101 278 312v143c0 211 -117 320 -278 320c-160 0 -277 -109 -277 -320zM129 467v140c0 308 186 497 486 497s484 -190 484 -497v-140c0 -305 -186 -488 -486 -488c-301 0 -484 183 -484 488zM402 1252l-290 363h188
l244 -363h-142zM732 1252l-290 363h189l244 -363h-143z" />
    <glyph glyph-name="Otildeacute.sc" horiz-adv-x="1228" 
d="M336 609v-143c0 -211 117 -312 277 -312c161 0 278 101 278 312v143c0 211 -117 320 -278 320c-160 0 -277 -109 -277 -320zM129 467v140c0 308 186 497 486 497s484 -190 484 -497v-140c0 -305 -186 -488 -486 -488c-301 0 -484 183 -484 488zM563 1526l239 354h192
l-279 -354h-152zM589 1266c-19 27 -42 60 -86 60c-54 0 -67 -64 -70 -119h-127c0 141 69 261 190 261c65 0 109 -20 153 -80c24 -33 40 -69 85 -69c47 0 68 75 71 132h127c0 -135 -82 -263 -189 -263c-77 0 -119 27 -154 78z" />
    <glyph glyph-name="Omacronacute.sc" horiz-adv-x="1228" 
d="M336 609v-143c0 -211 117 -312 277 -312c161 0 278 101 278 312v143c0 211 -117 320 -278 320c-160 0 -277 -109 -277 -320zM129 467v140c0 308 186 497 486 497s484 -190 484 -497v-140c0 -305 -186 -488 -486 -488c-301 0 -484 183 -484 488zM563 1526l239 354h192
l-279 -354h-152zM908 1258h-581v126h581v-126z" />
    <glyph glyph-name="Ocircumflextilde.sc" horiz-adv-x="1228" 
d="M336 609v-143c0 -211 117 -312 277 -312c161 0 278 101 278 312v143c0 211 -117 320 -278 320c-160 0 -277 -109 -277 -320zM129 467v140c0 308 186 497 486 497s484 -190 484 -497v-140c0 -305 -186 -488 -486 -488c-301 0 -484 183 -484 488zM607 1544
c-25 23 -52 51 -90 51c-58 0 -68 -53 -71 -95h-128c0 100 59 208 190 208c67 0 109 -24 158 -67c29 -26 52 -51 88 -51c51 0 70 61 74 104h128c0 -113 -74 -211 -190 -211c-84 0 -122 27 -159 61zM258 1217l272 217h179l260 -217h-193l-155 125h-8l-157 -125h-198z" />
    <glyph glyph-name="Odotaccentmacron.sc" horiz-adv-x="1228" 
d="M336 609v-143c0 -211 117 -312 277 -312c161 0 278 101 278 312v143c0 211 -117 320 -278 320c-160 0 -277 -109 -277 -320zM129 467v140c0 308 186 497 486 497s484 -190 484 -497v-140c0 -305 -186 -488 -486 -488c-301 0 -484 183 -484 488zM507 1320
c0 66 44 114 108 114s112 -48 112 -114c0 -67 -48 -112 -112 -112s-108 45 -108 112zM908 1570h-581v126h581v-126z" />
    <glyph glyph-name="Omacrongrave.sc" horiz-adv-x="1228" 
d="M336 609v-143c0 -211 117 -312 277 -312c161 0 278 101 278 312v143c0 211 -117 320 -278 320c-160 0 -277 -109 -277 -320zM129 467v140c0 308 186 497 486 497s484 -190 484 -497v-140c0 -305 -186 -488 -486 -488c-301 0 -484 183 -484 488zM716 1523h-151l-279 354
h192zM908 1258h-581v126h581v-126z" />
    <glyph glyph-name="Ocaron.sc" horiz-adv-x="1228" 
d="M336 609v-143c0 -211 117 -312 277 -312c161 0 278 101 278 312v143c0 211 -117 320 -278 320c-160 0 -277 -109 -277 -320zM129 467v140c0 308 186 497 486 497s484 -190 484 -497v-140c0 -305 -186 -488 -486 -488c-301 0 -484 183 -484 488zM298 1586h166l149 -245h6
l141 245h166l-239 -368h-138z" />
    <glyph glyph-name="Oslashacute.sc" horiz-adv-x="1228" 
d="M562 1255l239 354h192l-279 -354h-152zM613 -21c-131 0 -240 34 -320 99l-84 -98l-97 77l96 111c-51 78 -79 179 -79 299v140c0 308 186 497 486 497c127 0 235 -34 315 -97l77 89l100 -72l-94 -106c56 -81 86 -186 86 -311v-140c0 -305 -186 -488 -486 -488zM333 465
c0 -44 7 -85 19 -117l457 511c-49 48 -118 74 -196 74c-162 0 -280 -110 -280 -323v-145zM613 149c163 0 282 102 282 316v145c0 48 -9 92 -24 127l-460 -513c50 -50 121 -75 202 -75z" />
    <glyph glyph-name="Oogonek.sc" horiz-adv-x="1228" 
d="M1006 -365c-17 -9 -68 -22 -128 -22c-132 0 -222 70 -222 188c0 78 41 139 84 192c-39 -9 -81 -14 -128 -14c-299 0 -483 183 -483 488v140c0 308 186 497 486 497s484 -190 484 -497v-140c0 -169 -54 -270 -115 -345c-76 -94 -170 -160 -170 -263
c0 -72 49 -100 108 -100c21 0 57 4 84 10v-134zM336 609v-143c0 -211 117 -312 277 -312c161 0 278 101 278 312v143c0 211 -117 320 -278 320c-160 0 -277 -109 -277 -320z" />
    <glyph glyph-name="Oogonekmacron.sc" horiz-adv-x="1228" 
d="M1006 -365c-17 -9 -68 -22 -128 -22c-132 0 -222 70 -222 188c0 78 41 139 84 192c-39 -9 -81 -14 -128 -14c-299 0 -483 183 -483 488v140c0 308 186 497 486 497s484 -190 484 -497v-140c0 -169 -54 -270 -115 -345c-76 -94 -170 -160 -170 -263
c0 -72 49 -100 108 -100c21 0 57 4 84 10v-134zM336 609v-143c0 -211 117 -312 277 -312c161 0 278 101 278 312v143c0 211 -117 320 -278 320c-160 0 -277 -109 -277 -320zM908 1258h-581v126h581v-126z" />
    <glyph glyph-name="Obreve.sc" horiz-adv-x="1228" 
d="M336 609v-143c0 -211 117 -312 277 -312c161 0 278 101 278 312v143c0 211 -117 320 -278 320c-160 0 -277 -109 -277 -320zM129 467v140c0 308 186 497 486 497s484 -190 484 -497v-140c0 -305 -186 -488 -486 -488c-301 0 -484 183 -484 488zM347 1509h132
c0 -84 50 -164 166 -164s167 80 167 164h130c-1 -138 -90 -289 -297 -289c-206 0 -298 151 -298 289z" />
    <glyph glyph-name="Oinvertedbreve.sc" horiz-adv-x="1228" 
d="M336 609v-143c0 -211 117 -312 277 -312c161 0 278 101 278 312v143c0 211 -117 320 -278 320c-160 0 -277 -109 -277 -320zM129 467v140c0 308 186 497 486 497s484 -190 484 -497v-140c0 -305 -186 -488 -486 -488c-301 0 -484 183 -484 488zM317 1252
c1 139 91 289 298 289s298 -151 297 -289h-131c0 84 -50 164 -166 164s-166 -80 -166 -164h-132z" />
    <glyph glyph-name="Ohookabove.sc" horiz-adv-x="1228" 
d="M336 609v-143c0 -211 117 -312 277 -312c161 0 278 101 278 312v143c0 211 -117 320 -278 320c-160 0 -277 -109 -277 -320zM129 467v140c0 308 186 497 486 497s484 -190 484 -497v-140c0 -305 -186 -488 -486 -488c-301 0 -484 183 -484 488zM473 1473v112
c25 10 63 18 110 18c130 0 219 -67 219 -185c0 -108 -75 -162 -160 -208l-69 90c71 40 97 69 97 109c0 47 -43 78 -102 78c-38 0 -73 -7 -95 -14z" />
    <glyph glyph-name="Odieresismacron.sc" horiz-adv-x="1228" 
d="M336 609v-143c0 -211 117 -312 277 -312c161 0 278 101 278 312v143c0 211 -117 320 -278 320c-160 0 -277 -109 -277 -320zM129 467v140c0 308 186 497 486 497s484 -190 484 -497v-140c0 -305 -186 -488 -486 -488c-301 0 -484 183 -484 488zM315 1336
c0 66 49 113 115 113s116 -47 116 -113c0 -64 -50 -112 -116 -112c-65 0 -115 48 -115 112zM691 1336c0 66 50 113 112 113c69 0 119 -47 119 -113c0 -64 -50 -112 -119 -112c-62 0 -112 48 -112 112zM908 1570h-581v126h581v-126z" />
    <glyph glyph-name="Otildemacron.sc" horiz-adv-x="1228" 
d="M336 609v-143c0 -211 117 -312 277 -312c161 0 278 101 278 312v143c0 211 -117 320 -278 320c-160 0 -277 -109 -277 -320zM129 467v140c0 308 186 497 486 497s484 -190 484 -497v-140c0 -305 -186 -488 -486 -488c-301 0 -484 183 -484 488zM589 1266
c-19 27 -42 60 -86 60c-54 0 -67 -64 -70 -119h-127c0 141 69 261 190 261c65 0 109 -20 153 -80c24 -33 40 -69 85 -69c47 0 68 75 71 132h127c0 -135 -82 -263 -189 -263c-77 0 -119 27 -154 78zM908 1570h-581v126h581v-126z" />
    <glyph glyph-name="Odotaccent.sc" horiz-adv-x="1228" 
d="M336 609v-143c0 -211 117 -312 277 -312c161 0 278 101 278 312v143c0 211 -117 320 -278 320c-160 0 -277 -109 -277 -320zM129 467v140c0 308 186 497 486 497s484 -190 484 -497v-140c0 -305 -186 -488 -486 -488c-301 0 -484 183 -484 488zM507 1320
c0 66 44 114 108 114s112 -48 112 -114c0 -67 -48 -112 -112 -112s-108 45 -108 112z" />
    <glyph glyph-name="Ocircumflexdotbelow.sc" horiz-adv-x="1228" 
d="M294 1252l251 368h138l240 -368h-167l-141 238h-5l-150 -238h-166zM336 609v-143c0 -211 117 -312 277 -312c161 0 278 101 278 312v143c0 211 -117 320 -278 320c-160 0 -277 -109 -277 -320zM129 467v140c0 308 186 497 486 497s484 -190 484 -497v-140
c0 -305 -186 -488 -486 -488c-301 0 -484 183 -484 488zM499 -249c0 69 48 118 115 118s116 -49 116 -118s-49 -115 -116 -115s-115 46 -115 115z" />
    <glyph glyph-name="Ocircumflexacute.sc" horiz-adv-x="1228" 
d="M336 609v-143c0 -211 117 -312 277 -312c161 0 278 101 278 312v143c0 211 -117 320 -278 320c-160 0 -277 -109 -277 -320zM129 467v140c0 308 186 497 486 497s484 -190 484 -497v-140c0 -305 -186 -488 -486 -488c-301 0 -484 183 -484 488zM258 1222l272 224h179
l260 -224h-193l-155 127h-8l-157 -127h-198zM818 1451l192 215h194l-306 -279z" />
    <glyph glyph-name="Ohorntilde.sc" horiz-adv-x="1244" 
d="M1099 467c0 -305 -186 -488 -486 -488c-301 0 -484 183 -484 488v140c0 308 186 497 486 497c161 0 239 -61 345 -61c95 0 114 49 114 112v92h164v-111c0 -139 -80 -227 -222 -227l-3 -4c45 -64 86 -178 86 -298v-140zM336 609v-143c0 -212 117 -313 277 -313
c161 0 279 101 279 313v143c0 211 -118 320 -279 320c-160 0 -277 -109 -277 -320zM589 1266c-19 27 -42 60 -86 60c-54 0 -67 -64 -70 -119h-127c0 141 69 261 190 261c65 0 109 -20 153 -80c24 -33 40 -69 85 -69c47 0 68 75 71 132h127c0 -135 -82 -263 -189 -263
c-77 0 -119 27 -154 78z" />
    <glyph glyph-name="Otildedieresis.sc" horiz-adv-x="1228" 
d="M336 609v-143c0 -211 117 -312 277 -312c161 0 278 101 278 312v143c0 211 -117 320 -278 320c-160 0 -277 -109 -277 -320zM129 467v140c0 308 186 497 486 497s484 -190 484 -497v-140c0 -305 -186 -488 -486 -488c-301 0 -484 183 -484 488zM589 1266
c-19 27 -42 60 -86 60c-54 0 -67 -64 -70 -119h-127c0 141 69 261 190 261c65 0 109 -20 153 -80c24 -33 40 -69 85 -69c47 0 68 75 71 132h127c0 -135 -82 -263 -189 -263c-77 0 -119 27 -154 78zM315 1625c0 66 49 113 115 113s116 -47 116 -113c0 -64 -50 -112 -116 -112
c-65 0 -115 48 -115 112zM691 1625c0 66 50 113 112 113c69 0 119 -47 119 -113c0 -64 -50 -112 -119 -112c-62 0 -112 48 -112 112z" />
    <glyph glyph-name="Ohorngrave.sc" horiz-adv-x="1244" 
d="M1099 467c0 -305 -186 -488 -486 -488c-301 0 -484 183 -484 488v140c0 308 186 497 486 497c161 0 239 -61 345 -61c95 0 114 49 114 112v92h164v-111c0 -139 -80 -227 -222 -227l-3 -4c45 -64 86 -178 86 -298v-140zM336 609v-143c0 -212 117 -313 277 -313
c161 0 279 101 279 313v143c0 211 -118 320 -279 320c-160 0 -277 -109 -277 -320zM716 1255h-151l-279 354h192z" />
    <glyph glyph-name="Omacron.sc" horiz-adv-x="1228" 
d="M336 609v-143c0 -211 117 -312 277 -312c161 0 278 101 278 312v143c0 211 -117 320 -278 320c-160 0 -277 -109 -277 -320zM129 467v140c0 308 186 497 486 497s484 -190 484 -497v-140c0 -305 -186 -488 -486 -488c-301 0 -484 183 -484 488zM908 1258h-581v126h581
v-126z" />
    <glyph glyph-name="Ohornacute.sc" horiz-adv-x="1244" 
d="M1099 467c0 -305 -186 -488 -486 -488c-301 0 -484 183 -484 488v140c0 308 186 497 486 497c161 0 239 -61 345 -61c95 0 114 49 114 112v92h164v-111c0 -139 -80 -227 -222 -227l-3 -4c45 -64 86 -178 86 -298v-140zM336 609v-143c0 -212 117 -313 277 -313
c161 0 279 101 279 313v143c0 211 -118 320 -279 320c-160 0 -277 -109 -277 -320zM563 1255l239 354h192l-279 -354h-152z" />
    <glyph glyph-name="Ohungarumlaut.sc" horiz-adv-x="1228" 
d="M336 609v-143c0 -211 117 -312 277 -312c161 0 278 101 278 312v143c0 211 -117 320 -278 320c-160 0 -277 -109 -277 -320zM129 467v140c0 308 186 497 486 497s484 -190 484 -497v-140c0 -305 -186 -488 -486 -488c-301 0 -484 183 -484 488zM496 1254h-143l244 362
h189zM829 1254h-142l245 362h188z" />
    <glyph glyph-name="P.sc" horiz-adv-x="1097" 
d="M176 1083h449c240 0 384 -155 384 -355c0 -203 -145 -361 -385 -361h-244v-367h-204v1083zM379 916v-385h151c170 0 270 44 270 193c0 122 -77 192 -208 192h-213z" />
    <glyph glyph-name="Pdotaccent.sc" horiz-adv-x="1097" 
d="M441 1320c0 66 44 114 108 114s112 -48 112 -114c0 -67 -48 -112 -112 -112s-108 45 -108 112zM176 1083h449c240 0 384 -155 384 -355c0 -203 -145 -361 -385 -361h-244v-367h-204v1083zM379 916v-385h151c170 0 270 44 270 193c0 122 -77 192 -208 192h-213z" />
    <glyph glyph-name="Pacute.sc" horiz-adv-x="1097" 
d="M497 1255l239 354h192l-279 -354h-152zM176 1083h449c240 0 384 -155 384 -355c0 -203 -145 -361 -385 -361h-244v-367h-204v1083zM379 916v-385h151c170 0 270 44 270 193c0 122 -77 192 -208 192h-213z" />
    <glyph glyph-name="Q.sc" horiz-adv-x="1231" 
d="M131 472v138c0 305 189 494 484 494s486 -189 486 -494v-138c0 -165 -56 -295 -154 -380l150 -201h-209l-91 117c-53 -18 -115 -29 -182 -29c-295 0 -484 188 -484 493zM332 610v-141c0 -212 117 -317 271 -325c34 0 64 6 93 16l-127 163h194l68 -66c41 44 68 126 68 212
v141c0 213 -122 320 -284 320s-283 -107 -283 -320z" />
    <glyph glyph-name="R.sc" horiz-adv-x="1151" 
d="M624 1083c269 0 394 -152 394 -341c0 -179 -119 -272 -211 -304l233 -438h-230l-205 406h-227v-406h-202v1083h448zM378 563h212c138 0 217 61 217 174c0 121 -87 182 -212 182h-217v-356z" />
    <glyph glyph-name="Rcaron.sc" horiz-adv-x="1151" 
d="M226 1586h166l149 -245h6l141 245h166l-239 -368h-138zM624 1083c269 0 394 -152 394 -341c0 -179 -119 -272 -211 -304l233 -438h-230l-205 406h-227v-406h-202v1083h448zM378 563h212c138 0 217 61 217 174c0 121 -87 182 -212 182h-217v-356z" />
    <glyph glyph-name="Rlinebelow.sc" horiz-adv-x="1151" 
d="M841 -319h-581v126h581v-126zM624 1083c269 0 394 -152 394 -341c0 -179 -119 -272 -211 -304l233 -438h-230l-205 406h-227v-406h-202v1083h448zM378 563h212c138 0 217 61 217 174c0 121 -87 182 -212 182h-217v-356z" />
    <glyph glyph-name="Rdotbelowmacron.sc" horiz-adv-x="1151" 
d="M428 -249c0 69 48 118 115 118s116 -49 116 -118s-49 -115 -116 -115s-115 46 -115 115zM836 1258h-581v126h581v-126zM624 1083c269 0 394 -152 394 -341c0 -179 -119 -272 -211 -304l233 -438h-230l-205 406h-227v-406h-202v1083h448zM378 563h212
c138 0 217 61 217 174c0 121 -87 182 -212 182h-217v-356z" />
    <glyph glyph-name="Rdblgrave.sc" horiz-adv-x="1151" 
d="M624 1083c269 0 394 -152 394 -341c0 -179 -119 -272 -211 -304l233 -438h-230l-205 406h-227v-406h-202v1083h448zM378 563h212c138 0 217 61 217 174c0 121 -87 182 -212 182h-217v-356zM330 1252l-290 363h188l244 -363h-142zM660 1252l-290 363h189l244 -363h-143z
" />
    <glyph glyph-name="Rinvertedbreve.sc" horiz-adv-x="1151" 
d="M624 1083c269 0 394 -152 394 -341c0 -179 -119 -272 -211 -304l233 -438h-230l-205 406h-227v-406h-202v1083h448zM378 563h212c138 0 217 61 217 174c0 121 -87 182 -212 182h-217v-356zM245 1252c1 139 91 289 298 289s298 -151 297 -289h-131c0 84 -50 164 -166 164
s-166 -80 -166 -164h-132z" />
    <glyph glyph-name="Racute.sc" horiz-adv-x="1151" 
d="M491 1255l239 354h192l-279 -354h-152zM624 1083c269 0 394 -152 394 -341c0 -179 -119 -272 -211 -304l233 -438h-230l-205 406h-227v-406h-202v1083h448zM378 563h212c138 0 217 61 217 174c0 121 -87 182 -212 182h-217v-356z" />
    <glyph glyph-name="Rdotbelow.sc" horiz-adv-x="1151" 
d="M428 -249c0 69 48 118 115 118s116 -49 116 -118s-49 -115 -116 -115s-115 46 -115 115zM624 1083c269 0 394 -152 394 -341c0 -179 -119 -272 -211 -304l233 -438h-230l-205 406h-227v-406h-202v1083h448zM378 563h212c138 0 217 61 217 174c0 121 -87 182 -212 182
h-217v-356z" />
    <glyph glyph-name="Rdotaccent.sc" horiz-adv-x="1151" 
d="M435 1320c0 66 44 114 108 114s112 -48 112 -114c0 -67 -48 -112 -112 -112s-108 45 -108 112zM624 1083c269 0 394 -152 394 -341c0 -179 -119 -272 -211 -304l233 -438h-230l-205 406h-227v-406h-202v1083h448zM378 563h212c138 0 217 61 217 174
c0 121 -87 182 -212 182h-217v-356z" />
    <glyph glyph-name="Rcommaaccent.sc" horiz-adv-x="1151" 
d="M533 -472h-143l82 316h168zM624 1083c269 0 394 -152 394 -341c0 -179 -119 -272 -211 -304l233 -438h-230l-205 406h-227v-406h-202v1083h448zM378 563h212c138 0 217 61 217 174c0 121 -87 182 -212 182h-217v-356z" />
    <glyph glyph-name="S.sc" horiz-adv-x="1104" 
d="M99 306h199c8 -85 94 -160 253 -160c145 0 231 61 231 152c0 78 -60 117 -181 143l-186 41c-151 32 -286 116 -286 297c0 210 193 327 422 327c232 0 416 -125 419 -321h-194c-8 82 -82 155 -228 155c-128 0 -214 -54 -214 -145c0 -67 53 -112 160 -133l185 -40
c173 -36 307 -113 307 -305c0 -211 -182 -338 -449 -338c-327 0 -435 178 -438 327z" />
    <glyph glyph-name="Scaron.sc" horiz-adv-x="1104" 
d="M233 1586h166l149 -245h6l141 245h166l-239 -368h-138zM99 306h199c8 -85 94 -160 253 -160c145 0 231 61 231 152c0 78 -60 117 -181 143l-186 41c-151 32 -286 116 -286 297c0 210 193 327 422 327c232 0 416 -125 419 -321h-194c-8 82 -82 155 -228 155
c-128 0 -214 -54 -214 -145c0 -67 53 -112 160 -133l185 -40c173 -36 307 -113 307 -305c0 -211 -182 -338 -449 -338c-327 0 -435 178 -438 327z" />
    <glyph glyph-name="Scedilla.sc" horiz-adv-x="1104" 
d="M562 -485c-63 -2 -122 8 -149 16v113c27 -8 81 -14 114 -14c54 0 116 15 116 71c0 61 -67 64 -143 64h-53v89l48 127c-293 14 -393 183 -396 325h199c8 -85 94 -160 253 -160c145 0 231 61 231 152c0 78 -60 117 -181 143l-186 41c-151 32 -286 116 -286 297
c0 210 193 327 422 327c232 0 416 -125 419 -321h-194c-8 82 -82 155 -228 155c-128 0 -214 -54 -214 -145c0 -67 53 -112 160 -133l185 -40c173 -36 307 -113 307 -305c0 -187 -142 -307 -358 -332l-44 -114c125 0 207 -56 207 -164c0 -131 -101 -187 -229 -192z" />
    <glyph glyph-name="Sdotaccent.sc" horiz-adv-x="1104" 
d="M442 1320c0 66 44 114 108 114s112 -48 112 -114c0 -67 -48 -112 -112 -112s-108 45 -108 112zM99 306h199c8 -85 94 -160 253 -160c145 0 231 61 231 152c0 78 -60 117 -181 143l-186 41c-151 32 -286 116 -286 297c0 210 193 327 422 327c232 0 416 -125 419 -321h-194
c-8 82 -82 155 -228 155c-128 0 -214 -54 -214 -145c0 -67 53 -112 160 -133l185 -40c173 -36 307 -113 307 -305c0 -211 -182 -338 -449 -338c-327 0 -435 178 -438 327z" />
    <glyph glyph-name="Sdotbelow.sc" horiz-adv-x="1104" 
d="M422 -249c0 69 48 118 115 118s116 -49 116 -118s-49 -115 -116 -115s-115 46 -115 115zM99 306h199c8 -85 94 -160 253 -160c145 0 231 61 231 152c0 78 -60 117 -181 143l-186 41c-151 32 -286 116 -286 297c0 210 193 327 422 327c232 0 416 -125 419 -321h-194
c-8 82 -82 155 -228 155c-128 0 -214 -54 -214 -145c0 -67 53 -112 160 -133l185 -40c173 -36 307 -113 307 -305c0 -211 -182 -338 -449 -338c-327 0 -435 178 -438 327z" />
    <glyph glyph-name="Scommaaccent.sc" horiz-adv-x="1104" 
d="M527 -472h-143l82 316h168zM99 306h199c8 -85 94 -160 253 -160c145 0 231 61 231 152c0 78 -60 117 -181 143l-186 41c-151 32 -286 116 -286 297c0 210 193 327 422 327c232 0 416 -125 419 -321h-194c-8 82 -82 155 -228 155c-128 0 -214 -54 -214 -145
c0 -67 53 -112 160 -133l185 -40c173 -36 307 -113 307 -305c0 -211 -182 -338 -449 -338c-327 0 -435 178 -438 327z" />
    <glyph glyph-name="Sdotbelowdotaccent.sc" horiz-adv-x="1104" 
d="M422 -249c0 69 48 118 115 118s116 -49 116 -118s-49 -115 -116 -115s-115 46 -115 115zM442 1320c0 66 44 114 108 114s112 -48 112 -114c0 -67 -48 -112 -112 -112s-108 45 -108 112zM99 306h199c8 -85 94 -160 253 -160c145 0 231 61 231 152c0 78 -60 117 -181 143
l-186 41c-151 32 -286 116 -286 297c0 210 193 327 422 327c232 0 416 -125 419 -321h-194c-8 82 -82 155 -228 155c-128 0 -214 -54 -214 -145c0 -67 53 -112 160 -133l185 -40c173 -36 307 -113 307 -305c0 -211 -182 -338 -449 -338c-327 0 -435 178 -438 327z" />
    <glyph glyph-name="Scarondotaccent.sc" horiz-adv-x="1104" 
d="M442 1745c0 67 44 115 108 115s112 -48 112 -115c0 -66 -48 -111 -112 -111s-108 45 -108 111zM233 1586h166l149 -245h6l141 245h166l-239 -368h-138zM99 306h199c8 -85 94 -160 253 -160c145 0 231 61 231 152c0 78 -60 117 -181 143l-186 41
c-151 32 -286 116 -286 297c0 210 193 327 422 327c232 0 416 -125 419 -321h-194c-8 82 -82 155 -228 155c-128 0 -214 -54 -214 -145c0 -67 53 -112 160 -133l185 -40c173 -36 307 -113 307 -305c0 -211 -182 -338 -449 -338c-327 0 -435 178 -438 327z" />
    <glyph glyph-name="Scircumflex.sc" horiz-adv-x="1104" 
d="M229 1252l251 368h138l240 -368h-167l-141 238h-5l-150 -238h-166zM99 306h199c8 -85 94 -160 253 -160c145 0 231 61 231 152c0 78 -60 117 -181 143l-186 41c-151 32 -286 116 -286 297c0 210 193 327 422 327c232 0 416 -125 419 -321h-194c-8 82 -82 155 -228 155
c-128 0 -214 -54 -214 -145c0 -67 53 -112 160 -133l185 -40c173 -36 307 -113 307 -305c0 -211 -182 -338 -449 -338c-327 0 -435 178 -438 327z" />
    <glyph glyph-name="Sacutedotaccent.sc" horiz-adv-x="1104" 
d="M217 1500c0 67 45 114 109 114s112 -47 112 -114s-48 -112 -112 -112s-109 45 -109 112zM523 1255l239 354h192l-279 -354h-152zM99 306h199c8 -85 94 -160 253 -160c145 0 231 61 231 152c0 78 -60 117 -181 143l-186 41c-151 32 -286 116 -286 297
c0 210 193 327 422 327c232 0 416 -125 419 -321h-194c-8 82 -82 155 -228 155c-128 0 -214 -54 -214 -145c0 -67 53 -112 160 -133l185 -40c173 -36 307 -113 307 -305c0 -211 -182 -338 -449 -338c-327 0 -435 178 -438 327z" />
    <glyph glyph-name="Sacute.sc" horiz-adv-x="1104" 
d="M498 1255l239 354h192l-279 -354h-152zM99 306h199c8 -85 94 -160 253 -160c145 0 231 61 231 152c0 78 -60 117 -181 143l-186 41c-151 32 -286 116 -286 297c0 210 193 327 422 327c232 0 416 -125 419 -321h-194c-8 82 -82 155 -228 155c-128 0 -214 -54 -214 -145
c0 -67 53 -112 160 -133l185 -40c173 -36 307 -113 307 -305c0 -211 -182 -338 -449 -338c-327 0 -435 178 -438 327z" />
    <glyph glyph-name="T.sc" horiz-adv-x="999" 
d="M601 0h-204v908h-335v175h875v-175h-336v-908z" />
    <glyph glyph-name="Tcircumflexbelow.sc" horiz-adv-x="999" 
d="M601 0h-204v908h-335v175h875v-175h-336v-908zM156 -373l277 253h137l266 -253h-188l-146 140h-7l-157 -140h-182z" />
    <glyph glyph-name="Tdotbelow.sc" horiz-adv-x="999" 
d="M601 0h-204v908h-335v175h875v-175h-336v-908zM384 -249c0 69 48 118 115 118s116 -49 116 -118s-49 -115 -116 -115s-115 46 -115 115z" />
    <glyph glyph-name="Tcommaaccent.sc" horiz-adv-x="999" 
d="M601 0h-204v908h-335v175h875v-175h-336v-908zM489 -472h-143l82 316h168z" />
    <glyph glyph-name="Tdotaccent.sc" horiz-adv-x="999" 
d="M601 0h-204v908h-335v175h875v-175h-336v-908zM391 1320c0 66 44 114 108 114s112 -48 112 -114c0 -67 -48 -112 -112 -112s-108 45 -108 112z" />
    <glyph glyph-name="Tcedilla.sc" horiz-adv-x="999" 
d="M452 0h-55v908h-335v175h875v-175h-336v-908h-18l-52 -137c124 0 206 -56 206 -164c0 -130 -101 -187 -229 -191c-63 -2 -122 7 -149 15v113c27 -8 81 -13 115 -13c54 0 115 14 115 70c0 61 -67 65 -143 65h-53v89z" />
    <glyph glyph-name="Tlinebelow.sc" horiz-adv-x="999" 
d="M601 0h-204v908h-335v175h875v-175h-336v-908zM797 -319h-581v126h581v-126z" />
    <glyph glyph-name="Tcaron.sc" horiz-adv-x="999" 
d="M601 0h-204v908h-335v175h875v-175h-336v-908zM182 1586h166l149 -245h6l141 245h166l-239 -368h-138z" />
    <glyph glyph-name="Tbar.sc" horiz-adv-x="999" 
d="M821 475h-220v-475h-204v475h-219v129h220v304h-335v175h874v-175h-336v-304h220v-129z" />
    <glyph glyph-name="U.sc" horiz-adv-x="1240" 
d="M367 1083v-689c0 -152 100 -237 253 -237s254 87 254 237v689h204v-708c0 -239 -182 -396 -458 -396s-458 159 -458 398v706h205z" />
    <glyph glyph-name="Uhorn.sc" horiz-adv-x="1312" 
d="M620 -20c-276 0 -458 159 -458 398v705h205v-688c0 -151 100 -237 253 -237s254 87 254 237v688h205c79 0 101 39 101 103v96h162v-115c0 -128 -70 -228 -218 -228h-46v-563c0 -239 -182 -396 -458 -396z" />
    <glyph glyph-name="Uacute.sc" horiz-adv-x="1240" 
d="M568 1255l239 354h192l-279 -354h-152zM367 1083v-689c0 -152 100 -237 253 -237s254 87 254 237v689h204v-708c0 -239 -182 -396 -458 -396s-458 159 -458 398v706h205z" />
    <glyph glyph-name="Ucircumflex.sc" horiz-adv-x="1240" 
d="M299 1252l251 368h138l240 -368h-167l-141 238h-5l-150 -238h-166zM367 1083v-689c0 -152 100 -237 253 -237s254 87 254 237v689h204v-708c0 -239 -182 -396 -458 -396s-458 159 -458 398v706h205z" />
    <glyph glyph-name="Ugrave.sc" horiz-adv-x="1240" 
d="M721 1255h-151l-279 354h192zM367 1083v-689c0 -152 100 -237 253 -237s254 87 254 237v689h204v-708c0 -239 -182 -396 -458 -396s-458 159 -458 398v706h205z" />
    <glyph glyph-name="Udieresis.sc" horiz-adv-x="1240" 
d="M320 1336c0 66 49 113 115 113s116 -47 116 -113c0 -64 -50 -112 -116 -112c-65 0 -115 48 -115 112zM696 1336c0 66 50 113 112 113c69 0 119 -47 119 -113c0 -64 -50 -112 -119 -112c-62 0 -112 48 -112 112zM367 1083v-689c0 -152 100 -237 253 -237s254 87 254 237
v689h204v-708c0 -239 -182 -396 -458 -396s-458 159 -458 398v706h205z" />
    <glyph glyph-name="Uhungarumlaut.sc" horiz-adv-x="1240" 
d="M501 1254h-143l244 362h189zM834 1254h-142l245 362h188zM367 1083v-689c0 -152 100 -237 253 -237s254 87 254 237v689h204v-708c0 -239 -182 -396 -458 -396s-458 159 -458 398v706h205z" />
    <glyph glyph-name="Utildebelow.sc" horiz-adv-x="1240" 
d="M593 -315c-24 24 -49 54 -86 54c-57 0 -66 -54 -69 -98h-126c0 108 56 218 185 218c66 0 109 -27 156 -70c29 -28 48 -55 85 -55c49 0 68 64 72 109h125c0 -110 -71 -222 -186 -222c-81 0 -119 29 -156 64zM367 1083v-689c0 -152 100 -237 253 -237s254 87 254 237v689
h204v-708c0 -239 -182 -396 -458 -396s-458 159 -458 398v706h205z" />
    <glyph glyph-name="Uhorngrave.sc" horiz-adv-x="1312" 
d="M620 -20c-276 0 -458 159 -458 398v705h205v-688c0 -151 100 -237 253 -237s254 87 254 237v688h205c79 0 101 39 101 103v96h162v-115c0 -128 -70 -228 -218 -228h-46v-563c0 -239 -182 -396 -458 -396zM721 1255h-151l-279 354h192z" />
    <glyph glyph-name="Uhornacute.sc" horiz-adv-x="1312" 
d="M620 -20c-276 0 -458 159 -458 398v705h205v-688c0 -151 100 -237 253 -237s254 87 254 237v688h205c79 0 101 39 101 103v96h162v-115c0 -128 -70 -228 -218 -228h-46v-563c0 -239 -182 -396 -458 -396zM568 1255l239 354h192l-279 -354h-152z" />
    <glyph glyph-name="Uhookabove.sc" horiz-adv-x="1240" 
d="M478 1473v112c25 10 63 18 110 18c130 0 219 -67 219 -185c0 -108 -75 -162 -160 -208l-69 90c71 40 97 69 97 109c0 47 -43 78 -102 78c-38 0 -73 -7 -95 -14zM367 1083v-689c0 -152 100 -237 253 -237s254 87 254 237v689h204v-708c0 -239 -182 -396 -458 -396
s-458 159 -458 398v706h205z" />
    <glyph glyph-name="Ubreve.sc" horiz-adv-x="1240" 
d="M352 1509h132c0 -84 50 -164 166 -164s167 80 167 164h130c-1 -138 -90 -289 -297 -289c-206 0 -298 151 -298 289zM367 1083v-689c0 -152 100 -237 253 -237s254 87 254 237v689h204v-708c0 -239 -182 -396 -458 -396s-458 159 -458 398v706h205z" />
    <glyph glyph-name="Uhorndotbelow.sc" horiz-adv-x="1312" 
d="M505 -249c0 69 48 118 115 118s116 -49 116 -118s-49 -115 -116 -115s-115 46 -115 115zM620 -20c-276 0 -458 159 -458 398v705h205v-688c0 -151 100 -237 253 -237s254 87 254 237v688h205c79 0 101 39 101 103v96h162v-115c0 -128 -70 -228 -218 -228h-46v-563
c0 -239 -182 -396 -458 -396z" />
    <glyph glyph-name="Udieresisbelow.sc" horiz-adv-x="1240" 
d="M367 1083v-689c0 -152 100 -237 253 -237s254 87 254 237v689h204v-708c0 -239 -182 -396 -458 -396s-458 159 -458 398v706h205zM318 -272c0 66 49 113 115 113s116 -47 116 -113c0 -64 -50 -112 -116 -112c-65 0 -115 48 -115 112zM694 -272c0 66 50 113 112 113
c69 0 119 -47 119 -113c0 -64 -50 -112 -119 -112c-62 0 -112 48 -112 112z" />
    <glyph glyph-name="Uogonek.sc" horiz-adv-x="1240" 
d="M881 -387c-133 0 -222 70 -222 188c0 77 37 135 82 190c-38 -7 -77 -12 -122 -12c-274 0 -457 159 -457 398v706h205v-689c0 -152 100 -237 252 -237c154 0 255 87 255 237v689h204v-708c0 -133 -53 -214 -114 -278c-59 -64 -147 -133 -147 -237c0 -74 49 -101 108 -101
c21 0 57 4 83 10v-134c-16 -9 -67 -22 -127 -22z" />
    <glyph glyph-name="Ucaron.sc" horiz-adv-x="1240" 
d="M303 1586h166l149 -245h6l141 245h166l-239 -368h-138zM367 1083v-689c0 -152 100 -237 253 -237s254 87 254 237v689h204v-708c0 -239 -182 -396 -458 -396s-458 159 -458 398v706h205z" />
    <glyph glyph-name="Uinvertedbreve.sc" horiz-adv-x="1240" 
d="M367 1083v-689c0 -152 100 -237 253 -237s254 87 254 237v689h204v-708c0 -239 -182 -396 -458 -396s-458 159 -458 398v706h205zM322 1252c1 139 91 289 298 289s298 -151 297 -289h-131c0 84 -50 164 -166 164s-166 -80 -166 -164h-132z" />
    <glyph glyph-name="Udieresisacute.sc" horiz-adv-x="1240" 
d="M567 1526l239 354h192l-279 -354h-152zM320 1336c0 66 49 113 115 113s116 -47 116 -113c0 -64 -50 -112 -116 -112c-65 0 -115 48 -115 112zM696 1336c0 66 50 113 112 113c69 0 119 -47 119 -113c0 -64 -50 -112 -119 -112c-62 0 -112 48 -112 112zM367 1083v-689
c0 -152 100 -237 253 -237s254 87 254 237v689h204v-708c0 -239 -182 -396 -458 -396s-458 159 -458 398v706h205z" />
    <glyph glyph-name="Utildeacute.sc" horiz-adv-x="1240" 
d="M567 1526l239 354h192l-279 -354h-152zM594 1266c-19 27 -42 60 -86 60c-54 0 -67 -64 -70 -119h-127c0 141 69 261 190 261c65 0 109 -20 153 -80c24 -33 40 -69 85 -69c47 0 68 75 71 132h127c0 -135 -82 -263 -189 -263c-77 0 -119 27 -154 78zM367 1083v-689
c0 -152 100 -237 253 -237s254 87 254 237v689h204v-708c0 -239 -182 -396 -458 -396s-458 159 -458 398v706h205z" />
    <glyph glyph-name="Udotbelow.sc" horiz-adv-x="1240" 
d="M505 -249c0 69 48 118 115 118s116 -49 116 -118s-49 -115 -116 -115s-115 46 -115 115zM367 1083v-689c0 -152 100 -237 253 -237s254 87 254 237v689h204v-708c0 -239 -182 -396 -458 -396s-458 159 -458 398v706h205z" />
    <glyph glyph-name="Utilde.sc" horiz-adv-x="1240" 
d="M594 1266c-19 27 -42 60 -86 60c-54 0 -67 -64 -70 -119h-127c0 141 69 261 190 261c65 0 109 -20 153 -80c24 -33 40 -69 85 -69c47 0 68 75 71 132h127c0 -135 -82 -263 -189 -263c-77 0 -119 27 -154 78zM367 1083v-689c0 -152 100 -237 253 -237s254 87 254 237v689
h204v-708c0 -239 -182 -396 -458 -396s-458 159 -458 398v706h205z" />
    <glyph glyph-name="Udieresisgrave.sc" horiz-adv-x="1240" 
d="M720 1523h-151l-279 354h192zM320 1336c0 66 49 113 115 113s116 -47 116 -113c0 -64 -50 -112 -116 -112c-65 0 -115 48 -115 112zM696 1336c0 66 50 113 112 113c69 0 119 -47 119 -113c0 -64 -50 -112 -119 -112c-62 0 -112 48 -112 112zM367 1083v-689
c0 -152 100 -237 253 -237s254 87 254 237v689h204v-708c0 -239 -182 -396 -458 -396s-458 159 -458 398v706h205z" />
    <glyph glyph-name="Ucircumflexbelow.sc" horiz-adv-x="1240" 
d="M367 1083v-689c0 -152 100 -237 253 -237s254 87 254 237v689h204v-708c0 -239 -182 -396 -458 -396s-458 159 -458 398v706h205zM277 -373l277 253h137l266 -253h-188l-146 140h-7l-157 -140h-182z" />
    <glyph glyph-name="Umacron.sc" horiz-adv-x="1240" 
d="M913 1258h-581v126h581v-126zM367 1083v-689c0 -152 100 -237 253 -237s254 87 254 237v689h204v-708c0 -239 -182 -396 -458 -396s-458 159 -458 398v706h205z" />
    <glyph glyph-name="Uhornhookabove.sc" horiz-adv-x="1312" 
d="M620 -20c-276 0 -458 159 -458 398v705h205v-688c0 -151 100 -237 253 -237s254 87 254 237v688h205c79 0 101 39 101 103v96h162v-115c0 -128 -70 -228 -218 -228h-46v-563c0 -239 -182 -396 -458 -396zM478 1473v112c25 10 63 18 110 18c130 0 219 -67 219 -185
c0 -108 -75 -162 -160 -208l-69 90c71 40 97 69 97 109c0 47 -43 78 -102 78c-38 0 -73 -7 -95 -14z" />
    <glyph glyph-name="Uring.sc" horiz-adv-x="1240" 
d="M367 1083v-689c0 -152 100 -237 253 -237s254 87 254 237v689h204v-708c0 -239 -182 -396 -458 -396s-458 159 -458 398v706h205zM620 1217c-110 0 -198 84 -198 197s88 195 198 195c111 0 198 -82 198 -195s-87 -197 -198 -197zM521 1413c0 -55 43 -99 99 -99
s99 44 99 99c0 56 -43 99 -99 99s-99 -43 -99 -99z" />
    <glyph glyph-name="Umacrondieresis.sc" horiz-adv-x="1240" 
d="M367 1083v-689c0 -152 100 -237 253 -237s254 87 254 237v689h204v-708c0 -239 -182 -396 -458 -396s-458 159 -458 398v706h205zM913 1258h-581v126h581v-126zM319 1625c0 66 49 113 115 113s116 -47 116 -113c0 -64 -50 -112 -116 -112c-65 0 -115 48 -115 112z
M695 1625c0 66 50 113 112 113c69 0 119 -47 119 -113c0 -64 -50 -112 -119 -112c-62 0 -112 48 -112 112z" />
    <glyph glyph-name="Udieresismacron.sc" horiz-adv-x="1240" 
d="M367 1083v-689c0 -152 100 -237 253 -237s254 87 254 237v689h204v-708c0 -239 -182 -396 -458 -396s-458 159 -458 398v706h205zM320 1336c0 66 49 113 115 113s116 -47 116 -113c0 -64 -50 -112 -116 -112c-65 0 -115 48 -115 112zM696 1336c0 66 50 113 112 113
c69 0 119 -47 119 -113c0 -64 -50 -112 -119 -112c-62 0 -112 48 -112 112zM912 1570h-581v126h581v-126z" />
    <glyph glyph-name="Udblgrave.sc" horiz-adv-x="1240" 
d="M407 1252l-290 363h188l244 -363h-142zM737 1252l-290 363h189l244 -363h-143zM367 1083v-689c0 -152 100 -237 253 -237s254 87 254 237v689h204v-708c0 -239 -182 -396 -458 -396s-458 159 -458 398v706h205z" />
    <glyph glyph-name="Uhorntilde.sc" horiz-adv-x="1312" 
d="M620 -20c-276 0 -458 159 -458 398v705h205v-688c0 -151 100 -237 253 -237s254 87 254 237v688h205c79 0 101 39 101 103v96h162v-115c0 -128 -70 -228 -218 -228h-46v-563c0 -239 -182 -396 -458 -396zM594 1266c-19 27 -42 60 -86 60c-54 0 -67 -64 -70 -119h-127
c0 141 69 261 190 261c65 0 109 -20 153 -80c24 -33 40 -69 85 -69c47 0 68 75 71 132h127c0 -135 -82 -263 -189 -263c-77 0 -119 27 -154 78z" />
    <glyph glyph-name="Udieresiscaron.sc" horiz-adv-x="1240" 
d="M302 1888h166l149 -245h6l141 245h166l-239 -368h-138zM320 1336c0 66 49 113 115 113s116 -47 116 -113c0 -64 -50 -112 -116 -112c-65 0 -115 48 -115 112zM696 1336c0 66 50 113 112 113c69 0 119 -47 119 -113c0 -64 -50 -112 -119 -112c-62 0 -112 48 -112 112z
M367 1083v-689c0 -152 100 -237 253 -237s254 87 254 237v689h204v-708c0 -239 -182 -396 -458 -396s-458 159 -458 398v706h205z" />
    <glyph glyph-name="V.sc" horiz-adv-x="1141" 
d="M690 0h-238l-394 1083h236l276 -855h11l273 855h229z" />
    <glyph glyph-name="Vtilde.sc" horiz-adv-x="1141" 
d="M690 0h-238l-394 1083h236l276 -855h11l273 855h229zM544 1266c-19 27 -42 60 -86 60c-54 0 -67 -64 -70 -119h-127c0 141 69 261 190 261c65 0 109 -20 153 -80c24 -33 40 -69 85 -69c47 0 68 75 71 132h127c0 -135 -82 -263 -189 -263c-77 0 -119 27 -154 78z" />
    <glyph glyph-name="Vdotbelow.sc" horiz-adv-x="1141" 
d="M455 -249c0 69 48 118 115 118s116 -49 116 -118s-49 -115 -116 -115s-115 46 -115 115zM690 0h-238l-394 1083h236l276 -855h11l273 855h229z" />
    <glyph glyph-name="W.sc" horiz-adv-x="1556" 
d="M552 0h-188l-309 1082h225l185 -791h10l211 791h185l210 -791h11l184 791h224l-308 -1082h-188l-222 763h-9z" />
    <glyph glyph-name="Wdotaccent.sc" horiz-adv-x="1556" 
d="M552 0h-188l-309 1082h225l185 -791h10l211 791h185l210 -791h11l184 791h224l-308 -1082h-188l-222 763h-9zM670 1320c0 66 44 114 108 114s112 -48 112 -114c0 -67 -48 -112 -112 -112s-108 45 -108 112z" />
    <glyph glyph-name="Wgrave.sc" horiz-adv-x="1556" 
d="M552 0h-188l-309 1082h225l185 -791h10l211 791h185l210 -791h11l184 791h224l-308 -1082h-188l-222 763h-9zM879 1255h-151l-279 354h192z" />
    <glyph glyph-name="Wdotbelow.sc" horiz-adv-x="1556" 
d="M552 0h-188l-309 1082h225l185 -791h10l211 791h185l210 -791h11l184 791h224l-308 -1082h-188l-222 763h-9zM663 -249c0 69 48 118 115 118s116 -49 116 -118s-49 -115 -116 -115s-115 46 -115 115z" />
    <glyph glyph-name="Wdieresis.sc" horiz-adv-x="1556" 
d="M552 0h-188l-309 1082h225l185 -791h10l211 791h185l210 -791h11l184 791h224l-308 -1082h-188l-222 763h-9zM478 1336c0 66 49 113 115 113s116 -47 116 -113c0 -64 -50 -112 -116 -112c-65 0 -115 48 -115 112zM854 1336c0 66 50 113 112 113c69 0 119 -47 119 -113
c0 -64 -50 -112 -119 -112c-62 0 -112 48 -112 112z" />
    <glyph glyph-name="Wacute.sc" horiz-adv-x="1556" 
d="M552 0h-188l-309 1082h225l185 -791h10l211 791h185l210 -791h11l184 791h224l-308 -1082h-188l-222 763h-9zM726 1255l239 354h192l-279 -354h-152z" />
    <glyph glyph-name="Wcircumflex.sc" horiz-adv-x="1556" 
d="M552 0h-188l-309 1082h225l185 -791h10l211 791h185l210 -791h11l184 791h224l-308 -1082h-188l-222 763h-9zM457 1252l251 368h138l240 -368h-167l-141 238h-5l-150 -238h-166z" />
    <glyph glyph-name="X.sc" horiz-adv-x="1084" 
d="M1042 1083l-372 -544l366 -539h-238l-258 387h-10l-259 -387h-224l363 546l-360 537h243l255 -393h9l253 393h232z" />
    <glyph glyph-name="Xdotaccent.sc" horiz-adv-x="1084" 
d="M434 1320c0 66 44 114 108 114s112 -48 112 -114c0 -67 -48 -112 -112 -112s-108 45 -108 112zM1042 1083l-372 -544l366 -539h-238l-258 387h-10l-259 -387h-224l363 546l-360 537h243l255 -393h9l253 393h232z" />
    <glyph glyph-name="Xdieresis.sc" horiz-adv-x="1084" 
d="M1042 1083l-372 -544l366 -539h-238l-258 387h-10l-259 -387h-224l363 546l-360 537h243l255 -393h9l253 393h232zM242 1336c0 66 49 113 115 113s116 -47 116 -113c0 -64 -50 -112 -116 -112c-65 0 -115 48 -115 112zM618 1336c0 66 50 113 112 113
c69 0 119 -47 119 -113c0 -64 -50 -112 -119 -112c-62 0 -112 48 -112 112z" />
    <glyph glyph-name="Y.sc" horiz-adv-x="1055" 
d="M629 0h-205v416l-385 667h228l257 -461h9l259 461h224l-387 -663v-420z" />
    <glyph glyph-name="Ydieresis.sc" horiz-adv-x="1055" 
d="M629 0h-205v416l-385 667h228l257 -461h9l259 461h224l-387 -663v-420zM227 1336c0 66 49 113 115 113s116 -47 116 -113c0 -64 -50 -112 -116 -112c-65 0 -115 48 -115 112zM603 1336c0 66 50 113 112 113c69 0 119 -47 119 -113c0 -64 -50 -112 -119 -112
c-62 0 -112 48 -112 112z" />
    <glyph glyph-name="Yacute.sc" horiz-adv-x="1055" 
d="M475 1255l239 354h192l-279 -354h-152zM629 0h-205v416l-385 667h228l257 -461h9l259 461h224l-387 -663v-420z" />
    <glyph glyph-name="Ytilde.sc" horiz-adv-x="1055" 
d="M629 0h-205v416l-385 667h228l257 -461h9l259 461h224l-387 -663v-420zM501 1266c-19 27 -42 60 -86 60c-54 0 -67 -64 -70 -119h-127c0 141 69 261 190 261c65 0 109 -20 153 -80c24 -33 40 -69 85 -69c47 0 68 75 71 132h127c0 -135 -82 -263 -189 -263
c-77 0 -119 27 -154 78z" />
    <glyph glyph-name="Ygrave.sc" horiz-adv-x="1055" 
d="M628 1255h-151l-279 354h192zM629 0h-205v416l-385 667h228l257 -461h9l259 461h224l-387 -663v-420z" />
    <glyph glyph-name="Ycircumflex.sc" horiz-adv-x="1055" 
d="M206 1252l251 368h138l240 -368h-167l-141 238h-5l-150 -238h-166zM629 0h-205v416l-385 667h228l257 -461h9l259 461h224l-387 -663v-420z" />
    <glyph glyph-name="Ymacron.sc" horiz-adv-x="1055" 
d="M629 0h-205v416l-385 667h228l257 -461h9l259 461h224l-387 -663v-420zM820 1258h-581v126h581v-126z" />
    <glyph glyph-name="Ydotbelow.sc" horiz-adv-x="1055" 
d="M412 -249c0 69 48 118 115 118s116 -49 116 -118s-49 -115 -116 -115s-115 46 -115 115zM629 0h-205v416l-385 667h228l257 -461h9l259 461h224l-387 -663v-420z" />
    <glyph glyph-name="Ydotaccent.sc" horiz-adv-x="1055" 
d="M419 1320c0 66 44 114 108 114s112 -48 112 -114c0 -67 -48 -112 -112 -112s-108 45 -108 112zM629 0h-205v416l-385 667h228l257 -461h9l259 461h224l-387 -663v-420z" />
    <glyph glyph-name="Yhookabove.sc" horiz-adv-x="1055" 
d="M629 0h-205v416l-385 667h228l257 -461h9l259 461h224l-387 -663v-420zM385 1473v112c25 10 63 18 110 18c130 0 219 -67 219 -185c0 -108 -75 -162 -160 -208l-69 90c71 40 97 69 97 109c0 47 -43 78 -102 78c-38 0 -73 -7 -95 -14z" />
    <glyph glyph-name="Z.sc" horiz-adv-x="1084" 
d="M119 0v137l576 762v12h-559v172h808v-136l-573 -764v-10h588v-173h-840z" />
    <glyph glyph-name="Zcaron.sc" horiz-adv-x="1084" 
d="M225 1586h166l149 -245h6l141 245h166l-239 -368h-138zM119 0v137l576 762v12h-559v172h808v-136l-573 -764v-10h588v-173h-840z" />
    <glyph glyph-name="Zcircumflex.sc" horiz-adv-x="1084" 
d="M221 1252l251 368h138l240 -368h-167l-141 238h-5l-150 -238h-166zM119 0v137l576 762v12h-559v172h808v-136l-573 -764v-10h588v-173h-840z" />
    <glyph glyph-name="Zlinebelow.sc" horiz-adv-x="1084" 
d="M840 -319h-581v126h581v-126zM119 0v137l576 762v12h-559v172h808v-136l-573 -764v-10h588v-173h-840z" />
    <glyph glyph-name="Zdotbelow.sc" horiz-adv-x="1084" 
d="M427 -249c0 69 48 118 115 118s116 -49 116 -118s-49 -115 -116 -115s-115 46 -115 115zM119 0v137l576 762v12h-559v172h808v-136l-573 -764v-10h588v-173h-840z" />
    <glyph glyph-name="Zdotaccent.sc" horiz-adv-x="1084" 
d="M434 1320c0 66 44 114 108 114s112 -48 112 -114c0 -67 -48 -112 -112 -112s-108 45 -108 112zM119 0v137l576 762v12h-559v172h808v-136l-573 -764v-10h588v-173h-840z" />
    <glyph glyph-name="Zacute.sc" horiz-adv-x="1084" 
d="M490 1255l239 354h192l-279 -354h-152zM119 0v137l576 762v12h-559v172h808v-136l-573 -764v-10h588v-173h-840z" />
    <glyph glyph-name="AE.sc" horiz-adv-x="1686" 
d="M765 912l-247 -465h306v465h-59zM824 285h-380l-161 -285h-226l585 1083h905v-171h-520v-283h489v-161h-489v-297h520v-171h-723v285z" />
    <glyph glyph-name="AEmacron.sc" horiz-adv-x="1686" 
d="M765 912l-247 -465h306v465h-59zM824 285h-380l-161 -285h-226l585 1083h905v-171h-520v-283h489v-161h-489v-297h520v-171h-723v285zM1477 1258h-581v126h581v-126z" />
    <glyph glyph-name="AEacute.sc" horiz-adv-x="1686" 
d="M1132 1255l239 354h192l-279 -354h-152zM765 912l-247 -465h306v465h-59zM824 285h-380l-161 -285h-226l585 1083h905v-171h-520v-283h489v-161h-489v-297h520v-171h-723v285z" />
    <glyph glyph-name="OE.sc" horiz-adv-x="1755" 
d="M342 609v-143c0 -212 117 -313 277 -313c161 0 280 94 280 306v161c0 211 -119 309 -280 309c-160 0 -277 -109 -277 -320zM590 -21c-283 0 -461 186 -461 490v138c0 319 189 497 463 497c133 0 250 -45 310 -133h13v112h701v-172h-519v-282h489v-161h-489v-297h519v-171
h-701v114h-13c-60 -83 -174 -135 -312 -135z" />
    <glyph glyph-name="Eth.sc" horiz-adv-x="1282" 
d="M654 0h-406v460h-139v181h139v442h406c372 0 513 -221 513 -539c0 -316 -138 -544 -513 -544zM452 175h177c214 0 326 102 326 368c0 216 -81 373 -326 373h-177v-275h224v-181h-224v-285z" />
    <glyph glyph-name="Thorn.sc" horiz-adv-x="1095" 
d="M176 1083h203v-185h234c239 0 383 -133 383 -334c0 -204 -145 -340 -385 -340h-231v-224h-204v1083zM380 730v-342h177c130 0 230 30 230 173c0 117 -76 169 -207 169h-200z" />
    <glyph glyph-name="zero.sc" horiz-adv-x="1129" 
d="M339 564v-45c0 -239 89 -369 225 -369c137 0 227 131 227 369v45c0 238 -90 369 -227 369c-136 0 -225 -130 -225 -369zM134 518v47c0 321 158 539 432 539c276 0 429 -217 429 -539v-47c0 -309 -150 -539 -432 -539c-275 0 -429 218 -429 539z" />
    <glyph glyph-name="one.sc" horiz-adv-x="882" 
d="M624 0h-203v881h-10l-263 -176v193l273 185h203v-1083z" />
    <glyph glyph-name="two.sc" horiz-adv-x="1050" 
d="M335 761h-195v11c0 165 127 332 386 332c232 0 383 -130 383 -303c0 -148 -98 -240 -201 -344l-276 -277v-10h497v-170h-781v130l427 430c63 62 130 131 130 222s-78 154 -184 154c-117 0 -186 -77 -186 -163v-12z" />
    <glyph glyph-name="three.sc" horiz-adv-x="1071" 
d="M396 477v162h122c109 0 189 65 188 153c-1 89 -79 150 -189 150c-111 0 -185 -66 -190 -137h-191c5 166 141 298 386 299c234 1 382 -119 385 -282c4 -154 -128 -236 -213 -249v-11c102 -10 247 -87 250 -259c2 -205 -190 -325 -428 -325c-252 0 -397 139 -403 302h188
c7 -78 95 -137 217 -137c135 0 223 70 222 169c-2 95 -87 165 -217 165h-127z" />
    <glyph glyph-name="four.sc" horiz-adv-x="1102" 
d="M565 1083h296v-712h145v-169h-145v-202h-193v202h-558v172c137 238 299 474 455 709zM299 371h369v553h-10c-122 -174 -250 -361 -359 -546v-7z" />
    <glyph glyph-name="five.sc" horiz-adv-x="1092" 
d="M148 275h189c20 -87 116 -130 214 -130c113 0 221 77 221 211c0 121 -101 198 -221 198c-109 0 -175 -58 -201 -102h-178l49 632h689v-169h-523l-27 -293h10c23 34 103 92 233 92c199 0 369 -127 369 -351c0 -233 -173 -384 -426 -384c-232 0 -390 128 -398 296z" />
    <glyph glyph-name="six.sc" horiz-adv-x="1118" 
d="M966 834h-198c-15 48 -72 103 -184 103c-154 0 -256 -153 -253 -384h12c34 74 124 151 284 151c181 0 362 -117 362 -346c0 -241 -177 -379 -416 -379c-138 0 -270 48 -353 176c-53 83 -86 199 -86 358c0 399 181 590 454 590c239 0 369 -143 378 -269zM356 349
c0 -128 98 -204 218 -204c122 0 217 68 217 204c0 131 -103 199 -216 199c-129 0 -219 -83 -219 -199z" />
    <glyph glyph-name="seven.sc" horiz-adv-x="1007" 
d="M120 1083h776v-175l-470 -908h-215l479 902v10h-570v171z" />
    <glyph glyph-name="eight.sc" horiz-adv-x="1123" 
d="M562 131c132 0 232 73 232 180s-100 181 -232 181s-233 -74 -233 -181s101 -180 233 -180zM562 636c112 0 193 65 193 159c0 93 -81 155 -193 155c-111 0 -194 -62 -194 -155c0 -94 83 -159 194 -159zM559 -21c-260 0 -432 130 -432 318c0 172 137 250 239 270v9
c-93 28 -194 102 -194 241c0 166 158 287 390 287s390 -121 390 -287c0 -141 -105 -213 -194 -241v-9c103 -20 238 -99 238 -269c0 -188 -176 -319 -437 -319z" />
    <glyph glyph-name="nine.sc" horiz-adv-x="1117" 
d="M158 237h196c14 -46 77 -92 176 -92c190 0 265 170 258 381h-12c-33 -79 -124 -151 -277 -151c-199 0 -371 125 -371 357c0 233 181 373 420 373c223 0 434 -128 434 -546c0 -380 -150 -579 -455 -579c-236 0 -357 131 -369 257zM758 733c0 132 -93 208 -218 208
c-118 0 -213 -77 -213 -206c0 -133 98 -202 216 -202c113 0 215 68 215 200z" />
    <glyph glyph-name="ampersand.sc" horiz-adv-x="1226" 
d="M959 0l-95 93c-100 -79 -234 -115 -359 -115c-230 0 -395 117 -395 305c0 139 91 224 218 290c15 8 31 16 48 24c-78 78 -143 151 -143 247c0 144 133 248 312 248c165 0 309 -89 309 -246c0 -137 -113 -216 -239 -278l245 -239c33 56 46 135 46 232v50h169v-60
c0 -136 -29 -257 -96 -344l208 -207h-228zM437 475c-82 -41 -141 -93 -141 -177c0 -114 108 -172 228 -172c79 0 175 25 235 81l-288 283c-12 -4 -23 -10 -34 -15zM520 663c96 45 163 91 163 171c0 75 -59 123 -137 123c-82 0 -138 -52 -138 -123c0 -52 28 -95 112 -171z
" />
    <glyph glyph-name="exclam.sc" horiz-adv-x="557" 
d="M138 106c0 72 57 122 139 122c85 0 142 -50 142 -122c0 -71 -57 -121 -142 -121c-81 0 -139 50 -139 121zM169 1083h222l-25 -713h-174z" />
    <glyph glyph-name="exclamdown.sc" horiz-adv-x="557" 
d="M387 0h-221l24 713h173zM418 977c0 -72 -57 -123 -139 -123c-84 0 -142 51 -142 123c0 71 57 121 142 121c81 0 139 -50 139 -121z" />
    <glyph glyph-name="question.sc" horiz-adv-x="915" 
d="M298 106c0 72 57 122 139 122c85 0 142 -50 142 -122c0 -71 -57 -121 -142 -121c-81 0 -139 50 -139 121zM91 784c-6 236 190 321 371 321c191 0 362 -94 362 -287c0 -137 -86 -200 -167 -256c-98 -66 -134 -92 -134 -180v-42h-185v49c-7 119 62 193 154 255
c78 53 129 88 129 164c0 95 -82 135 -170 135c-116 0 -174 -69 -175 -159h-185z" />
    <glyph glyph-name="questiondown.sc" horiz-adv-x="914" 
d="M616 974c0 -73 -57 -122 -139 -122c-85 0 -141 49 -141 122c0 71 56 121 141 121c82 0 139 -50 139 -121zM823 296c6 -236 -190 -322 -371 -322c-190 0 -362 94 -362 287c0 136 86 200 166 255c99 68 136 94 136 182v42h184l1 -51c6 -118 -63 -192 -154 -254
c-79 -52 -130 -88 -130 -163c0 -95 82 -135 170 -135c115 0 174 69 175 159h185z" />
    <glyph glyph-name="parenleft.sc" horiz-adv-x="638" 
d="M370 1115h179c-67 -72 -199 -285 -199 -631c0 -344 125 -540 196 -659h-183c-89 104 -216 310 -216 657c0 350 121 512 223 633z" />
    <glyph glyph-name="parenright.sc" horiz-adv-x="638" 
d="M89 1115h177c102 -121 225 -283 225 -633c0 -347 -129 -553 -217 -657h-184c73 119 197 315 197 659c0 346 -132 559 -198 631z" />
    <glyph glyph-name="bracketleft.sc" horiz-adv-x="666" 
d="M147 1116h422v-150h-231v-965h242v-150h-433v1265z" />
    <glyph glyph-name="bracketright.sc" horiz-adv-x="666" 
d="M96 1116h423v-1265h-433v150h241v965h-231v150z" />
    <glyph glyph-name="braceleft.sc" horiz-adv-x="703" 
d="M272 507v-20c103 -9 157 -71 157 -185v-210c0 -115 42 -157 178 -157h34v-150h-69c-217 0 -331 76 -331 283v177c0 108 -26 157 -138 157v190c112 0 138 49 138 157v152c0 205 114 276 331 276h69v-149h-34c-136 0 -178 -42 -178 -157v-189c0 -115 -54 -165 -157 -175z
" />
    <glyph glyph-name="braceright.sc" horiz-adv-x="704" 
d="M432 487v20c-102 10 -157 60 -157 175v189c0 115 -42 157 -177 157h-35v149h70c216 0 330 -71 330 -276v-152c0 -108 27 -157 138 -157v-190c-111 0 -138 -49 -138 -157v-177c0 -207 -114 -283 -330 -283h-70v150h35c135 0 177 42 177 157v210c0 114 55 176 157 185z" />
    <glyph glyph-name="at.sc" horiz-adv-x="1532" 
d="M1118 225c-111 0 -188 49 -204 114h-9c-18 -64 -93 -113 -190 -113c-144 0 -230 101 -230 261v85c0 152 86 255 235 255c104 0 159 -58 174 -108h7v97h144v-393c0 -56 40 -84 92 -84c75 0 144 79 144 260v24c0 232 -181 429 -490 429h-7c-301 0 -520 -194 -520 -503v-32
c0 -338 239 -490 512 -490h7c116 0 200 15 254 36v-119c-44 -19 -132 -35 -259 -35h-8c-361 0 -644 208 -644 603v43c0 374 276 616 658 616h6c404 0 626 -259 626 -543v-39c0 -214 -119 -364 -298 -364zM638 508c0 -113 51 -156 127 -156c71 0 125 38 125 147v66
c0 99 -58 143 -127 143c-72 0 -125 -48 -125 -155v-45z" />
    <glyph glyph-name="numbersign.sc" horiz-adv-x="1127" 
d="M1029 651h-179l-47 -208h170l-29 -150h-172l-63 -293h-154l64 293h-209l-64 -293h-153l63 293h-168l30 150h168l48 208h-161l28 150h163l61 282h155l-62 -282h209l61 282h154l-62 -282h177zM479 665l-52 -236h230l52 236h-230z" />
    <glyph glyph-name="currency.sc" horiz-adv-x="1065" 
d="M850 107l-141 130c-51 -30 -113 -47 -177 -47c-67 0 -128 17 -180 49l-144 -132l-104 104l142 132c-35 50 -54 110 -54 174c0 62 18 120 51 169l-139 129l105 105l138 -128c53 33 117 52 185 52c67 0 129 -19 182 -50l136 126l105 -105l-137 -127c34 -49 53 -108 53 -171
c0 -65 -21 -126 -56 -177l140 -129zM338 517c0 -98 87 -177 194 -177c106 0 193 79 193 177c0 97 -87 177 -193 177c-107 0 -194 -80 -194 -177z" />
    <glyph glyph-name="dollar.sc" horiz-adv-x="1065" 
d="M308 805c0 -62 41 -109 131 -137c11 -4 24 -8 38 -11v294c-97 -10 -169 -61 -169 -146zM784 302c0 73 -43 121 -166 154c-6 1 -14 3 -22 5v-316c111 8 188 65 188 157zM597 -102h-123l1 99c-258 18 -368 165 -370 312h175c6 -83 72 -149 197 -164v339l-68 15
c-143 33 -279 118 -279 292c0 187 152 288 345 306v103h122v-103c196 -19 339 -134 343 -303h-171c-3 76 -66 142 -173 156v-318l69 -16c173 -37 296 -117 296 -298c0 -191 -151 -301 -365 -319z" />
    <glyph glyph-name="cent.sc" horiz-adv-x="1065" 
d="M906 386c-4 -143 -115 -257 -295 -275v-177h-154v177c-180 19 -317 147 -317 373v119c0 216 139 345 317 365v182h154v-183c180 -19 287 -147 291 -280h-185c-7 54 -53 131 -182 131c-136 0 -207 -88 -207 -218v-120c0 -134 79 -215 208 -215c121 0 173 53 186 121h184z
" />
    <glyph glyph-name="yen.sc" horiz-adv-x="1065" 
d="M879 170h-245v-170h-204v170h-241v130h241v98h-241v130h184l-328 555h227l258 -461h9l258 461h223l-328 -555h187v-130h-245v-98h245v-130z" />
    <glyph glyph-name="sterling.sc" horiz-adv-x="1065" 
d="M961 165v-165h-834v172c88 6 140 31 140 178v121h-154v142h154v202c0 181 141 287 345 287c211 0 338 -103 343 -289h-188c-4 69 -57 125 -154 125c-107 0 -154 -66 -154 -146v-179h248v-142h-250l1 -129c-1 -79 -17 -142 -66 -165v-12h569z" />
    <glyph glyph-name="franc.sc" horiz-adv-x="1065" 
d="M670 148h-210v-148h-205v148h-151v137h151v798h697v-173h-492v-266h448v-169h-448v-190h210v-137z" />
    <glyph glyph-name="florin.sc" horiz-adv-x="1065" 
d="M157 -147l138 688h-169l28 164h169l24 130c34 186 148 268 346 268c221 0 281 -135 273 -248h-184c2 52 -38 91 -98 91c-72 0 -111 -42 -126 -119l-23 -122h249l-29 -164h-248l-138 -688h-212z" />
    <glyph glyph-name="u20BA.sc" horiz-adv-x="1065" 
d="M271 0v452l-157 -62v127l157 61v144l-157 -62v126l157 62v235h192v-155l221 88v-126l-221 -88v-144l221 88v-126l-221 -88v-348c169 0 302 111 302 269h187c0 -288 -201 -453 -619 -453h-62z" />
    <glyph glyph-name="u20BD.sc" horiz-adv-x="1065" 
d="M432 916v-344h113c130 0 232 24 232 173c0 119 -78 171 -209 171h-136zM688 148h-256v-148h-204v148h-151v137h151v124h-151v163h151v511h375c239 0 383 -134 383 -337c0 -206 -145 -337 -385 -337h-169v-124h256v-137z" />
    <glyph glyph-name="Euro.sc" horiz-adv-x="1065" 
d="M988 365c0 -205 -101 -386 -395 -386c-267 0 -396 128 -418 387h-102v116h99v112h-99v115h103c22 257 153 395 418 395c284 0 394 -178 394 -399h-198c0 113 -34 222 -195 222c-138 0 -202 -66 -212 -218h255v-115h-259v-112h259v-116h-255c9 -153 72 -210 212 -210
c163 0 195 95 195 209h198z" />
    <glyph glyph-name="u20AB.sc" horiz-adv-x="1065" 
d="M845 -247h-637v132h637v-132zM504 689c-119 0 -196 -80 -196 -226v-84c0 -148 78 -227 200 -227s203 80 203 218v112c0 126 -86 207 -207 207zM706 135c-25 -76 -118 -146 -264 -146c-204 0 -338 137 -338 368v129c0 227 133 366 341 366c141 0 226 -62 256 -138h10v205
h-204v133h204v112h200v-112h104v-133h-104v-919h-195v135h-10z" />
    <glyph glyph-name="u20B9.sc" horiz-adv-x="1065" 
d="M399 415l358 -415h-247l-381 446v101h120c136 0 234 46 258 132h-378v130h378c-24 80 -100 122 -220 122h-157v152h795v-142h-274l-2 -8c45 -29 70 -78 77 -124h199v-130h-199c-30 -148 -179 -241 -327 -264z" />
    <glyph glyph-name="backslash.sc" horiz-adv-x="678" 
d="M631 -232h-179l-402 1372h178z" />
    <glyph glyph-name="bar.sc" horiz-adv-x="682" 
d="M429 -239h-177v1379h177v-1379z" />
    <glyph glyph-name="hyphen.sc" horiz-adv-x="763" 
d="M648 457h-533v181h533v-181z" />
    <glyph glyph-name="endash.sc" horiz-adv-x="1224" 
d="M1224 354h-1224v180h1224v-180z" />
    <glyph glyph-name="emdash.sc" horiz-adv-x="2048" 
d="M2048 354h-2048v180h2048v-180z" />
    <glyph glyph-name="bullet.sc" horiz-adv-x="884" 
d="M441 227c-148 0 -269 116 -269 257c0 142 121 258 269 258c147 0 269 -116 269 -258c0 -141 -122 -257 -269 -257z" />
    <glyph glyph-name="uni2023.sc" horiz-adv-x="884" 
d="M227 200v564l456 -282z" />
    <glyph glyph-name="openbullet.sc" horiz-adv-x="884" 
d="M440 193c-170 0 -306 128 -306 291s136 292 306 292c169 0 306 -129 306 -292c0 -162 -137 -291 -306 -291zM440 311c105 0 189 78 189 173c0 96 -84 173 -189 173s-189 -77 -189 -173c0 -95 84 -173 189 -173z" />
    <glyph glyph-name="slash.sc" horiz-adv-x="678" 
d="M228 -232h-178l402 1372h179z" />
    <glyph glyph-name="plus.sc" horiz-adv-x="1066" 
d="M642 440v-337h-170v337h-336v173h336v324h170v-324h338v-173h-338z" />
    <glyph glyph-name="less.sc" horiz-adv-x="1065" 
d="M150 438v136l762 407v-205l-537 -261v-8l537 -253v-202z" />
    <glyph glyph-name="equal.sc" horiz-adv-x="1065" 
d="M913 280h-762v161h762v-161zM913 612h-762v160h762v-160z" />
    <glyph glyph-name="greater.sc" horiz-adv-x="1065" 
d="M912 574v-136l-762 -386v202l538 253v8l-538 261v205z" />
    <glyph glyph-name="minus.sc" horiz-adv-x="1065" 
d="M939 445h-813v176h813v-176z" />
    <glyph glyph-name="lessequal.sc" horiz-adv-x="1065" 
d="M942 128h-816v153h816v-153zM124 599v125l819 260v-172l-527 -143v-8l527 -136v-171z" />
    <glyph glyph-name="greaterequal.sc" horiz-adv-x="1065" 
d="M942 736v-126l-817 -256v171l523 145v7l-523 136v170zM942 128h-816v153h816v-153z" />
    <glyph glyph-name="approxequal.sc" horiz-adv-x="1065" 
d="M679 563c-67 0 -118 29 -172 71c-40 32 -75 64 -115 64c-67 0 -88 -57 -91 -111h-143c0 150 63 268 225 268c67 0 118 -27 171 -68c38 -33 73 -63 115 -63c68 0 88 54 92 109h142c0 -148 -67 -270 -224 -270zM679 206c-67 0 -118 29 -172 72c-40 31 -75 63 -115 63
c-67 0 -88 -56 -91 -110h-143c0 149 63 268 225 268c67 0 118 -27 171 -69c38 -33 73 -63 115 -63c68 0 88 54 92 110h142c0 -149 -67 -271 -224 -271z" />
    <glyph glyph-name="logicalnot.sc" horiz-adv-x="1065" 
d="M951 210h-175v279h-665v163h840v-442z" />
    <glyph glyph-name="infinity.sc" horiz-adv-x="1589" 
d="M1137 149c-165 0 -244 81 -349 195c-99 -112 -192 -195 -355 -195c-199 0 -323 145 -323 319c0 193 146 330 328 330c135 0 217 -55 350 -190c100 116 182 190 344 190c224 0 341 -146 341 -313c0 -162 -111 -336 -336 -336zM456 328c103 0 152 49 235 146
c-106 110 -157 151 -237 151c-87 0 -163 -54 -163 -147c0 -79 67 -150 165 -150zM1130 328c104 0 162 65 162 153c0 85 -79 144 -168 144c-103 0 -151 -49 -236 -147c91 -102 139 -150 242 -150z" />
    <glyph glyph-name="notequal.sc" horiz-adv-x="1065" 
d="M913 284h-403l-79 -196h-175l79 196h-184v151h242l72 177h-314v152h371l83 209h175l-82 -209h215v-152h-272l-73 -177h345v-151z" />
    <glyph glyph-name="plusminus.sc" horiz-adv-x="1065" 
d="M615 611v-202h-170v202h-320v156h320v190h170v-190h323v-156h-323zM940 160h-813v160h813v-160z" />
    <glyph glyph-name="divide.sc" horiz-adv-x="1065" 
d="M939 462h-813v151h813v-151zM404 860c0 71 55 119 124 119c73 0 128 -48 128 -119c0 -70 -56 -118 -128 -118c-69 0 -124 48 -124 118zM408 217c0 71 56 120 125 120c73 0 128 -50 128 -120s-55 -117 -128 -117c-69 0 -125 47 -125 117z" />
    <glyph glyph-name="multiply.sc" horiz-adv-x="1065" 
d="M786 171l-254 245l-254 -245l-120 127l255 242l-255 242l121 126l253 -244l254 244l121 -126l-255 -242l255 -242z" />
    <glyph glyph-name="a" unicode="a" horiz-adv-x="1125" 
d="M459 -17c-204 0 -345 127 -345 324c0 186 129 312 372 312h271v100c0 123 -81 178 -209 178c-127 0 -182 -48 -201 -118h-193c14 176 151 293 400 293c222 0 405 -93 405 -356v-716h-193v137h-9c-49 -81 -142 -154 -298 -154zM519 151c134 0 238 88 238 205v116h-246
c-135 0 -193 -66 -193 -154c0 -112 96 -167 201 -167z" />
    <glyph glyph-name="aacute" unicode="&#xe1;" horiz-adv-x="1125" 
d="M459 -17c-204 0 -345 127 -345 324c0 186 129 312 372 312h271v100c0 123 -81 178 -209 178c-127 0 -182 -48 -201 -118h-193c14 176 151 293 400 293c222 0 405 -93 405 -356v-716h-193v137h-9c-49 -81 -142 -154 -298 -154zM519 151c134 0 238 88 238 205v116h-246
c-135 0 -193 -66 -193 -154c0 -112 96 -167 201 -167zM511 1228l239 354h192l-279 -354h-152z" />
    <glyph glyph-name="agrave" unicode="&#xe0;" horiz-adv-x="1125" 
d="M459 -17c-204 0 -345 127 -345 324c0 186 129 312 372 312h271v100c0 123 -81 178 -209 178c-127 0 -182 -48 -201 -118h-193c14 176 151 293 400 293c222 0 405 -93 405 -356v-716h-193v137h-9c-49 -81 -142 -154 -298 -154zM519 151c134 0 238 88 238 205v116h-246
c-135 0 -193 -66 -193 -154c0 -112 96 -167 201 -167zM664 1228h-151l-279 354h192z" />
    <glyph glyph-name="acircumflex" unicode="&#xe2;" horiz-adv-x="1125" 
d="M459 -17c-204 0 -345 127 -345 324c0 186 129 312 372 312h271v100c0 123 -81 178 -209 178c-127 0 -182 -48 -201 -118h-193c14 176 151 293 400 293c222 0 405 -93 405 -356v-716h-193v137h-9c-49 -81 -142 -154 -298 -154zM519 151c134 0 238 88 238 205v116h-246
c-135 0 -193 -66 -193 -154c0 -112 96 -167 201 -167zM242 1225l251 368h138l240 -368h-167l-141 238h-5l-150 -238h-166z" />
    <glyph glyph-name="adieresis" unicode="&#xe4;" horiz-adv-x="1125" 
d="M459 -17c-204 0 -345 127 -345 324c0 186 129 312 372 312h271v100c0 123 -81 178 -209 178c-127 0 -182 -48 -201 -118h-193c14 176 151 293 400 293c222 0 405 -93 405 -356v-716h-193v137h-9c-49 -81 -142 -154 -298 -154zM519 151c134 0 238 88 238 205v116h-246
c-135 0 -193 -66 -193 -154c0 -112 96 -167 201 -167zM263 1309c0 66 49 113 115 113s116 -47 116 -113c0 -64 -50 -112 -116 -112c-65 0 -115 48 -115 112zM639 1309c0 66 50 113 112 113c69 0 119 -47 119 -113c0 -64 -50 -112 -119 -112c-62 0 -112 48 -112 112z" />
    <glyph glyph-name="atilde" unicode="&#xe3;" horiz-adv-x="1125" 
d="M459 -17c-204 0 -345 127 -345 324c0 186 129 312 372 312h271v100c0 123 -81 178 -209 178c-127 0 -182 -48 -201 -118h-193c14 176 151 293 400 293c222 0 405 -93 405 -356v-716h-193v137h-9c-49 -81 -142 -154 -298 -154zM519 151c134 0 238 88 238 205v116h-246
c-135 0 -193 -66 -193 -154c0 -112 96 -167 201 -167zM537 1239c-19 27 -42 60 -86 60c-54 0 -67 -64 -70 -119h-127c0 141 69 261 190 261c65 0 109 -20 153 -80c24 -33 40 -69 85 -69c47 0 68 75 71 132h127c0 -135 -82 -263 -189 -263c-77 0 -119 27 -154 78z" />
    <glyph glyph-name="aring" unicode="&#xe5;" horiz-adv-x="1125" 
d="M459 -17c-204 0 -345 127 -345 324c0 186 129 312 372 312h271v100c0 123 -81 178 -209 178c-127 0 -182 -48 -201 -118h-193c14 176 151 293 400 293c222 0 405 -93 405 -356v-716h-193v137h-9c-49 -81 -142 -154 -298 -154zM519 151c134 0 238 88 238 205v116h-246
c-135 0 -193 -66 -193 -154c0 -112 96 -167 201 -167zM563 1190c-110 0 -198 84 -198 197s88 195 198 195c111 0 198 -82 198 -195s-87 -197 -198 -197zM464 1386c0 -55 43 -99 99 -99s99 44 99 99c0 56 -43 99 -99 99s-99 -43 -99 -99z" />
    <glyph glyph-name="adieresismacron" unicode="&#x1df;" horiz-adv-x="1125" 
d="M459 -17c-204 0 -345 127 -345 324c0 186 129 312 372 312h271v100c0 123 -81 178 -209 178c-127 0 -182 -48 -201 -118h-193c14 176 151 293 400 293c222 0 405 -93 405 -356v-716h-193v137h-9c-49 -81 -142 -154 -298 -154zM519 151c134 0 238 88 238 205v116h-246
c-135 0 -193 -66 -193 -154c0 -112 96 -167 201 -167zM263 1309c0 66 49 113 115 113s116 -47 116 -113c0 -64 -50 -112 -116 -112c-65 0 -115 48 -115 112zM639 1309c0 66 50 113 112 113c69 0 119 -47 119 -113c0 -64 -50 -112 -119 -112c-62 0 -112 48 -112 112z
M856 1543h-581v126h581v-126z" />
    <glyph glyph-name="acircumflexacute" unicode="&#x1ea5;" horiz-adv-x="1125" 
d="M459 -17c-204 0 -345 127 -345 324c0 186 129 312 372 312h271v100c0 123 -81 178 -209 178c-127 0 -182 -48 -201 -118h-193c14 176 151 293 400 293c222 0 405 -93 405 -356v-716h-193v137h-9c-49 -81 -142 -154 -298 -154zM519 151c134 0 238 88 238 205v116h-246
c-135 0 -193 -66 -193 -154c0 -112 96 -167 201 -167zM206 1195l272 224h179l260 -224h-193l-155 127h-8l-157 -127h-198zM766 1424l192 215h194l-306 -279z" />
    <glyph glyph-name="adotmacron" unicode="&#x1e1;" horiz-adv-x="1125" 
d="M459 -17c-204 0 -345 127 -345 324c0 186 129 312 372 312h271v100c0 123 -81 178 -209 178c-127 0 -182 -48 -201 -118h-193c14 176 151 293 400 293c222 0 405 -93 405 -356v-716h-193v137h-9c-49 -81 -142 -154 -298 -154zM519 151c134 0 238 88 238 205v116h-246
c-135 0 -193 -66 -193 -154c0 -112 96 -167 201 -167zM455 1293c0 66 44 114 108 114s112 -48 112 -114c0 -67 -48 -112 -112 -112s-108 45 -108 112zM856 1543h-581v126h581v-126z" />
    <glyph glyph-name="amacron" unicode="&#x101;" horiz-adv-x="1125" 
d="M459 -17c-204 0 -345 127 -345 324c0 186 129 312 372 312h271v100c0 123 -81 178 -209 178c-127 0 -182 -48 -201 -118h-193c14 176 151 293 400 293c222 0 405 -93 405 -356v-716h-193v137h-9c-49 -81 -142 -154 -298 -154zM519 151c134 0 238 88 238 205v116h-246
c-135 0 -193 -66 -193 -154c0 -112 96 -167 201 -167zM856 1231h-581v126h581v-126z" />
    <glyph glyph-name="acircumflexhookabove" unicode="&#x1ea9;" horiz-adv-x="1125" 
d="M459 -17c-204 0 -345 127 -345 324c0 186 129 312 372 312h271v100c0 123 -81 178 -209 178c-127 0 -182 -48 -201 -118h-193c14 176 151 293 400 293c222 0 405 -93 405 -356v-716h-193v137h-9c-49 -81 -142 -154 -298 -154zM519 151c134 0 238 88 238 205v116h-246
c-135 0 -193 -66 -193 -154c0 -112 96 -167 201 -167zM206 1195l272 224h179l260 -224h-193l-155 127h-8l-157 -127h-198zM733 1559v101c19 5 59 9 91 9c115 0 188 -53 188 -149c0 -75 -55 -131 -114 -165l-67 73c30 21 53 43 53 74c0 40 -37 62 -87 62c-18 0 -43 -1 -64 -5
z" />
    <glyph glyph-name="aringbelow" unicode="&#x1e01;" horiz-adv-x="1125" 
d="M459 -17c-204 0 -345 127 -345 324c0 186 129 312 372 312h271v100c0 123 -81 178 -209 178c-127 0 -182 -48 -201 -118h-193c14 176 151 293 400 293c222 0 405 -93 405 -356v-716h-193v137h-9c-49 -81 -142 -154 -298 -154zM519 151c134 0 238 88 238 205v116h-246
c-135 0 -193 -66 -193 -154c0 -112 96 -167 201 -167zM561 -483c-110 0 -198 84 -198 197s88 195 198 195c111 0 198 -82 198 -195s-87 -197 -198 -197zM462 -287c0 -55 43 -99 99 -99s99 44 99 99c0 56 -43 99 -99 99s-99 -43 -99 -99z" />
    <glyph glyph-name="abrevedotbelow" unicode="&#x1eb7;" horiz-adv-x="1125" 
d="M459 -17c-204 0 -345 127 -345 324c0 186 129 312 372 312h271v100c0 123 -81 178 -209 178c-127 0 -182 -48 -201 -118h-193c14 176 151 293 400 293c222 0 405 -93 405 -356v-716h-193v137h-9c-49 -81 -142 -154 -298 -154zM519 151c134 0 238 88 238 205v116h-246
c-135 0 -193 -66 -193 -154c0 -112 96 -167 201 -167zM448 -249c0 69 48 118 115 118s116 -49 116 -118s-49 -115 -116 -115s-115 46 -115 115zM295 1482h132c0 -84 50 -164 166 -164s167 80 167 164h130c-1 -138 -90 -289 -297 -289c-206 0 -298 151 -298 289z" />
    <glyph glyph-name="adblgrave" unicode="&#x201;" horiz-adv-x="1125" 
d="M459 -17c-204 0 -345 127 -345 324c0 186 129 312 372 312h271v100c0 123 -81 178 -209 178c-127 0 -182 -48 -201 -118h-193c14 176 151 293 400 293c222 0 405 -93 405 -356v-716h-193v137h-9c-49 -81 -142 -154 -298 -154zM519 151c134 0 238 88 238 205v116h-246
c-135 0 -193 -66 -193 -154c0 -112 96 -167 201 -167zM350 1225l-290 363h188l244 -363h-142zM680 1225l-290 363h189l244 -363h-143z" />
    <glyph glyph-name="adotbelow" unicode="&#x1ea1;" horiz-adv-x="1125" 
d="M459 -17c-204 0 -345 127 -345 324c0 186 129 312 372 312h271v100c0 123 -81 178 -209 178c-127 0 -182 -48 -201 -118h-193c14 176 151 293 400 293c222 0 405 -93 405 -356v-716h-193v137h-9c-49 -81 -142 -154 -298 -154zM519 151c134 0 238 88 238 205v116h-246
c-135 0 -193 -66 -193 -154c0 -112 96 -167 201 -167zM448 -249c0 69 48 118 115 118s116 -49 116 -118s-49 -115 -116 -115s-115 46 -115 115z" />
    <glyph glyph-name="acircumflextilde" unicode="&#x1eab;" horiz-adv-x="1125" 
d="M459 -17c-204 0 -345 127 -345 324c0 186 129 312 372 312h271v100c0 123 -81 178 -209 178c-127 0 -182 -48 -201 -118h-193c14 176 151 293 400 293c222 0 405 -93 405 -356v-716h-193v137h-9c-49 -81 -142 -154 -298 -154zM519 151c134 0 238 88 238 205v116h-246
c-135 0 -193 -66 -193 -154c0 -112 96 -167 201 -167zM555 1517c-25 23 -52 51 -90 51c-58 0 -68 -53 -71 -95h-128c0 100 59 208 190 208c67 0 109 -24 158 -67c29 -26 52 -51 88 -51c51 0 70 61 74 104h128c0 -113 -74 -211 -190 -211c-84 0 -122 27 -159 61zM206 1190
l272 217h179l260 -217h-193l-155 125h-8l-157 -125h-198z" />
    <glyph glyph-name="abrevetilde" unicode="&#x1eb5;" horiz-adv-x="1125" 
d="M459 -17c-204 0 -345 127 -345 324c0 186 129 312 372 312h271v100c0 123 -81 178 -209 178c-127 0 -182 -48 -201 -118h-193c14 176 151 293 400 293c222 0 405 -93 405 -356v-716h-193v137h-9c-49 -81 -142 -154 -298 -154zM519 151c134 0 238 88 238 205v116h-246
c-135 0 -193 -66 -193 -154c0 -112 96 -167 201 -167zM849 1391c0 -121 -95 -230 -286 -230s-291 107 -291 230h128c0 -67 61 -118 163 -118s165 50 165 118h121zM536 1513c-22 23 -44 49 -81 49c-50 0 -62 -47 -65 -88h-124c0 102 67 201 179 201c62 0 97 -21 141 -62
c27 -26 45 -49 81 -49c45 0 64 55 67 98h122c0 -113 -71 -205 -178 -205c-75 0 -109 23 -142 56z" />
    <glyph glyph-name="ainvertedbreve" unicode="&#x203;" horiz-adv-x="1125" 
d="M459 -17c-204 0 -345 127 -345 324c0 186 129 312 372 312h271v100c0 123 -81 178 -209 178c-127 0 -182 -48 -201 -118h-193c14 176 151 293 400 293c222 0 405 -93 405 -356v-716h-193v137h-9c-49 -81 -142 -154 -298 -154zM519 151c134 0 238 88 238 205v116h-246
c-135 0 -193 -66 -193 -154c0 -112 96 -167 201 -167zM265 1225c1 139 91 289 298 289s298 -151 297 -289h-131c0 84 -50 164 -166 164s-166 -80 -166 -164h-132z" />
    <glyph glyph-name="abreve" unicode="&#x103;" horiz-adv-x="1125" 
d="M459 -17c-204 0 -345 127 -345 324c0 186 129 312 372 312h271v100c0 123 -81 178 -209 178c-127 0 -182 -48 -201 -118h-193c14 176 151 293 400 293c222 0 405 -93 405 -356v-716h-193v137h-9c-49 -81 -142 -154 -298 -154zM519 151c134 0 238 88 238 205v116h-246
c-135 0 -193 -66 -193 -154c0 -112 96 -167 201 -167zM295 1482h132c0 -84 50 -164 166 -164s167 80 167 164h130c-1 -138 -90 -289 -297 -289c-206 0 -298 151 -298 289z" />
    <glyph glyph-name="acaron" unicode="&#x1ce;" horiz-adv-x="1125" 
d="M459 -17c-204 0 -345 127 -345 324c0 186 129 312 372 312h271v100c0 123 -81 178 -209 178c-127 0 -182 -48 -201 -118h-193c14 176 151 293 400 293c222 0 405 -93 405 -356v-716h-193v137h-9c-49 -81 -142 -154 -298 -154zM519 151c134 0 238 88 238 205v116h-246
c-135 0 -193 -66 -193 -154c0 -112 96 -167 201 -167zM246 1559h166l149 -245h6l141 245h166l-239 -368h-138z" />
    <glyph glyph-name="abrevehookabove" unicode="&#x1eb3;" horiz-adv-x="1125" 
d="M459 -17c-204 0 -345 127 -345 324c0 186 129 312 372 312h271v100c0 123 -81 178 -209 178c-127 0 -182 -48 -201 -118h-193c14 176 151 293 400 293c222 0 405 -93 405 -356v-716h-193v137h-9c-49 -81 -142 -154 -298 -154zM519 151c134 0 238 88 238 205v116h-246
c-135 0 -193 -66 -193 -154c0 -112 96 -167 201 -167zM848 1399c0 -122 -87 -232 -285 -232c-194 0 -291 108 -291 233h128c0 -63 57 -119 163 -119s165 56 165 118h120zM390 1558v102c18 6 58 16 104 16c112 0 202 -54 202 -151c0 -95 -95 -143 -145 -160l-67 84
c35 8 82 30 82 65c0 42 -45 54 -86 54s-68 -5 -90 -10z" />
    <glyph glyph-name="adotaccent" unicode="&#x227;" horiz-adv-x="1125" 
d="M459 -17c-204 0 -345 127 -345 324c0 186 129 312 372 312h271v100c0 123 -81 178 -209 178c-127 0 -182 -48 -201 -118h-193c14 176 151 293 400 293c222 0 405 -93 405 -356v-716h-193v137h-9c-49 -81 -142 -154 -298 -154zM519 151c134 0 238 88 238 205v116h-246
c-135 0 -193 -66 -193 -154c0 -112 96 -167 201 -167zM455 1293c0 66 44 114 108 114s112 -48 112 -114c0 -67 -48 -112 -112 -112s-108 45 -108 112z" />
    <glyph glyph-name="abreveacute" unicode="&#x1eaf;" horiz-adv-x="1125" 
d="M459 -17c-204 0 -345 127 -345 324c0 186 129 312 372 312h271v100c0 123 -81 178 -209 178c-127 0 -182 -48 -201 -118h-193c14 176 151 293 400 293c222 0 405 -93 405 -356v-716h-193v137h-9c-49 -81 -142 -154 -298 -154zM519 151c134 0 238 88 238 205v116h-246
c-135 0 -193 -66 -193 -154c0 -112 96 -167 201 -167zM849 1412c0 -125 -88 -244 -286 -244s-291 117 -291 244h128c1 -69 57 -125 163 -125s165 54 165 125h121zM461 1418l249 239h180l-270 -239h-159z" />
    <glyph glyph-name="acircumflexgrave" unicode="&#x1ea7;" horiz-adv-x="1125" 
d="M459 -17c-204 0 -345 127 -345 324c0 186 129 312 372 312h271v100c0 123 -81 178 -209 178c-127 0 -182 -48 -201 -118h-193c14 176 151 293 400 293c222 0 405 -93 405 -356v-716h-193v137h-9c-49 -81 -142 -154 -298 -154zM519 151c134 0 238 88 238 205v116h-246
c-135 0 -193 -66 -193 -154c0 -112 96 -167 201 -167zM1021 1391h-144l-262 248h192zM206 1195l272 224h179l260 -224h-193l-155 127h-8l-157 -127h-198z" />
    <glyph glyph-name="aringacute" unicode="&#x1fb;" horiz-adv-x="1125" 
d="M707 1529h-168l246 346h221zM459 -17c-204 0 -345 127 -345 324c0 186 129 312 372 312h271v100c0 123 -81 178 -209 178c-127 0 -182 -48 -201 -118h-193c14 176 151 293 400 293c222 0 405 -93 405 -356v-716h-193v137h-9c-49 -81 -142 -154 -298 -154zM519 151
c134 0 238 88 238 205v116h-246c-135 0 -193 -66 -193 -154c0 -112 96 -167 201 -167zM570 1190c-110 0 -198 84 -198 197s88 195 198 195c111 0 198 -82 198 -195s-87 -197 -198 -197zM471 1386c0 -55 43 -99 99 -99s99 44 99 99c0 56 -43 99 -99 99s-99 -43 -99 -99z" />
    <glyph glyph-name="acircumflexdotbelow" unicode="&#x1ead;" horiz-adv-x="1125" 
d="M459 -17c-204 0 -345 127 -345 324c0 186 129 312 372 312h271v100c0 123 -81 178 -209 178c-127 0 -182 -48 -201 -118h-193c14 176 151 293 400 293c222 0 405 -93 405 -356v-716h-193v137h-9c-49 -81 -142 -154 -298 -154zM519 151c134 0 238 88 238 205v116h-246
c-135 0 -193 -66 -193 -154c0 -112 96 -167 201 -167zM242 1225l251 368h138l240 -368h-167l-141 238h-5l-150 -238h-166zM448 -249c0 69 48 118 115 118s116 -49 116 -118s-49 -115 -116 -115s-115 46 -115 115z" />
    <glyph glyph-name="ahookabove" unicode="&#x1ea3;" horiz-adv-x="1125" 
d="M459 -17c-204 0 -345 127 -345 324c0 186 129 312 372 312h271v100c0 123 -81 178 -209 178c-127 0 -182 -48 -201 -118h-193c14 176 151 293 400 293c222 0 405 -93 405 -356v-716h-193v137h-9c-49 -81 -142 -154 -298 -154zM519 151c134 0 238 88 238 205v116h-246
c-135 0 -193 -66 -193 -154c0 -112 96 -167 201 -167zM421 1446v112c25 10 63 18 110 18c130 0 219 -67 219 -185c0 -108 -75 -162 -160 -208l-69 90c71 40 97 69 97 109c0 47 -43 78 -102 78c-38 0 -73 -7 -95 -14z" />
    <glyph glyph-name="abrevegrave" unicode="&#x1eb1;" horiz-adv-x="1125" 
d="M459 -17c-204 0 -345 127 -345 324c0 186 129 312 372 312h271v100c0 123 -81 178 -209 178c-127 0 -182 -48 -201 -118h-193c14 176 151 293 400 293c222 0 405 -93 405 -356v-716h-193v137h-9c-49 -81 -142 -154 -298 -154zM519 151c134 0 238 88 238 205v116h-246
c-135 0 -193 -66 -193 -154c0 -112 96 -167 201 -167zM848 1412c0 -125 -87 -244 -285 -244s-292 116 -292 244h129c0 -70 57 -125 163 -125s164 55 165 125h120zM680 1418h-160l-273 239h183z" />
    <glyph glyph-name="aogonek" unicode="&#x105;" horiz-adv-x="1125" 
d="M972 -366c-20 -8 -63 -21 -129 -21c-113 0 -224 58 -224 195c0 111 75 174 152 224v105h-10c-50 -83 -144 -154 -301 -154c-203 0 -346 127 -346 324c0 186 130 312 371 312h272v100c0 122 -80 178 -211 178c-125 0 -180 -49 -199 -118h-193c14 179 155 293 401 293
c220 0 404 -93 404 -355v-699c-67 -23 -179 -81 -179 -168c0 -60 50 -91 113 -91c24 0 57 3 79 8v-133zM518 151c135 0 239 90 239 207v114h-245c-136 0 -194 -66 -194 -154c0 -112 95 -167 200 -167z" />
    <glyph glyph-name="b" unicode="b" horiz-adv-x="1219" 
d="M690 -15c-170 0 -272 81 -310 174h-10v-159h-196v1437h202v-548h10c28 92 131 182 309 182c243 0 401 -168 401 -460v-165c0 -293 -161 -461 -406 -461zM641 164c147 0 250 100 250 311v103c0 205 -96 315 -254 315c-161 0 -261 -113 -261 -295v-156
c0 -162 107 -278 265 -278z" />
    <glyph glyph-name="bdotaccent" unicode="&#x1e03;" horiz-adv-x="1219" 
d="M165 1674c0 66 44 114 108 114s112 -48 112 -114c0 -67 -48 -112 -112 -112s-108 45 -108 112zM690 -15c-170 0 -272 81 -310 174h-10v-159h-196v1437h202v-548h10c28 92 131 182 309 182c243 0 401 -168 401 -460v-165c0 -293 -161 -461 -406 -461zM641 164
c147 0 250 100 250 311v103c0 205 -96 315 -254 315c-161 0 -261 -113 -261 -295v-156c0 -162 107 -278 265 -278z" />
    <glyph glyph-name="bdotbelow" unicode="&#x1e05;" horiz-adv-x="1219" 
d="M495 -249c0 69 48 118 115 118s116 -49 116 -118s-49 -115 -116 -115s-115 46 -115 115zM690 -15c-170 0 -272 81 -310 174h-10v-159h-196v1437h202v-548h10c28 92 131 182 309 182c243 0 401 -168 401 -460v-165c0 -293 -161 -461 -406 -461zM641 164
c147 0 250 100 250 311v103c0 205 -96 315 -254 315c-161 0 -261 -113 -261 -295v-156c0 -162 107 -278 265 -278z" />
    <glyph glyph-name="blinebelow" unicode="&#x1e07;" horiz-adv-x="1219" 
d="M908 -319h-581v126h581v-126zM690 -15c-170 0 -272 81 -310 174h-10v-159h-196v1437h202v-548h10c28 92 131 182 309 182c243 0 401 -168 401 -460v-165c0 -293 -161 -461 -406 -461zM641 164c147 0 250 100 250 311v103c0 205 -96 315 -254 315
c-161 0 -261 -113 -261 -295v-156c0 -162 107 -278 265 -278z" />
    <glyph glyph-name="c" unicode="c" horiz-adv-x="1093" 
d="M122 453v155c0 281 171 466 448 466c267 0 408 -166 412 -342h-193c-10 65 -59 165 -215 165c-164 0 -251 -117 -251 -294v-150c0 -179 96 -287 251 -287c151 0 205 70 221 147h194c-6 -185 -147 -331 -420 -331s-447 176 -447 471z" />
    <glyph glyph-name="ccedilla" unicode="&#xe7;" horiz-adv-x="1093" 
d="M577 -485c-62 -2 -121 8 -149 16v113c27 -8 82 -14 115 -14c54 0 115 15 115 71c0 61 -67 64 -142 64h-54v89l50 131c-241 24 -390 196 -390 468v155c0 281 171 466 448 466c267 0 408 -166 412 -342h-193c-10 65 -59 165 -215 165c-164 0 -251 -117 -251 -294v-150
c0 -179 96 -287 251 -287c151 0 205 70 221 147h194c-6 -165 -120 -302 -345 -327l-44 -115c124 0 207 -56 207 -164c0 -131 -101 -187 -230 -192z" />
    <glyph glyph-name="cacute" unicode="&#x107;" horiz-adv-x="1093" 
d="M122 453v155c0 281 171 466 448 466c267 0 408 -166 412 -342h-193c-10 65 -59 165 -215 165c-164 0 -251 -117 -251 -294v-150c0 -179 96 -287 251 -287c151 0 205 70 221 147h194c-6 -185 -147 -331 -420 -331s-447 176 -447 471zM495 1228l239 354h192l-279 -354h-152
z" />
    <glyph glyph-name="ccaron" unicode="&#x10d;" horiz-adv-x="1093" 
d="M230 1559h166l149 -245h6l141 245h166l-239 -368h-138zM122 453v155c0 281 171 466 448 466c267 0 408 -166 412 -342h-193c-10 65 -59 165 -215 165c-164 0 -251 -117 -251 -294v-150c0 -179 96 -287 251 -287c151 0 205 70 221 147h194c-6 -185 -147 -331 -420 -331
s-447 176 -447 471z" />
    <glyph glyph-name="cdotaccent" unicode="&#x10b;" horiz-adv-x="1093" 
d="M122 453v155c0 281 171 466 448 466c267 0 408 -166 412 -342h-193c-10 65 -59 165 -215 165c-164 0 -251 -117 -251 -294v-150c0 -179 96 -287 251 -287c151 0 205 70 221 147h194c-6 -185 -147 -331 -420 -331s-447 176 -447 471zM439 1293c0 66 44 114 108 114
s112 -48 112 -114c0 -67 -48 -112 -112 -112s-108 45 -108 112z" />
    <glyph glyph-name="ccircumflex" unicode="&#x109;" horiz-adv-x="1093" 
d="M226 1225l251 368h138l240 -368h-167l-141 238h-5l-150 -238h-166zM122 453v155c0 281 171 466 448 466c267 0 408 -166 412 -342h-193c-10 65 -59 165 -215 165c-164 0 -251 -117 -251 -294v-150c0 -179 96 -287 251 -287c151 0 205 70 221 147h194
c-6 -185 -147 -331 -420 -331s-447 176 -447 471z" />
    <glyph glyph-name="ccedillaacute" unicode="&#x1e09;" horiz-adv-x="1093" 
d="M495 1228l239 354h192l-279 -354h-152zM577 -485c-62 -2 -121 8 -149 16v113c27 -8 82 -14 115 -14c54 0 115 15 115 71c0 61 -67 64 -142 64h-54v89l50 131c-241 24 -390 196 -390 468v155c0 281 171 466 448 466c267 0 408 -166 412 -342h-193c-10 65 -59 165 -215 165
c-164 0 -251 -117 -251 -294v-150c0 -179 96 -287 251 -287c151 0 205 70 221 147h194c-6 -165 -120 -302 -345 -327l-44 -115c124 0 207 -56 207 -164c0 -131 -101 -187 -230 -192z" />
    </font>
</defs>
</svg>
